<?xml version="1.0" standalone="no"?>
<!DOCTYPE svg PUBLIC "-//W3C//DTD SVG 20010904//EN"
 "http://www.w3.org/TR/2001/REC-SVG-20010904/DTD/svg10.dtd">
<svg version="1.0" xmlns="http://www.w3.org/2000/svg"
 width="700.000000pt" height="700.000000pt" viewBox="0 0 700.000000 700.000000"
 preserveAspectRatio="xMidYMid meet">
<metadata>
Created by potrace 1.14, written by Peter Selinger 2001-2017
</metadata>
<g transform="translate(0.000000,700.000000) scale(0.100000,-0.100000)"
fill="#000000" stroke="none">
<path d="M3215 6994 c-527 -52 -991 -193 -1418 -433 -575 -321 -1037 -783
-1359 -1358 -213 -382 -345 -781 -415 -1258 -14 -95 -18 -187 -18 -445 0 -348
7 -419 61 -695 198 -995 833 -1864 1731 -2366 381 -214 782 -346 1258 -416
152 -22 706 -25 855 -5 691 95 1270 339 1784 752 639 514 1087 1249 1240 2038
55 283 61 346 61 692 0 346 -6 409 -61 692 -148 762 -575 1482 -1179 1989
-517 433 -1119 699 -1800 795 -114 16 -633 28 -740 18z m440 -1974 c205 -23
343 -62 510 -145 244 -121 425 -305 540 -548 39 -83 95 -248 95 -282 0 -9 -21
-15 -62 -19 -73 -7 -646 -46 -676 -46 -14 0 -25 14 -41 56 -84 221 -279 344
-545 344 -183 0 -310 -47 -426 -157 -135 -126 -211 -294 -250 -543 -15 -101
-12 -397 6 -518 51 -345 204 -562 459 -648 107 -36 303 -45 419 -20 163 37
311 140 384 267 28 49 82 193 82 218 0 8 -86 11 -275 11 l-275 0 0 295 0 295
635 0 635 0 0 -825 0 -825 -259 0 -259 0 -15 68 c-9 37 -23 103 -32 147 -9 44
-18 86 -21 93 -2 9 -19 -5 -43 -35 -125 -158 -323 -277 -546 -328 -272 -63
-632 -25 -880 94 -143 68 -241 138 -361 256 -317 312 -455 679 -455 1210 0
414 80 708 269 995 107 162 325 356 501 445 249 126 577 179 886 145z"/>
</g>
</svg>
