<?xml version="1.0" standalone="no"?>
<!DOCTYPE svg PUBLIC "-//W3C//DTD SVG 20010904//EN"
 "http://www.w3.org/TR/2001/REC-SVG-20010904/DTD/svg10.dtd">
<svg version="1.0" xmlns="http://www.w3.org/2000/svg"
 width="1090.000000pt" height="1090.000000pt" viewBox="0 0 1090.000000 1090.000000"
 preserveAspectRatio="xMidYMid meet">
<metadata>
Created by potrace 1.14, written by Peter Selinger 2001-2017
</metadata>
<g transform="translate(0.000000,1090.000000) scale(0.100000,-0.100000)"
fill="#000000" stroke="none">
<path d="M5425 10881 c-6 -5 -33 -22 -62 -38 -28 -15 -92 -52 -142 -80 -50
-29 -95 -53 -101 -53 -5 0 -10 -4 -10 -9 0 -5 -8 -11 -17 -15 -10 -3 -31 -15
-48 -26 -16 -11 -41 -25 -55 -32 -22 -11 -218 -123 -268 -153 -9 -6 -64 -37
-122 -70 -121 -69 -120 -69 -197 -115 -32 -19 -60 -34 -63 -35 -3 0 -16 -8
-30 -16 -40 -26 -201 -119 -206 -119 -2 0 -28 -16 -59 -35 -30 -20 -55 -32
-55 -28 0 4 -5 0 -11 -10 -6 -9 -14 -15 -20 -12 -5 4 -9 2 -9 -2 0 -5 -12 -14
-27 -20 -16 -7 -46 -23 -68 -37 -22 -14 -49 -30 -60 -36 -11 -5 -45 -24 -76
-42 -31 -18 -121 -70 -200 -116 -79 -46 -151 -87 -159 -92 -42 -26 -222 -130
-225 -130 -1 0 -54 -30 -116 -67 -126 -73 -225 -130 -309 -176 -30 -17 -57
-33 -60 -36 -3 -4 -30 -19 -60 -35 -30 -16 -62 -35 -71 -42 -8 -8 -21 -14 -27
-14 -6 0 -17 -6 -24 -12 -15 -14 -25 -20 -104 -63 -27 -14 -62 -34 -79 -44
-16 -10 -47 -28 -67 -40 -21 -11 -55 -31 -75 -42 -21 -12 -51 -30 -68 -40 -16
-11 -37 -22 -45 -26 -8 -4 -59 -33 -113 -65 -53 -32 -100 -58 -103 -58 -3 0
-18 -8 -32 -19 -15 -10 -58 -35 -97 -56 -38 -21 -72 -41 -75 -44 -3 -3 -21
-14 -40 -25 -61 -32 -122 -67 -208 -117 -45 -27 -87 -49 -92 -49 -6 0 -10 -4
-10 -10 0 -5 -4 -10 -9 -10 -6 0 -60 -29 -121 -65 -61 -36 -115 -65 -121 -65
-5 0 -9 -4 -9 -9 0 -5 -6 -11 -13 -13 -7 -2 -68 -34 -135 -73 l-122 -70 0
-2721 0 -2721 53 -29 c28 -16 61 -34 72 -41 11 -7 27 -15 35 -19 8 -4 17 -10
20 -13 3 -4 16 -12 30 -18 14 -7 48 -26 75 -42 28 -16 61 -36 75 -44 14 -8 63
-36 110 -62 47 -27 88 -53 92 -59 4 -6 8 -7 8 -3 0 5 13 -1 29 -12 16 -12 34
-21 40 -21 6 0 11 -4 11 -10 0 -5 4 -10 8 -10 13 0 226 -123 230 -132 2 -4 12
-8 22 -8 10 0 20 -3 22 -8 2 -4 46 -32 98 -61 52 -30 97 -56 100 -60 3 -3 10
-7 17 -8 7 -2 36 -18 65 -36 29 -18 132 -78 228 -133 96 -54 177 -102 178
-106 2 -5 7 -8 12 -8 5 0 47 -23 95 -50 48 -28 91 -50 96 -50 5 0 9 -4 9 -10
0 -5 4 -10 9 -10 7 0 106 -55 181 -100 43 -26 307 -177 320 -183 8 -4 29 -16
45 -27 17 -10 41 -25 55 -33 127 -71 317 -181 345 -201 17 -11 30 -19 30 -17
0 3 11 -2 25 -11 62 -39 152 -88 161 -88 5 0 9 -3 9 -7 0 -5 10 -13 23 -19 49
-23 112 -59 115 -66 2 -5 10 -8 17 -8 7 0 15 -5 17 -11 2 -5 10 -11 18 -12 8
-1 44 -20 80 -42 36 -22 68 -39 73 -37 4 1 7 -2 7 -7 0 -5 8 -11 18 -15 9 -3
35 -17 57 -31 22 -14 50 -29 62 -35 11 -5 24 -14 28 -19 3 -6 15 -11 26 -11
10 0 19 -3 19 -8 0 -4 21 -19 48 -32 26 -14 49 -28 50 -32 2 -5 8 -8 13 -8 5
0 39 -18 75 -40 36 -22 67 -40 69 -40 1 0 91 -51 199 -114 108 -63 205 -118
216 -121 11 -3 20 -11 20 -16 0 -5 5 -9 10 -9 6 0 40 -18 76 -40 36 -22 68
-40 69 -40 2 0 55 -30 118 -67 181 -108 181 -108 214 -91 68 36 269 153 274
161 3 5 9 8 13 8 3 -1 16 5 29 13 67 41 238 136 247 136 5 0 10 3 10 8 0 4 34
25 75 47 41 21 75 43 75 47 0 4 9 8 20 8 11 0 20 3 20 8 0 4 10 12 23 18 21
11 172 97 212 121 11 7 32 17 48 24 15 6 27 15 27 19 0 5 10 12 23 16 12 4 46
22 75 40 28 19 52 31 52 28 0 -3 7 2 16 10 8 9 22 16 30 16 8 0 14 5 14 10 0
6 6 10 14 10 7 0 19 7 26 15 7 8 16 13 20 10 5 -3 10 -2 12 3 4 9 237 142 249
142 5 0 9 4 9 8 0 4 26 21 58 37 31 16 59 32 62 35 3 4 23 16 45 27 22 11 81
44 130 73 50 29 110 64 135 78 25 14 56 33 70 42 14 9 30 19 35 21 27 11 150
84 153 91 2 4 8 6 13 2 5 -3 9 0 9 5 0 6 4 11 9 11 8 0 426 237 491 279 44 28
124 72 143 78 9 3 17 9 17 14 0 5 4 9 10 9 5 0 38 17 72 38 35 21 84 49 111
62 26 14 47 28 47 32 0 5 5 8 10 8 6 0 51 24 100 52 126 73 167 97 246 142 38
22 72 44 76 50 4 6 8 8 8 4 0 -6 83 39 150 82 32 20 85 48 94 48 5 0 12 4 15
9 5 8 35 26 131 80 19 11 59 34 88 52 29 17 54 31 56 31 2 0 34 18 71 41 37
22 84 50 104 61 101 56 217 123 221 128 3 3 22 14 42 23 20 10 41 23 45 30 4
6 8 1233 9 2726 l1 2713 -45 27 c-24 14 -84 50 -132 79 -49 28 -93 52 -99 52
-6 0 -11 4 -11 8 0 4 -12 13 -27 19 -33 14 -132 70 -153 87 -8 6 -35 22 -60
36 -25 13 -54 28 -65 34 -11 6 -27 16 -35 22 -8 6 -40 25 -70 41 -30 17 -95
53 -143 82 -49 28 -93 51 -98 51 -5 0 -9 5 -9 10 0 6 -6 10 -14 10 -8 0 -21 6
-28 13 -7 7 -38 25 -68 41 -30 16 -63 36 -74 45 -10 9 -19 14 -20 12 0 -3 -19
7 -41 21 -22 14 -67 40 -100 58 -33 18 -97 55 -143 81 -45 27 -87 49 -91 49
-5 0 -11 4 -13 8 -1 5 -32 24 -68 43 -36 18 -67 36 -70 39 -3 3 -16 11 -29 18
-61 35 -90 51 -139 81 -29 17 -57 31 -62 31 -6 0 -10 5 -10 10 0 6 -4 10 -9
10 -5 0 -80 41 -168 92 -87 50 -183 105 -213 122 -30 16 -57 32 -60 36 -3 3
-20 12 -37 19 -18 8 -33 17 -33 22 0 5 -5 9 -10 9 -6 0 -40 18 -76 40 -36 22
-68 40 -71 40 -2 0 -43 23 -91 52 -74 43 -155 90 -327 188 -16 10 -54 31 -83
49 -29 17 -57 31 -62 31 -6 0 -10 5 -10 10 0 6 -6 10 -14 10 -8 0 -21 6 -28
13 -8 6 -29 20 -48 31 -19 10 -50 27 -67 37 -52 30 -104 60 -150 85 -23 13
-92 53 -153 89 -61 36 -115 65 -121 65 -5 0 -9 4 -9 9 0 5 -15 15 -32 22 -18
7 -55 27 -83 44 -27 18 -70 43 -95 57 -72 40 -123 70 -155 89 -16 11 -37 22
-45 26 -16 7 -259 148 -371 214 -36 21 -71 39 -77 39 -7 0 -12 5 -12 10 0 6
-5 10 -12 10 -6 0 -19 6 -27 14 -22 20 -64 29 -76 17z m55 -666 c7 -9 15 -13
18 -10 3 3 12 -1 21 -8 30 -26 121 -77 136 -77 8 0 15 -3 15 -8 0 -4 17 -16
38 -27 20 -11 39 -22 42 -25 5 -5 22 -15 88 -51 20 -11 60 -34 87 -50 28 -16
61 -35 75 -42 14 -6 27 -14 30 -17 5 -6 45 -29 160 -93 30 -17 58 -35 62 -41
4 -6 8 -8 8 -3 0 4 17 -4 38 -17 46 -30 302 -176 308 -176 3 0 10 -5 17 -10
14 -12 463 -273 615 -357 31 -17 62 -36 69 -42 7 -6 14 -11 17 -11 2 0 43 -22
91 -50 48 -27 91 -50 96 -50 5 0 9 -4 9 -10 0 -5 5 -10 11 -10 12 0 145 -76
172 -98 9 -8 17 -11 17 -7 0 4 8 1 18 -7 9 -9 37 -27 62 -40 88 -49 125 -70
135 -78 6 -4 35 -21 65 -37 30 -17 94 -53 142 -81 48 -29 91 -52 97 -52 6 0
11 -5 11 -11 0 -5 5 -7 10 -4 6 3 10 2 10 -3 0 -5 14 -15 30 -22 17 -7 30 -16
30 -21 0 -5 7 -9 15 -9 8 0 39 -16 69 -35 30 -19 59 -35 64 -35 5 0 15 -7 22
-15 7 -8 16 -13 20 -10 5 3 10 1 12 -3 1 -4 77 -51 167 -103 91 -52 194 -111
230 -132 36 -21 74 -41 84 -44 9 -3 17 -9 17 -13 0 -4 11 -11 25 -14 14 -4 25
-11 25 -16 0 -6 6 -10 14 -10 8 0 21 -7 30 -15 8 -9 19 -16 23 -16 4 -1 51
-26 103 -57 52 -31 113 -65 135 -77 22 -11 58 -32 80 -46 22 -13 60 -35 85
-48 l45 -23 0 -2390 c0 -2378 0 -2390 -20 -2405 -11 -8 -32 -19 -47 -25 -16
-5 -28 -14 -28 -19 0 -5 -4 -9 -10 -9 -5 0 -33 -14 -62 -31 -60 -36 -87 -51
-173 -99 -33 -19 -62 -36 -65 -39 -3 -4 -21 -14 -40 -24 -62 -33 -95 -52 -100
-58 -3 -3 -21 -13 -40 -22 -19 -10 -48 -26 -65 -36 -30 -19 -339 -197 -407
-235 -20 -12 -73 -42 -118 -68 -46 -27 -87 -48 -91 -48 -5 0 -9 -4 -9 -8 0 -5
-16 -14 -35 -22 -19 -8 -35 -17 -35 -20 0 -3 -16 -12 -35 -20 -19 -8 -35 -17
-35 -21 0 -4 -8 -9 -17 -12 -10 -4 -37 -18 -60 -32 -24 -14 -62 -36 -85 -50
-24 -14 -51 -28 -60 -32 -10 -3 -18 -9 -18 -13 0 -4 -11 -11 -25 -14 -14 -4
-25 -11 -25 -16 0 -6 -8 -10 -19 -10 -10 0 -24 -7 -31 -15 -7 -8 -19 -15 -26
-15 -8 0 -14 -4 -14 -8 0 -4 -12 -13 -27 -20 -41 -18 -87 -46 -91 -54 -2 -5
-8 -8 -13 -8 -8 0 -171 -92 -299 -169 -19 -11 -44 -25 -55 -31 -11 -6 -47 -26
-80 -45 -33 -20 -68 -38 -77 -42 -10 -3 -18 -9 -18 -14 0 -5 -4 -9 -9 -9 -4 0
-59 -29 -120 -65 -62 -36 -116 -65 -122 -65 -5 0 -9 -3 -9 -7 0 -5 -10 -13
-23 -19 -50 -25 -162 -88 -167 -94 -3 -4 -20 -13 -37 -21 -18 -8 -33 -17 -33
-21 0 -5 -4 -8 -9 -8 -5 0 -42 -19 -83 -43 -40 -24 -80 -46 -88 -50 -8 -4 -24
-13 -35 -19 -56 -36 -126 -78 -129 -78 -3 0 -50 -27 -106 -60 -56 -33 -103
-60 -105 -60 -2 0 -38 -20 -79 -45 -42 -25 -81 -45 -86 -45 -6 0 -10 -4 -10
-10 0 -5 -7 -10 -15 -10 -8 0 -15 -5 -15 -10 0 -6 -4 -9 -8 -8 -5 2 -31 -11
-58 -28 -27 -17 -56 -34 -64 -37 -8 -4 -33 -18 -55 -32 -22 -14 -47 -28 -55
-31 -8 -4 -47 -27 -87 -51 -80 -49 -84 -49 -165 -2 -27 16 -53 29 -58 29 -6 0
-10 5 -10 10 0 6 -6 10 -14 10 -7 0 -19 7 -26 15 -7 8 -16 12 -21 9 -5 -3 -9
0 -9 5 0 6 -4 11 -10 11 -5 0 -39 18 -75 40 -36 22 -68 40 -71 40 -3 0 -25 13
-48 28 -22 15 -57 35 -76 45 -19 10 -42 22 -50 27 -67 42 -169 100 -178 100
-6 0 -12 4 -14 8 -1 5 -28 22 -58 38 -75 41 -121 68 -169 98 -22 15 -43 26
-45 26 -2 0 -39 20 -80 45 -42 25 -81 45 -86 45 -6 0 -10 4 -10 9 0 5 -11 12
-25 15 -14 4 -25 11 -25 16 0 6 -5 10 -10 10 -14 0 -244 132 -248 142 -2 4 -7
8 -12 8 -4 0 -37 16 -72 36 -34 20 -83 48 -108 62 -25 14 -78 45 -118 69 -41
24 -76 43 -80 43 -3 0 -13 6 -21 14 -9 7 -46 30 -84 50 -37 20 -101 57 -143
81 -42 25 -80 45 -85 45 -5 0 -9 3 -9 8 0 4 -17 15 -37 25 -21 10 -65 34 -98
54 -33 19 -85 49 -115 66 -30 16 -67 38 -82 49 -14 10 -28 18 -31 18 -3 0 -66
36 -141 80 -76 44 -141 80 -146 80 -6 0 -10 5 -10 10 0 6 -4 10 -9 10 -13 0
-294 162 -303 175 -4 5 -8 6 -8 1 0 -5 -8 -2 -17 6 -10 9 -47 31 -83 49 -36
19 -67 37 -70 40 -4 5 -48 30 -145 83 -11 6 -22 13 -25 16 -5 5 -41 26 -100
57 -19 10 -37 20 -40 23 -3 3 -16 11 -29 18 -72 41 -140 80 -309 177 l-121 70
0 2390 0 2390 67 38 c37 20 92 52 123 70 31 17 153 88 272 157 120 69 239 138
265 153 26 15 58 33 72 40 14 6 27 14 30 17 3 3 52 32 110 65 58 32 107 62
108 67 2 4 12 8 23 8 10 0 19 4 19 8 0 5 15 15 33 24 44 21 378 214 394 228 7
5 15 10 18 10 3 0 124 68 268 151 144 84 278 161 297 172 19 10 60 34 91 53
31 19 62 34 68 34 6 0 11 4 11 8 0 5 23 19 50 32 28 13 50 27 50 32 0 4 6 8
14 8 7 0 30 11 50 25 20 13 36 21 36 18 0 -4 7 2 15 13 8 10 15 15 15 11 0 -5
12 0 28 11 22 15 102 61 375 217 9 6 74 43 143 83 69 39 129 72 134 72 4 0 10
4 12 8 2 4 73 48 158 96 85 49 173 100 195 113 22 12 47 26 55 29 8 4 23 14
33 22 9 8 17 11 17 6 0 -5 4 -4 8 2 4 6 39 28 77 49 39 22 76 45 83 52 7 7 20
13 28 13 8 0 20 5 27 11 24 22 263 157 278 158 9 1 22 -6 29 -14z"/>
<path d="M5396 9495 c-20 -14 -41 -25 -46 -25 -5 0 -15 -6 -22 -12 -7 -7 -31
-22 -53 -33 -22 -11 -42 -22 -45 -25 -3 -3 -32 -21 -65 -40 -86 -47 -212 -119
-245 -139 -17 -11 -317 -184 -499 -289 -69 -40 -128 -72 -133 -72 -4 0 -8 -4
-8 -8 0 -4 -12 -13 -27 -19 -16 -7 -46 -23 -68 -37 -40 -25 -81 -48 -145 -82
-19 -11 -36 -22 -38 -26 -2 -5 -7 -8 -12 -8 -8 0 -60 -30 -140 -79 -14 -9 -27
-16 -30 -16 -3 0 -50 -27 -105 -59 -55 -33 -138 -81 -185 -108 -47 -27 -92
-53 -100 -58 -8 -5 -80 -46 -159 -92 -80 -46 -165 -95 -190 -110 -25 -15 -57
-33 -71 -41 -88 -48 -196 -113 -198 -119 -2 -5 -10 -8 -17 -8 -8 0 -29 -10
-48 -22 -48 -32 -131 -82 -137 -83 -3 0 -48 -26 -100 -56 -52 -31 -168 -99
-258 -150 -90 -52 -180 -104 -200 -116 -20 -13 -56 -32 -79 -45 -24 -12 -43
-25 -43 -28 0 -4 21 -19 48 -33 26 -15 74 -43 107 -62 64 -37 119 -68 200
-114 28 -15 81 -46 119 -69 37 -23 69 -42 71 -42 2 0 36 -19 77 -43 40 -24 93
-55 118 -69 25 -14 101 -58 170 -98 69 -40 139 -80 155 -90 30 -17 126 -73
155 -90 125 -74 189 -110 195 -110 4 0 19 -8 33 -19 28 -19 80 -50 144 -83 21
-11 38 -25 38 -31 0 -6 3 -8 6 -5 3 3 67 -30 142 -74 75 -44 166 -96 202 -116
36 -19 89 -50 118 -68 28 -19 52 -30 52 -26 0 4 4 2 8 -4 4 -5 38 -28 77 -50
38 -21 90 -51 115 -66 25 -15 62 -36 82 -47 65 -36 83 -46 88 -51 5 -5 62 -37
97 -54 13 -6 23 -14 23 -18 0 -5 4 -8 9 -8 9 0 176 -93 231 -128 14 -9 28 -15
33 -14 4 1 7 -3 7 -8 0 -6 4 -10 9 -10 7 0 173 -92 196 -110 6 -4 42 -24 80
-45 39 -20 77 -44 86 -51 8 -8 19 -14 22 -14 4 0 25 -11 46 -24 21 -14 42 -22
45 -19 3 4 6 1 6 -5 0 -6 20 -21 44 -33 44 -22 51 -42 18 -53 -18 -5 -55 -27
-180 -102 -40 -24 -76 -44 -81 -44 -5 0 -14 -7 -21 -15 -7 -9 -15 -13 -18 -10
-3 3 -20 -6 -38 -20 -18 -14 -35 -25 -37 -25 -3 0 -43 -22 -90 -50 -47 -27
-90 -50 -96 -50 -6 0 -11 -4 -11 -10 0 -5 -4 -10 -9 -10 -5 0 -38 -17 -72 -38
-35 -22 -84 -50 -109 -64 -90 -50 -221 -126 -240 -138 -8 -6 -30 -18 -47 -27
-18 -9 -33 -21 -33 -25 0 -5 -4 -7 -9 -3 -5 3 -15 -1 -23 -8 -7 -7 -17 -15
-23 -16 -5 -2 -46 -24 -90 -50 -44 -26 -142 -83 -218 -127 -76 -43 -154 -89
-175 -101 -20 -12 -44 -25 -52 -30 -8 -4 -49 -27 -90 -51 -41 -25 -91 -54
-110 -65 -90 -50 -246 -142 -250 -146 -3 -4 -11 -7 -19 -9 -7 -1 -37 -18 -67
-37 -30 -19 -56 -35 -58 -35 -9 0 -131 -75 -134 -82 -2 -5 -12 -8 -22 -8 -10
0 -20 -4 -22 -8 -2 -7 -79 -52 -266 -158 -20 -11 -54 -30 -74 -42 -21 -12 -53
-31 -72 -41 -19 -11 -53 -31 -75 -45 -22 -15 -43 -26 -45 -26 -3 0 -50 -27
-105 -60 -55 -33 -104 -60 -110 -60 -5 0 -11 -4 -13 -9 -1 -5 -10 -11 -18 -13
-8 -2 -17 -6 -20 -9 -3 -3 -36 -23 -73 -45 -171 -97 -170 -96 -129 -117 41
-20 216 -120 222 -127 6 -6 84 -49 117 -65 13 -5 23 -13 23 -17 0 -5 6 -8 13
-8 6 0 40 -18 73 -39 34 -21 71 -42 83 -46 11 -3 21 -10 21 -15 0 -4 11 -11
25 -14 14 -4 25 -11 25 -16 0 -6 6 -10 13 -10 7 0 34 -13 60 -30 26 -16 47
-26 47 -22 0 4 4 2 8 -4 6 -9 103 -69 142 -87 8 -4 29 -16 45 -27 17 -10 41
-25 55 -33 14 -7 48 -27 75 -42 28 -16 66 -38 86 -49 21 -12 75 -43 120 -71
46 -27 86 -50 89 -50 3 0 23 -12 45 -26 22 -14 75 -45 117 -68 43 -23 80 -46
83 -52 4 -5 15 -9 26 -9 10 0 19 -4 19 -9 0 -5 21 -19 48 -33 26 -13 119 -66
207 -118 88 -51 175 -101 192 -111 18 -10 119 -69 225 -130 106 -62 211 -121
233 -133 22 -12 42 -23 45 -26 3 -3 16 -11 30 -19 14 -8 52 -30 85 -49 33 -19
76 -43 95 -54 19 -11 60 -35 91 -54 31 -19 59 -34 62 -34 3 0 41 -22 84 -48
43 -26 85 -51 93 -55 8 -4 30 -16 49 -28 19 -11 97 -57 174 -100 137 -79 139
-80 164 -64 36 24 314 185 319 185 2 0 27 15 57 33 29 17 61 37 72 44 11 7 44
24 73 39 28 14 52 30 52 35 0 5 3 8 8 7 4 -2 50 23 102 53 92 54 147 86 219
125 19 11 40 22 45 27 39 28 176 104 181 99 3 -3 5 0 5 6 0 7 4 12 10 12 5 0
33 14 62 32 59 34 149 87 218 126 25 14 59 33 75 43 17 10 53 31 80 46 91 53
100 58 106 66 3 5 8 7 10 6 2 -2 15 4 29 12 93 56 132 79 135 79 3 0 34 18 70
40 36 22 67 40 69 40 2 0 60 33 127 73 68 40 141 81 162 92 20 11 37 23 37 27
0 5 9 8 20 8 11 0 20 4 20 9 0 5 10 13 23 17 12 4 24 9 27 13 3 3 17 13 33 21
15 8 109 62 210 120 100 58 189 108 197 113 8 4 29 16 45 27 17 11 37 23 45
27 8 4 38 20 65 36 47 28 77 45 136 79 13 7 27 18 31 23 4 6 8 6 8 2 0 -5 13
1 28 12 15 10 55 34 87 52 33 18 62 35 65 38 3 3 28 18 55 32 28 14 50 32 50
39 0 7 -22 24 -50 39 -27 14 -52 28 -55 32 -3 3 -30 19 -60 36 -30 17 -127 72
-215 123 -88 51 -173 101 -190 110 -16 9 -91 52 -165 95 -74 43 -148 86 -165
94 -16 9 -31 19 -33 24 -2 4 -9 7 -14 7 -6 0 -32 13 -57 29 -73 46 -135 81
-153 88 -10 3 -18 9 -18 14 0 5 -5 9 -11 9 -6 0 -63 31 -127 69 -113 66 -145
85 -242 139 -25 14 -62 36 -82 49 -21 12 -42 23 -48 23 -5 0 -10 3 -10 8 0 4
-17 15 -37 25 -21 9 -45 22 -53 27 -8 5 -62 37 -120 70 -58 33 -112 65 -120
70 -24 15 -122 71 -169 98 -25 14 -67 38 -93 53 -27 16 -53 29 -58 29 -6 0
-10 5 -10 10 0 6 -5 10 -10 10 -6 0 -27 11 -48 23 -20 13 -58 36 -84 50 -27
15 -69 39 -95 54 -27 14 -65 37 -85 50 -21 12 -42 23 -47 23 -5 0 -11 3 -13 8
-1 4 -24 18 -50 31 -27 13 -48 28 -48 33 0 4 -9 8 -20 8 -11 0 -20 4 -20 8 0
4 -34 25 -75 47 -41 21 -75 42 -75 47 0 4 -8 8 -18 8 -10 0 -23 5 -29 11 -6 6
-104 64 -217 129 l-207 117 48 30 c26 17 64 39 83 49 19 10 42 24 50 30 8 6
40 24 70 40 30 15 66 36 80 45 14 9 45 27 70 41 108 60 125 71 132 82 4 6 8 7
8 3 0 -5 13 1 29 12 16 12 37 24 47 28 11 5 62 34 116 66 53 31 101 57 107 57
6 0 11 4 11 8 0 5 19 17 41 28 23 10 47 23 53 29 6 5 29 20 51 31 65 34 479
275 493 286 6 6 12 7 12 4 0 -4 6 -2 13 4 17 15 180 111 192 113 9 2 16 7 49
35 9 7 18 13 21 13 21 3 45 13 45 18 0 4 22 18 50 32 27 13 50 27 50 32 0 4 5
7 10 7 10 0 170 89 180 100 3 3 34 21 70 39 36 19 70 38 77 43 10 8 191 113
303 176 25 14 73 43 108 64 34 21 64 38 66 38 3 0 40 21 83 46 43 26 92 55
108 64 17 9 134 77 260 150 127 73 252 145 278 160 53 30 53 31 -23 71 -25 13
-47 26 -50 30 -5 5 -35 22 -170 97 -25 14 -62 36 -82 49 -21 13 -64 37 -95 54
-32 17 -61 36 -65 43 -4 6 -8 8 -8 3 0 -4 -18 4 -41 18 -22 15 -55 34 -72 44
-78 44 -304 175 -327 189 -14 9 -27 17 -30 17 -3 0 -34 18 -70 39 -59 35 -123
72 -175 100 -11 6 -27 16 -35 22 -8 6 -35 22 -60 35 -25 13 -52 29 -60 35 -8
6 -42 26 -74 43 -33 17 -64 35 -70 40 -6 4 -31 20 -56 33 -25 14 -61 34 -80
45 -19 11 -51 29 -70 39 -19 11 -37 22 -40 25 -3 3 -18 12 -35 21 -36 18 -189
107 -226 131 -14 9 -29 14 -32 10 -4 -3 -7 -1 -7 5 0 6 -9 14 -20 17 -11 3
-26 12 -32 19 -7 6 -29 20 -48 29 -19 10 -53 29 -75 43 -22 13 -52 29 -67 35
-16 6 -28 15 -28 20 0 5 -4 9 -9 9 -5 0 -44 20 -85 45 -42 25 -79 45 -83 45
-4 0 -14 6 -22 14 -9 7 -41 27 -71 43 -30 17 -95 53 -144 82 -49 28 -93 51
-97 51 -5 0 -9 5 -9 10 0 6 -4 10 -9 10 -5 0 -49 23 -98 51 -48 29 -113 65
-143 82 -30 16 -62 35 -70 41 -15 11 -25 17 -109 64 -25 14 -79 45 -119 69
-41 24 -75 43 -76 43 -2 0 -20 -11 -40 -25z"/>
</g>
</svg>
