<?xml version="1.0" standalone="no"?>
<!DOCTYPE svg PUBLIC "-//W3C//DTD SVG 20010904//EN"
 "http://www.w3.org/TR/2001/REC-SVG-20010904/DTD/svg10.dtd">
<svg version="1.0" xmlns="http://www.w3.org/2000/svg"
 width="592.000000pt" height="592.000000pt" viewBox="0 0 592.000000 592.000000"
 preserveAspectRatio="xMidYMid meet">
<metadata>
Created by potrace 1.14, written by Peter Selinger 2001-2017
</metadata>
<g transform="translate(0.000000,592.000000) scale(0.100000,-0.100000)"
fill="#000000" stroke="none">
<path d="M2775 5808 c-93 -55 -190 -111 -215 -125 -25 -13 -58 -33 -75 -44
-16 -10 -37 -22 -45 -26 -13 -6 -71 -40 -165 -95 -16 -10 -42 -23 -57 -29 -16
-6 -28 -14 -28 -19 0 -4 -8 -10 -17 -13 -10 -4 -45 -22 -78 -42 -33 -19 -72
-41 -87 -47 -16 -7 -28 -16 -28 -20 0 -4 -4 -8 -9 -8 -5 0 -66 -33 -135 -74
-69 -41 -135 -77 -146 -81 -11 -3 -20 -11 -20 -16 0 -5 -5 -9 -10 -9 -6 0 -65
-32 -133 -71 -67 -40 -141 -83 -165 -96 -23 -13 -93 -53 -154 -89 -61 -35
-115 -64 -119 -64 -5 0 -9 -4 -9 -8 0 -4 -12 -13 -27 -19 -16 -7 -48 -24 -73
-38 -24 -15 -101 -60 -170 -100 -69 -39 -149 -86 -178 -104 -29 -17 -57 -31
-62 -31 -6 0 -10 -4 -10 -10 0 -5 -5 -10 -11 -10 -6 0 -42 -19 -80 -41 l-69
-41 0 -1478 0 -1478 93 -54 c50 -29 101 -58 112 -65 11 -7 29 -17 40 -23 11
-6 38 -21 60 -34 89 -51 172 -100 205 -118 86 -50 206 -119 220 -128 8 -6 22
-13 30 -17 8 -4 48 -26 88 -50 40 -24 77 -43 82 -43 6 0 10 -4 10 -10 0 -5 5
-10 10 -10 6 0 27 -11 48 -23 20 -13 57 -35 82 -49 71 -39 200 -114 538 -309
17 -11 48 -28 67 -39 19 -11 51 -29 70 -40 87 -50 103 -59 153 -89 29 -17 57
-31 62 -31 6 0 10 -4 10 -10 0 -5 4 -10 9 -10 9 0 106 -53 161 -88 14 -9 27
-17 30 -17 3 0 50 -27 105 -59 55 -32 137 -81 183 -107 45 -27 89 -49 97 -49
8 0 49 20 91 45 41 25 77 45 79 45 2 0 39 21 82 48 43 26 89 53 103 60 14 7
43 23 65 36 22 13 51 31 65 38 14 8 144 84 290 168 146 84 283 163 305 175 22
12 102 59 179 104 76 44 140 81 142 81 3 0 23 12 47 27 23 15 44 28 47 28 3 0
16 8 30 17 55 35 414 238 422 238 4 0 8 5 8 10 0 6 4 10 9 10 5 0 79 40 164
90 86 49 160 90 165 90 6 0 12 4 14 8 3 7 145 92 154 92 2 0 26 14 54 31 l50
31 -2 1481 -3 1480 -45 25 c-25 13 -56 31 -70 40 -14 9 -50 29 -80 45 -30 16
-62 34 -70 41 -8 6 -24 16 -35 22 -11 6 -40 22 -65 36 -176 100 -216 123 -220
128 -3 3 -16 11 -30 17 -28 14 -74 40 -168 96 -35 20 -67 37 -73 37 -5 0 -9 5
-9 10 0 6 -4 10 -10 10 -5 0 -44 21 -87 46 -43 25 -100 59 -128 74 -27 15
-149 85 -270 155 -121 71 -247 143 -280 162 -33 18 -67 37 -75 43 -8 5 -42 25
-75 43 -33 19 -116 67 -185 107 -131 76 -169 98 -235 135 -22 13 -107 62 -188
109 -82 47 -156 86 -165 85 -9 0 -93 -46 -187 -101z m346 -319 c15 -10 37 -23
50 -29 13 -5 31 -14 39 -20 44 -30 292 -170 300 -170 6 0 10 -4 10 -10 0 -5 5
-10 11 -10 12 0 145 -76 172 -98 9 -8 17 -11 17 -6 0 5 4 5 8 -1 4 -5 16 -15
27 -21 11 -6 169 -97 350 -201 182 -105 347 -200 368 -212 55 -31 87 -50 262
-151 88 -51 176 -102 195 -113 134 -75 296 -171 301 -179 3 -5 6 -597 5 -1315
l-1 -1305 -152 -88 c-83 -48 -157 -90 -165 -94 -7 -3 -26 -14 -43 -25 -45 -27
-505 -292 -540 -310 -16 -9 -32 -18 -35 -21 -3 -3 -21 -14 -40 -25 -136 -76
-257 -146 -267 -155 -7 -5 -15 -10 -18 -10 -3 0 -114 -63 -246 -140 -133 -77
-246 -140 -250 -140 -5 0 -9 -5 -9 -11 0 -5 -4 -8 -9 -5 -5 3 -14 -1 -21 -9
-7 -8 -19 -15 -26 -15 -8 0 -14 -4 -14 -8 0 -5 -16 -14 -35 -22 -19 -8 -35
-17 -35 -21 0 -4 -8 -9 -17 -12 -10 -3 -40 -19 -68 -35 -206 -119 -247 -142
-255 -142 -4 0 -10 -5 -12 -12 -4 -11 -18 -5 -153 72 -16 10 -53 31 -81 47
-27 17 -70 41 -95 55 -24 14 -132 76 -239 138 -107 62 -215 124 -240 138 -25
13 -49 28 -55 32 -5 4 -31 19 -58 34 -125 69 -144 80 -169 97 -14 11 -28 19
-31 19 -3 0 -51 27 -106 60 -56 33 -103 60 -106 60 -3 0 -33 17 -67 38 -35 21
-83 50 -108 64 -140 79 -701 404 -737 426 l-41 26 0 1307 0 1306 102 61 c56
33 114 66 129 73 15 7 27 16 27 21 0 4 4 8 8 8 8 0 105 52 187 101 28 16 73
41 100 55 28 15 52 30 53 35 2 5 8 9 14 9 8 0 122 65 178 100 8 6 26 16 40 22
14 7 27 15 30 18 3 3 22 14 42 25 21 11 122 69 225 129 103 60 204 118 223
128 19 11 64 37 100 58 36 21 88 51 115 66 51 29 249 143 308 177 18 11 50 29
72 40 22 12 42 25 45 28 3 3 32 21 65 39 33 18 78 44 100 56 22 13 56 32 75
43 l35 19 65 -35 c36 -20 77 -44 91 -54z"/>
<path d="M2875 5131 c-44 -27 -163 -96 -265 -154 -102 -58 -190 -111 -196
-116 -7 -5 -27 -17 -45 -26 -19 -9 -52 -27 -74 -40 -22 -14 -47 -28 -55 -32
-8 -3 -31 -16 -50 -28 -19 -12 -55 -33 -80 -47 -25 -14 -85 -49 -135 -78 -49
-29 -103 -60 -120 -70 -16 -9 -106 -61 -200 -115 -93 -54 -190 -109 -215 -123
-25 -14 -99 -57 -165 -96 -66 -39 -131 -77 -145 -84 -104 -55 -107 -43 30
-121 25 -14 112 -64 193 -111 81 -47 155 -89 165 -95 9 -5 53 -31 97 -56 44
-26 96 -56 115 -67 19 -10 75 -43 123 -71 49 -28 93 -51 98 -51 5 0 9 -4 9
-10 0 -5 4 -10 10 -10 5 0 33 -14 62 -31 55 -33 91 -54 156 -90 43 -25 270
-156 292 -169 8 -5 47 -27 85 -49 39 -22 97 -56 130 -76 33 -19 94 -53 135
-77 41 -23 77 -44 80 -48 3 -3 15 -10 28 -15 21 -9 8 -19 -140 -105 -89 -52
-172 -100 -183 -106 -11 -6 -90 -51 -175 -101 -85 -49 -175 -101 -200 -115
-25 -14 -94 -54 -155 -90 -60 -35 -117 -67 -125 -71 -8 -4 -28 -16 -45 -26
-16 -11 -46 -28 -65 -39 -73 -40 -110 -62 -149 -86 -22 -15 -42 -26 -45 -26
-2 0 -61 -34 -131 -75 -69 -41 -131 -75 -136 -75 -5 0 -9 -4 -9 -9 0 -5 -10
-13 -22 -17 -13 -4 -55 -26 -95 -50 -39 -24 -76 -44 -82 -44 -6 0 -11 -4 -11
-9 0 -5 -10 -13 -22 -17 -38 -12 -99 -54 -93 -64 3 -5 18 -15 33 -23 48 -26
197 -111 202 -117 3 -3 21 -13 40 -24 19 -10 50 -27 68 -37 90 -52 175 -101
255 -148 49 -28 93 -51 98 -51 5 0 9 -4 9 -10 0 -5 4 -10 9 -10 7 0 92 -47
199 -111 15 -9 47 -27 72 -41 25 -14 69 -39 98 -57 29 -17 57 -31 62 -31 6 0
10 -4 10 -9 0 -5 16 -15 35 -22 19 -7 35 -17 35 -21 0 -4 4 -8 10 -8 5 0 55
-27 111 -60 55 -33 102 -60 104 -60 2 0 49 -27 104 -60 56 -33 106 -60 111
-60 6 0 10 -4 10 -10 0 -5 4 -10 10 -10 5 0 47 -23 94 -50 47 -28 89 -50 95
-50 6 0 11 -4 11 -10 0 -23 15 -16 273 134 48 28 105 60 125 72 20 11 139 80
264 152 126 73 230 132 233 132 3 0 11 5 18 11 7 5 89 54 182 108 94 54 293
169 444 256 151 87 290 166 310 177 20 10 47 27 60 37 l24 18 -49 28 c-27 16
-57 35 -66 43 -10 8 -18 12 -18 7 0 -4 -6 -3 -12 3 -18 14 -358 212 -365 212
-4 0 -14 6 -22 14 -9 7 -41 27 -71 43 -30 17 -170 96 -310 178 -140 81 -275
159 -300 173 -25 14 -62 36 -82 49 -21 12 -39 23 -42 23 -3 0 -176 101 -206
120 -8 6 -22 13 -30 17 -8 4 -62 34 -120 68 -58 34 -129 75 -157 91 -53 29
-59 40 -32 56 8 4 66 38 129 74 63 37 129 75 147 85 17 10 134 77 260 150 125
72 298 172 383 221 85 49 162 94 170 99 96 57 365 209 371 209 5 0 9 3 9 8 0
4 10 12 23 17 31 15 111 59 117 65 3 3 21 13 40 24 94 50 230 132 230 137 0 3
-23 19 -52 35 -28 16 -75 43 -104 59 -160 92 -332 190 -349 199 -10 6 -25 17
-33 24 -7 6 -20 12 -28 12 -8 0 -14 5 -14 10 0 6 -4 10 -10 10 -5 0 -73 37
-152 83 -79 46 -208 121 -288 167 -80 46 -197 114 -260 150 -63 37 -137 80
-165 95 -85 48 -149 85 -165 95 -25 17 -292 170 -294 169 0 0 -37 -22 -81 -48z"/>
</g>
</svg>
