<svg width="1315" height="820" viewBox="0 0 1315 820" fill="none" xmlns="http://www.w3.org/2000/svg">
<g clip-path="url(#clip0_188_763)">
<path d="M101.74 731.021L52.2792 702.464L51.1815 701.827L50.0838 702.464L0.644661 731.021L0.0958252 731.328V790.307L0.644661 790.615L50.0838 819.172L51.1815 819.808L52.2792 819.172L101.74 790.615L102.289 790.307V731.328L101.74 731.021ZM51.1815 818.535L1.1935 789.693V731.964L51.1815 703.1L101.191 731.964V789.693L51.1815 818.535Z" fill="#1D1D1D"/>
<path d="M94.5397 735.784V785.851L51.1817 810.874L7.82361 785.851V735.784L51.1817 760.829V710.761L94.5397 735.784Z" fill="#1D1D1D"/>
<path d="M108.643 785.65L152.708 811.021V760.279L108.643 785.65Z" fill="#1D1D1D"/>
<path d="M202.836 731.021L153.375 702.464L152.277 701.827L151.18 702.464L101.74 731.021L101.192 731.328V790.307L101.74 790.615L151.18 819.172L152.277 819.808L153.375 819.172L202.836 790.615L203.385 790.307V731.328L202.836 731.021ZM152.277 818.535L102.289 789.693V731.964L152.277 703.1L202.287 731.964V789.693L152.277 818.535Z" fill="#1D1D1D"/>
<path d="M195.657 735.784V785.851L152.277 760.829L108.919 735.784L152.277 710.761L195.657 735.784Z" fill="#1D1D1D"/>
<path d="M210.126 785.65L252.855 811.021V760.279L210.126 785.65Z" fill="#1D1D1D"/>
<path d="M303.931 731.021L254.492 702.464L253.394 701.827L252.297 702.464L202.836 731.021L202.287 731.328V790.307L202.836 790.615L252.297 819.172L253.394 819.808L254.492 819.172L303.931 790.615L304.48 790.307V731.328L303.931 731.021ZM253.394 818.535L203.384 789.693V731.964L253.394 703.1L303.382 731.964V789.693L253.394 818.535Z" fill="#1D1D1D"/>
<path d="M296.752 735.784V785.851L253.394 760.829L210.014 735.784L253.394 710.761L296.752 735.784Z" fill="#1D1D1D"/>
<path d="M354.339 760.958L311.609 785.65V736.244L354.339 760.958Z" fill="#1D1D1D"/>
<path d="M398.404 785.65L354.339 811.021V760.279L398.404 785.65Z" fill="#1D1D1D"/>
<path d="M398.404 735.565L354.339 710.873V760.279L398.404 735.565Z" fill="#1D1D1D"/>
<path d="M354.339 820.368L303.597 790.658V731.237L354.339 701.526L405.08 731.237V790.658L354.339 820.368ZM304.687 790.017L354.339 819.086L403.99 790.017V731.878L354.339 702.808L304.687 731.878V790.017Z" fill="#1D1D1D"/>
<path d="M506.123 731.021L456.684 702.464L455.586 701.827L454.488 702.464L405.027 731.021L404.478 731.328V790.307L405.027 790.615L454.488 819.172L455.586 819.808L456.684 819.172L506.123 790.615L506.672 790.307V731.328L506.123 731.021ZM455.586 818.535L405.576 789.693V731.964L455.586 703.1L505.574 731.964V789.693L455.586 818.535Z" fill="#1D1D1D"/>
<path d="M498.944 735.783V785.851L455.586 810.874L412.228 785.851L455.586 760.828L498.944 735.783Z" fill="#1D1D1D"/>
<path d="M557.305 760.958L600.034 785.65V736.244L557.305 760.958Z" fill="#1D1D1D"/>
<path d="M607.218 731.021L557.779 702.464L556.681 701.827L555.583 702.464L506.122 731.021L505.573 731.328V790.307L506.122 790.615L555.583 819.172L556.681 819.808L557.779 819.172L607.218 790.615L607.767 790.307V731.328L607.218 731.021ZM556.681 818.535L506.671 789.693V731.964L556.681 703.1L606.669 731.964V789.693L556.681 818.535Z" fill="#1D1D1D"/>
<path d="M556.681 710.761V760.829L513.323 785.851V735.784L556.681 710.761Z" fill="#1D1D1D"/>
<path d="M657.777 703.1L656.679 702.464L607.218 731.021L607.767 731.328V731.964L657.777 703.1ZM708.314 731.021L658.875 702.464L657.777 701.827L656.679 702.464L607.218 731.021L606.669 731.328V790.307L607.218 790.615L656.679 819.172L657.777 819.808L658.875 819.172L708.314 790.615L708.863 790.307V731.328L708.314 731.021ZM657.777 818.535L607.767 789.693V731.964L657.777 703.1L707.765 731.964V789.693L657.777 818.535ZM657.777 703.1L656.679 702.464L607.218 731.021L607.767 731.328V731.964L657.777 703.1Z" fill="#1D1D1D"/>
<path d="M701.135 735.784V785.851L657.777 760.829V710.761L701.135 735.784Z" fill="#1D1D1D"/>
<path d="M657.777 760.828V810.874L614.419 785.851V735.783L657.777 760.828Z" fill="#1D1D1D"/>
<path d="M758.873 703.1L757.775 702.464L708.314 731.021L708.863 731.328V731.964L758.873 703.1V703.1ZM809.432 731.021L759.97 702.464L758.873 701.827L757.775 702.464L708.314 731.021L707.765 731.328V790.307L708.314 790.615L757.775 819.172L758.873 819.808L759.97 819.172L809.432 790.615L809.98 790.307V731.328L809.432 731.021ZM758.873 818.535L708.863 789.693V731.964L758.873 703.1L808.883 731.964V789.693L758.873 818.535Z" fill="#1D1D1D"/>
<path d="M802.231 735.784V785.851L758.873 760.829L715.515 785.851V735.784L758.873 710.761L802.231 735.784Z" fill="#1D1D1D"/>
<path d="M816.354 785.65L860.419 811.021V760.279L816.354 785.65Z" fill="#1D1D1D"/>
<path d="M859.968 703.1L858.87 702.464L809.431 731.021L809.98 731.328V731.964L859.968 703.1ZM910.527 731.021L861.066 702.464L859.968 701.827L858.87 702.464L809.431 731.021L808.882 731.328V790.307L809.431 790.615L858.87 819.172L859.968 819.808L861.066 819.172L910.527 790.615L911.076 790.307V731.328L910.527 731.021ZM859.968 818.535L809.98 789.693V731.964L859.968 703.1L909.978 731.964V789.693L859.968 818.535Z" fill="#1D1D1D"/>
<path d="M903.326 735.784V785.851L859.968 760.829L816.61 735.784L859.968 710.761L903.326 735.784Z" fill="#1D1D1D"/>
<path d="M961.064 703.1L959.966 702.464L910.527 731.021L911.076 731.328V731.964L961.064 703.1ZM1011.62 731.021L962.162 702.464L961.064 701.827L959.966 702.464L910.527 731.021L909.978 731.328V790.307L910.527 790.615L959.966 819.172L961.064 819.808L962.162 819.172L1011.62 790.615L1012.17 790.307V731.328L1011.62 731.021ZM961.064 818.535L911.076 789.693V731.964L961.064 703.1L1011.07 731.964V789.693L961.064 818.535Z" fill="#1D1D1D"/>
<path d="M1004.42 735.784V785.851L961.064 810.874L917.706 785.851V735.784L961.064 710.761V760.829L1004.42 735.784Z" fill="#1D1D1D"/>
<path d="M1019.32 785.65L1062.05 811.021V760.279L1019.32 785.65Z" fill="#1D1D1D"/>
<path d="M1062.16 703.1L1061.06 702.464L1011.62 731.021L1012.17 731.328V731.964L1062.16 703.1ZM1063.26 702.464L1062.16 701.827L1061.06 702.464L1011.62 731.021L1011.07 731.328V790.307L1011.62 790.615L1061.06 819.172L1062.16 819.808L1063.26 819.172L1113.27 790.307V731.328L1063.26 702.464ZM1112.17 789.693L1062.16 818.535L1012.17 789.693V731.964L1062.16 703.1L1112.17 731.964V789.693Z" fill="#1D1D1D"/>
<path d="M1105.52 735.784V785.851L1062.16 760.829L1018.8 735.784L1062.16 710.761L1105.52 735.784Z" fill="#1D1D1D"/>
<path d="M101.191 673.6V672.963L51.1815 701.827L52.2792 702.464L101.74 673.907L101.191 673.6ZM101.74 614.291L52.2792 585.734L51.1815 585.098L50.0838 585.734L0.644661 614.291L0.0958252 614.598V673.6L0.644661 673.907L50.0838 702.464L51.1815 703.101L52.2792 702.464L101.74 673.907L102.289 673.6V614.598L101.74 614.291ZM51.1815 701.827L1.1935 672.963V615.235L51.1815 586.371L101.191 615.235V672.963L51.1815 701.827Z" fill="#1D1D1D"/>
<path d="M51.1817 594.031V694.167L7.82361 669.122V619.076L51.1817 594.031Z" fill="#1D1D1D"/>
<path d="M108.643 618.748L152.708 644.108V593.366L108.643 618.748Z" fill="#1D1D1D"/>
<path d="M202.287 673.6V672.963L152.277 701.827L153.375 702.464L202.836 673.907L202.287 673.6ZM202.836 614.291L153.375 585.734L152.277 585.098L151.18 585.734L101.74 614.291L101.192 614.598V673.6L101.74 673.907L151.18 702.464L152.277 703.101L153.375 702.464L202.836 673.907L203.385 673.6V614.598L202.836 614.291ZM152.277 701.827L102.289 672.963V615.235L152.277 586.371L202.287 615.235V672.963L152.277 701.827Z" fill="#1D1D1D"/>
<path d="M195.657 619.076V669.122L152.277 694.167V644.099L195.657 619.076Z" fill="#1D1D1D"/>
<path d="M303.382 673.6V672.963L253.394 701.827L254.492 702.464L303.931 673.907L303.382 673.6ZM303.931 614.291L254.492 585.734L253.394 585.098L252.297 585.734L202.836 614.291L202.287 614.598V673.6L202.836 673.907L252.297 702.464L253.394 703.101L254.492 702.464L303.931 673.907L304.48 673.6V614.598L303.931 614.291ZM253.394 701.827L203.384 672.963V615.235L253.394 586.371L303.382 615.235V672.963L253.394 701.827Z" fill="#1D1D1D"/>
<path d="M296.752 619.076V669.122L253.394 694.167L210.014 669.122V619.076L253.394 594.031V644.099L296.752 619.076Z" fill="#1D1D1D"/>
<path d="M311.609 668.801L354.339 693.515V644.108L311.609 668.801Z" fill="#1D1D1D"/>
<path d="M405.027 614.291L355.588 585.734L354.49 585.098L353.393 585.734L303.931 614.291L303.383 614.598V673.6L303.931 673.907L353.393 702.464L354.49 703.101L355.588 702.464L405.027 673.907L405.576 673.6V614.598L405.027 614.291ZM354.49 701.827L304.48 672.963V615.235L354.49 586.371L404.478 615.235V672.963L354.49 701.827Z" fill="#1D1D1D"/>
<path d="M397.848 619.076V669.122L354.49 644.099V594.031L397.848 619.076Z" fill="#1D1D1D"/>
<path d="M405.576 672.963V673.6L405.027 673.907L454.488 702.464L455.586 701.827L405.576 672.963ZM506.123 614.291L456.684 585.734L455.586 585.098L454.488 585.734L405.027 614.291L404.478 614.598V673.6L405.027 673.907L454.488 702.464L455.586 703.101L456.684 702.464L506.123 673.907L506.672 673.6V614.598L506.123 614.291ZM455.586 701.827L405.576 672.963V615.235L455.586 586.371L505.574 615.235V672.963L455.586 701.827ZM405.576 672.963V673.6L405.027 673.907L454.488 702.464L455.586 701.827L405.576 672.963Z" fill="#1D1D1D"/>
<path d="M455.586 644.099V694.167L412.228 669.122V619.076L455.586 644.099Z" fill="#1D1D1D"/>
<path d="M498.944 619.076V669.122L455.586 644.099V594.031L498.944 619.076Z" fill="#1D1D1D"/>
<path d="M513.24 668.801L557.305 693.515V644.108L513.24 668.801Z" fill="#1D1D1D"/>
<path d="M506.671 672.963V673.6L506.122 673.907L555.583 702.464L556.681 701.827L506.671 672.963V672.963ZM607.218 614.291L557.779 585.734L556.681 585.098L555.583 585.734L506.122 614.291L505.573 614.598V673.6L506.122 673.907L555.583 702.464L556.681 703.101L557.779 702.464L607.218 673.907L607.767 673.6V614.598L607.218 614.291ZM556.681 701.827L506.671 672.963V615.235L556.681 586.371L606.669 615.235V672.963L556.681 701.827Z" fill="#1D1D1D"/>
<path d="M600.039 619.076V669.122L556.681 644.099L513.323 619.076L556.681 594.031L600.039 619.076Z" fill="#1D1D1D"/>
<path d="M701.518 618.748L657.453 593.366V644.108L701.518 618.748Z" fill="#1D1D1D"/>
<path d="M708.314 614.291L658.875 585.734L657.777 585.098L656.679 585.734L607.218 614.291L606.669 614.598V673.6L607.218 673.907L656.679 702.464L657.777 703.101L658.875 702.464L708.314 673.907L708.863 673.6V614.598L708.314 614.291ZM657.777 701.827L607.767 672.963V615.235L657.777 586.371L707.765 615.235V672.963L657.777 701.827Z" fill="#1D1D1D"/>
<path d="M701.135 669.122L657.777 694.167L614.419 669.122V619.076L657.777 644.099L701.135 669.122Z" fill="#1D1D1D"/>
<path d="M758.873 586.371L757.775 585.734L708.314 614.291L708.863 614.598V615.235L758.873 586.371V586.371ZM809.432 614.291L759.97 585.734L758.873 585.098L757.775 585.734L708.314 614.291L707.765 614.598V673.6L708.314 673.907L757.775 702.464L758.873 703.101L759.97 702.464L809.432 673.907L809.98 673.6V614.598L809.432 614.291ZM758.873 701.827L708.863 672.963V615.235L758.873 586.371L808.883 615.235V672.963L758.873 701.827Z" fill="#1D1D1D"/>
<path d="M802.231 619.076V669.122L758.873 644.099L715.515 619.076L758.873 594.031L802.231 619.076Z" fill="#1D1D1D"/>
<path d="M859.968 586.371L858.87 585.734L809.431 614.291L809.98 614.598V615.235L859.968 586.371ZM910.527 614.291L861.066 585.734L859.968 585.098L858.87 585.734L809.431 614.291L808.882 614.598V673.6L809.431 673.907L858.87 702.464L859.968 703.101L861.066 702.464L910.527 673.907L911.076 673.6V614.598L910.527 614.291ZM859.968 701.827L809.98 672.963V615.235L859.968 586.371L909.978 615.235V672.963L859.968 701.827Z" fill="#1D1D1D"/>
<path d="M903.326 619.076V669.122L859.968 644.099V694.167L816.61 669.122V619.076L859.968 594.031L903.326 619.076Z" fill="#1D1D1D"/>
<path d="M917.837 668.801L960.567 693.515V644.108L917.837 668.801Z" fill="#1D1D1D"/>
<path d="M961.064 586.371L959.966 585.734L910.527 614.291L911.076 614.598V615.235L961.064 586.371ZM1011.62 614.291L962.162 585.734L961.064 585.098L959.966 585.734L910.527 614.291L909.978 614.598V673.6L910.527 673.907L959.966 702.464L961.064 703.101L962.162 702.464L1011.62 673.907L1012.17 673.6V614.598L1011.62 614.291ZM961.064 701.827L911.076 672.963V615.235L961.064 586.371L1011.07 615.235V672.963L961.064 701.827Z" fill="#1D1D1D"/>
<path d="M1004.42 619.076V669.122L961.064 644.099L917.706 619.076L961.064 594.031L1004.42 619.076Z" fill="#1D1D1D"/>
<path d="M1062.16 586.371L1061.06 585.734L1011.62 614.291L1012.17 614.598V615.235L1062.16 586.371ZM1063.26 585.734L1062.16 585.098L1061.06 585.734L1011.62 614.291L1011.07 614.598V673.6L1011.62 673.907L1061.06 702.464L1062.16 703.101L1063.26 702.464L1113.27 673.6V614.598L1063.26 585.734ZM1112.17 672.963L1062.16 701.827L1012.17 672.963V615.235L1062.16 586.371L1112.17 615.235V672.963Z" fill="#1D1D1D"/>
<path d="M1062.16 644.099L1105.52 669.122L1062.16 694.167L1018.8 669.122V619.076L1062.16 594.031L1105.52 619.076L1062.16 644.099Z" fill="#1D1D1D"/>
<path d="M101.74 497.582L52.2792 469.025L51.1815 468.389L50.0838 469.025L0.644661 497.582L0.0958252 497.889V556.869L0.644661 557.176L50.0838 585.733L51.1815 586.37L52.2792 585.733L101.74 557.176L102.289 556.869V497.889L101.74 497.582ZM51.1815 585.096L1.1935 556.254V498.526L51.1815 469.662L101.191 498.526V556.254L51.1815 585.096Z" fill="#1D1D1D"/>
<path d="M51.1817 527.39L94.5397 552.413L51.1817 577.436L7.82361 552.413V502.345L51.1817 477.322L94.5397 502.345L51.1817 527.39Z" fill="#1D1D1D"/>
<path d="M152.708 527.279L195.437 551.972V502.565L152.708 527.279Z" fill="#1D1D1D"/>
<path d="M202.836 497.582L153.375 469.025L152.277 468.389L151.18 469.025L101.74 497.582L101.192 497.889V556.869L101.74 557.176L151.18 585.733L152.277 586.37L153.375 585.733L202.836 557.176L203.385 556.869V497.889L202.836 497.582ZM152.277 585.096L102.289 556.254V498.526L152.277 469.662L202.287 498.526V556.254L152.277 585.096Z" fill="#1D1D1D"/>
<path d="M152.277 477.322V577.436L108.919 552.413V502.345L152.277 477.322Z" fill="#1D1D1D"/>
<path d="M296.92 502.554L252.855 477.194V527.936L296.92 502.554Z" fill="#1D1D1D"/>
<path d="M303.931 497.582L254.492 469.025L253.394 468.389L252.297 469.025L202.836 497.582L202.287 497.889V556.869L202.836 557.176L252.297 585.733L253.394 586.37L254.492 585.733L303.931 557.176L304.48 556.869V497.889L303.931 497.582ZM253.394 585.096L203.384 556.254V498.526L253.394 469.662L303.382 498.526V556.254L253.394 585.096Z" fill="#1D1D1D"/>
<path d="M296.752 552.413L253.394 577.435L210.014 552.413V502.345L253.394 527.39L296.752 552.413Z" fill="#1D1D1D"/>
<path d="M304.48 556.254V556.869L303.931 557.176L353.393 585.733L354.49 585.096L304.48 556.254V556.254ZM405.027 497.582L355.588 469.025L354.49 468.389L353.393 469.025L303.931 497.582L303.383 497.889V556.869L303.931 557.176L353.393 585.733L354.49 586.37L355.588 585.733L405.027 557.176L405.576 556.869V497.889L405.027 497.582ZM354.49 585.096L304.48 556.254V498.526L354.49 469.662L404.478 498.526V556.254L354.49 585.096Z" fill="#1D1D1D"/>
<path d="M397.848 502.345V552.413L354.49 577.436L311.11 552.413L354.49 527.39L311.11 502.345L354.49 477.322L397.848 502.345Z" fill="#1D1D1D"/>
<path d="M411.757 502.554L455.822 527.936V477.194L411.757 502.554Z" fill="#1D1D1D"/>
<path d="M405.576 556.254V556.869L405.027 557.176L454.488 585.733L455.586 585.096L405.576 556.254V556.254ZM506.123 497.582L456.684 469.025L455.586 468.389L454.488 469.025L405.027 497.582L404.478 497.889V556.869L405.027 557.176L454.488 585.733L455.586 586.37L456.684 585.733L506.123 557.176L506.672 556.869V497.889L506.123 497.582ZM455.586 585.096L405.576 556.254V498.526L455.586 469.662L505.574 498.526V556.254L455.586 585.096Z" fill="#1D1D1D"/>
<path d="M498.944 502.345V552.413L455.586 577.435V527.39L498.944 502.345Z" fill="#1D1D1D"/>
<path d="M506.671 556.254V556.869L506.122 557.176L555.583 585.733L556.681 585.096L506.671 556.254V556.254ZM607.218 497.582L557.779 469.025L556.681 468.389L555.583 469.025L506.122 497.582L505.573 497.889V556.869L506.122 557.176L555.583 585.733L556.681 586.37L557.779 585.733L607.218 557.176L607.767 556.869V497.889L607.218 497.582ZM556.681 585.096L506.671 556.254V498.526L556.681 469.662L606.669 498.526V556.254L556.681 585.096Z" fill="#1D1D1D"/>
<path d="M600.039 502.345V552.413L556.681 527.39L513.323 502.345L556.681 477.322L600.039 502.345Z" fill="#1D1D1D"/>
<path d="M657.453 527.279L701.518 551.972V502.565L657.453 527.279Z" fill="#1D1D1D"/>
<path d="M607.767 556.254V556.869L607.218 557.176L656.679 585.733L657.777 585.096L607.767 556.254V556.254ZM708.314 497.582L658.875 469.025L657.777 468.389L656.679 469.025L607.218 497.582L606.669 497.889V556.869L607.218 557.176L656.679 585.733L657.777 586.37L658.875 585.733L708.314 557.176L708.863 556.869V497.889L708.314 497.582V497.582ZM657.777 585.096L607.767 556.254V498.526L657.777 469.662L707.765 498.526V556.254L657.777 585.096V585.096Z" fill="#1D1D1D"/>
<path d="M657.777 527.39V577.435L614.419 552.413V502.345L657.777 527.39Z" fill="#1D1D1D"/>
<path d="M801.665 552.64L758.936 577.343V527.937L801.665 552.64Z" fill="#1D1D1D"/>
<path d="M809.432 497.582L759.97 469.025L758.873 468.389L757.775 469.025L708.314 497.582L707.765 497.889V556.869L708.314 557.176L757.775 585.733L758.873 586.37L759.97 585.733L809.432 557.176L809.98 556.869V497.889L809.432 497.582V497.582ZM758.873 585.096L708.863 556.254V498.526L758.873 469.662L808.883 498.526V556.254L758.873 585.096Z" fill="#1D1D1D"/>
<path d="M802.231 502.345L758.873 527.39L715.515 552.413V502.345L758.873 477.322L802.231 502.345Z" fill="#1D1D1D"/>
<path d="M859.968 469.662L858.87 469.025L809.431 497.582L809.98 497.889V498.526L859.968 469.662V469.662ZM910.527 497.582L861.066 469.025L859.968 468.389L858.87 469.025L809.431 497.582L808.882 497.889V556.869L809.431 557.176L858.87 585.733L859.968 586.37L861.066 585.733L910.527 557.176L911.076 556.869V497.889L910.527 497.582ZM859.968 585.096L809.98 556.254V498.526L859.968 469.662L909.978 498.526V556.254L859.968 585.096ZM859.968 469.662L858.87 469.025L809.431 497.582L809.98 497.889V498.526L859.968 469.662V469.662Z" fill="#1D1D1D"/>
<path d="M903.326 552.413L859.968 577.436L816.61 552.413L859.968 527.39L903.326 552.413Z" fill="#1D1D1D"/>
<path d="M903.326 502.345L859.968 527.39L816.61 502.345L859.968 477.322L903.326 502.345Z" fill="#1D1D1D"/>
<path d="M961.064 469.662L959.966 469.025L910.527 497.582L911.076 497.889V498.526L961.064 469.662V469.662ZM1011.62 497.582L962.162 469.025L961.064 468.389L959.966 469.025L910.527 497.582L909.978 497.889V556.869L910.527 557.176L959.966 585.733L961.064 586.37L962.162 585.733L1011.62 557.176L1012.17 556.869V497.889L1011.62 497.582ZM961.064 585.096L911.076 556.254V498.526L961.064 469.662L1011.07 498.526V556.254L961.064 585.096Z" fill="#1D1D1D"/>
<path d="M1004.42 502.345V552.413L961.064 527.39L917.706 552.413V502.345L961.064 477.322L1004.42 502.345Z" fill="#1D1D1D"/>
<path d="M1062.05 527.279L1106.11 551.972V502.565L1062.05 527.279Z" fill="#1D1D1D"/>
<path d="M1062.16 469.662L1061.06 469.025L1011.62 497.582L1012.17 497.889V498.526L1062.16 469.662V469.662ZM1063.26 469.025L1062.16 468.389L1061.06 469.025L1011.62 497.582L1011.07 497.889V556.869L1011.62 557.176L1061.06 585.733L1062.16 586.37L1063.26 585.733L1113.27 556.869V497.889L1063.26 469.025V469.025ZM1112.17 556.254L1062.16 585.096L1012.17 556.254V498.526L1062.16 469.662L1112.17 498.526V556.254Z" fill="#1D1D1D"/>
<path d="M1062.16 527.39V577.435L1018.8 552.413V502.345L1062.16 527.39Z" fill="#1D1D1D"/>
<path d="M910.527 29.1934L859.968 0L809.431 29.1934L808.882 29.5007V88.4802L809.431 88.7875L859.968 117.981L910.527 88.7875L911.076 88.4802V29.5007L910.527 29.1934V29.1934ZM809.98 87.8656V30.1373L859.968 1.2731L909.978 30.1373V87.8656L859.968 116.708L809.98 87.8656V87.8656Z" fill="#1D1D1D"/>
<path d="M903.326 84.0239L859.968 109.047L816.61 84.0239L859.968 59.001L903.326 84.0239Z" fill="#1D1D1D"/>
<path d="M903.326 33.9565L859.968 59.0014L816.61 33.9565L859.968 8.93359L903.326 33.9565Z" fill="#1D1D1D"/>
<path d="M1011.62 29.1934L961.064 0L910.527 29.1934L909.978 29.5007V88.4802L910.527 88.7875L961.064 117.981L1011.62 88.7875L1012.17 88.4802V29.5007L1011.62 29.1934V29.1934ZM911.076 87.8656V30.1373L961.064 1.2731L1011.07 30.1373V87.8656L961.064 116.708L911.076 87.8656Z" fill="#1D1D1D"/>
<path d="M1004.42 33.9565V84.0243L961.064 59.0014L917.706 84.0243V33.9565L961.064 8.93359L1004.42 33.9565Z" fill="#1D1D1D"/>
<path d="M1062.05 59.2559L1106.11 84.6156V33.874L1062.05 59.2559Z" fill="#1D1D1D"/>
<path d="M1062.16 0L1011.62 29.1934L1011.07 29.5007V88.4802L1011.62 88.7875L1062.16 117.981L1113.27 88.4802V29.5007L1062.16 0ZM1112.17 87.8656L1062.16 116.708L1012.17 87.8656V30.1373L1062.16 1.2731L1112.17 30.1373V87.8656Z" fill="#1D1D1D"/>
<path d="M1062.16 59.0009V109.047L1018.8 84.0239V33.9561L1062.16 59.0009Z" fill="#1D1D1D"/>
<path d="M910.527 380.853L861.066 352.296L859.968 351.659L858.87 352.296L809.431 380.853L808.882 381.16V440.161L809.431 440.469L858.87 469.025L859.968 469.662L861.066 469.025L910.527 440.469L911.076 440.161V381.16L910.527 380.853ZM859.968 468.389L809.98 439.525V381.796L859.968 352.932L909.978 381.796V439.525L859.968 468.389Z" fill="#1D1D1D"/>
<path d="M903.326 385.638V435.684L859.968 460.728L816.61 435.684V385.638L859.968 360.593V410.661L903.326 385.638Z" fill="#1D1D1D"/>
<path d="M961.064 352.932L959.966 352.296L910.527 380.853L911.076 381.16V381.796L961.064 352.932V352.932ZM1011.62 380.853L962.162 352.296L961.064 351.659L959.966 352.296L910.527 380.853L909.978 381.16V440.161L910.527 440.469L959.966 469.025L961.064 469.662L962.162 469.025L1011.62 440.469L1012.17 440.161V381.16L1011.62 380.853ZM961.064 468.389L911.076 439.525V381.796L961.064 352.932L1011.07 381.796V439.525L961.064 468.389ZM961.064 352.932L959.966 352.296L910.527 380.853L911.076 381.16V381.796L961.064 352.932V352.932Z" fill="#1D1D1D"/>
<path d="M1004.42 435.683L961.064 460.728L917.706 435.683L961.064 410.66L1004.42 435.683Z" fill="#1D1D1D"/>
<path d="M1004.42 385.638L961.064 410.661L917.706 385.638L961.064 360.593L1004.42 385.638Z" fill="#1D1D1D"/>
<path d="M1106.11 435.789L1062.05 461.171V410.43L1106.11 435.789Z" fill="#1D1D1D"/>
<path d="M1062.16 352.932L1061.06 352.296L1011.62 380.853L1012.17 381.16V381.796L1062.16 352.932V352.932ZM1063.26 352.296L1062.16 351.659L1061.06 352.296L1011.62 380.853L1011.07 381.16V440.161L1011.62 440.469L1061.06 469.025L1062.16 469.662L1063.26 469.025L1113.27 440.161V381.16L1063.26 352.296V352.296ZM1112.17 439.525L1062.16 468.389L1012.17 439.525V381.796L1062.16 352.932L1112.17 381.796V439.525Z" fill="#1D1D1D"/>
<path d="M1105.52 385.638L1062.16 410.661L1018.8 435.684V385.638L1062.16 360.593L1105.52 385.638Z" fill="#1D1D1D"/>
<path d="M816.354 318.962L860.419 343.665V294.259L816.354 318.962Z" fill="#1D1D1D"/>
<path d="M809.98 322.796V323.432L809.431 323.74L858.87 352.297L859.968 351.66L809.98 322.796V322.796ZM910.527 264.146L861.066 235.589L859.968 234.952L858.87 235.589L809.431 264.146L808.882 264.453V323.432L809.431 323.74L858.87 352.297L859.968 352.933L861.066 352.297L910.527 323.74L911.076 323.432V264.453L910.527 264.146V264.146ZM859.968 351.66L809.98 322.796V265.089L859.968 236.225L909.978 265.089V322.796L859.968 351.66Z" fill="#1D1D1D"/>
<path d="M903.326 268.909V318.977L859.968 293.954L816.61 268.909L859.968 243.886L903.326 268.909Z" fill="#1D1D1D"/>
<path d="M917.837 318.962L960.567 343.665V294.259L917.837 318.962Z" fill="#1D1D1D"/>
<path d="M1011.62 264.146L962.162 235.589L961.064 234.952L959.966 235.589L910.527 264.146L909.978 264.453V323.432L910.527 323.74L959.966 352.297L961.064 352.933L962.162 352.297L1011.62 323.74L1012.17 323.432V264.453L1011.62 264.146V264.146ZM961.064 351.66L911.076 322.796V265.089L961.064 236.225L1011.07 265.089V322.796L961.064 351.66Z" fill="#1D1D1D"/>
<path d="M1004.42 268.909L961.064 293.954L917.706 268.909L961.064 243.886L1004.42 268.909Z" fill="#1D1D1D"/>
<path d="M1019.32 318.961L1062.05 343.664V294.258L1019.32 318.961Z" fill="#1D1D1D"/>
<path d="M1019.32 268.876L1062.05 294.258V243.517L1019.32 268.876Z" fill="#1D1D1D"/>
<path d="M1062.05 353.012L1011.31 323.635V264.882L1062.05 235.505L1112.79 264.882V323.635L1062.05 353.012ZM1012.4 323.001L1062.05 351.744L1111.7 323.001V265.515L1062.05 236.773L1012.4 265.515V323.001Z" fill="#1D1D1D"/>
<path d="M101.74 29.1934L51.1814 0L0.6446 29.1934L0.0957642 29.5007V88.4802L0.6446 88.7875L51.1814 117.981L101.74 88.7875L102.289 88.4802V29.5007L101.74 29.1934V29.1934ZM1.19344 87.8656V30.1373L51.1814 1.2731L101.191 30.1373V87.8656L51.1814 116.708L1.19344 87.8656Z" fill="#1D1D1D"/>
<path d="M51.1816 59.0014L94.5397 84.0243L51.1816 109.047L7.82355 84.0243V33.9565L51.1816 8.93359L94.5397 33.9565L51.1816 59.0014Z" fill="#1D1D1D"/>
<path d="M152.708 59.2559L195.437 84.6156V33.874L152.708 59.2559Z" fill="#1D1D1D"/>
<path d="M202.836 29.1934L152.277 0L101.74 29.1934L101.192 29.5007V88.4802L101.74 88.7875L152.277 117.981L202.836 88.7875L203.385 88.4802V29.5007L202.836 29.1934V29.1934ZM102.289 87.8656V30.1373L152.277 1.2731L202.287 30.1373V87.8656L152.277 116.708L102.289 87.8656Z" fill="#1D1D1D"/>
<path d="M152.277 8.93359V109.047L108.919 84.0243V33.9565L152.277 8.93359Z" fill="#1D1D1D"/>
<path d="M296.92 33.8636L252.855 8.50391V59.2455L296.92 33.8636Z" fill="#1D1D1D"/>
<path d="M303.931 29.1934L253.394 0L202.836 29.1934L202.287 29.5007V88.4802L202.836 88.7875L253.394 117.981L303.931 88.7875L304.48 88.4802V29.5007L303.931 29.1934V29.1934ZM203.384 87.8656V30.1373L253.394 1.2731L303.382 30.1373V87.8656L253.394 116.708L203.384 87.8656V87.8656Z" fill="#1D1D1D"/>
<path d="M296.752 84.0239L253.394 109.047L210.014 84.0239V33.9561L253.394 59.0009L296.752 84.0239Z" fill="#1D1D1D"/>
<path d="M405.027 29.1934L354.49 0L303.931 29.1934L303.383 29.5007V88.4802L303.931 88.7875L354.49 117.981L405.027 88.7875L405.576 88.4802V29.5007L405.027 29.1934V29.1934ZM304.48 87.8656V30.1373L354.49 1.2731L404.478 30.1373V87.8656L354.49 116.708L304.48 87.8656Z" fill="#1D1D1D"/>
<path d="M397.848 33.9565V84.0243L354.49 109.047L311.11 84.0243L354.49 59.0014L311.11 33.9565L354.49 8.93359L397.848 33.9565Z" fill="#1D1D1D"/>
<path d="M411.757 33.8636L455.822 59.2455V8.50391L411.757 33.8636Z" fill="#1D1D1D"/>
<path d="M506.123 29.1934L455.586 0L405.027 29.1934L404.478 29.5007V88.4802L405.027 88.7875L455.586 117.981L506.123 88.7875L506.672 88.4802V29.5007L506.123 29.1934V29.1934ZM405.576 87.8656V30.1373L455.586 1.2731L505.574 30.1373V87.8656L455.586 116.708L405.576 87.8656Z" fill="#1D1D1D"/>
<path d="M498.944 33.9561V84.0239L455.586 109.047V59.0009L498.944 33.9561Z" fill="#1D1D1D"/>
<path d="M607.218 29.1934L556.681 0L506.122 29.1934L505.573 29.5007V88.4802L506.122 88.7875L556.681 117.981L607.218 88.7875L607.767 88.4802V29.5007L607.218 29.1934V29.1934ZM506.671 87.8656V30.1373L556.681 1.2731L606.669 30.1373V87.8656L556.681 116.708L506.671 87.8656V87.8656Z" fill="#1D1D1D"/>
<path d="M600.039 33.9565V84.0243L556.681 59.0014L513.323 33.9565L556.681 8.93359L600.039 33.9565Z" fill="#1D1D1D"/>
<path d="M657.453 59.2559L701.518 84.6156V33.874L657.453 59.2559Z" fill="#1D1D1D"/>
<path d="M708.314 29.1934L657.777 0L607.218 29.1934L606.669 29.5007V88.4802L607.218 88.7875L657.777 117.981L708.314 88.7875L708.862 88.4802V29.5007L708.314 29.1934V29.1934ZM607.767 87.8656V30.1373L657.777 1.2731L707.765 30.1373V87.8656L657.777 116.708L607.767 87.8656V87.8656Z" fill="#1D1D1D"/>
<path d="M657.777 59.0009V109.047L614.419 84.0239V33.9561L657.777 59.0009Z" fill="#1D1D1D"/>
<path d="M801.665 83.9482L758.936 108.651V59.2451L801.665 83.9482Z" fill="#1D1D1D"/>
<path d="M809.432 29.1934L758.873 0L708.314 29.1934L707.765 29.5007V88.4802L708.314 88.7875L758.873 117.981L809.432 88.7875L809.98 88.4802V29.5007L809.432 29.1934V29.1934ZM708.863 87.8656V30.1373L758.873 1.2731L808.883 30.1373V87.8656L758.873 116.708L708.863 87.8656V87.8656Z" fill="#1D1D1D"/>
<path d="M802.231 33.9565L758.873 59.0014L715.515 84.0243V33.9565L758.873 8.93359L802.231 33.9565Z" fill="#1D1D1D"/>
<path d="M93.9544 385.737L51.2247 361.023V410.43L93.9544 385.737Z" fill="#1D1D1D"/>
<path d="M101.191 440.161V439.525L51.1814 468.389L52.2791 469.025L101.74 440.469L101.191 440.161V440.161ZM101.74 380.853L52.2791 352.296L51.1814 351.659L50.0838 352.296L0.6446 380.853L0.0957642 381.16V440.161L0.6446 440.469L50.0838 469.025L51.1814 469.662L52.2791 469.025L101.74 440.469L102.289 440.161V381.16L101.74 380.853ZM51.1814 468.389L1.19344 439.525V381.796L51.1814 352.932L101.191 381.796V439.525L51.1814 468.389Z" fill="#1D1D1D"/>
<path d="M94.5397 435.684L51.1816 460.728L7.82355 435.684V385.638L51.1816 410.661L94.5397 435.684Z" fill="#1D1D1D"/>
<path d="M108.643 435.789L152.708 461.171V410.43L108.643 435.789Z" fill="#1D1D1D"/>
<path d="M202.836 380.853L153.375 352.296L152.277 351.659L151.18 352.296L101.74 380.853L101.192 381.16V440.161L101.74 440.469L151.18 469.025L152.277 469.662L153.375 469.025L202.836 440.469L203.385 440.161V381.16L202.836 380.853ZM152.277 468.389L102.289 439.525V381.796L152.277 352.932L202.287 381.796V439.525L152.277 468.389Z" fill="#1D1D1D"/>
<path d="M195.657 385.638V435.684L152.277 410.661L108.919 385.638L152.277 360.593L195.657 385.638Z" fill="#1D1D1D"/>
<path d="M203.384 439.525V440.161L202.836 440.469L252.297 469.025L253.394 468.389L203.384 439.525V439.525ZM303.931 380.853L254.492 352.296L253.394 351.659L252.297 352.296L202.836 380.853L202.287 381.16V440.161L202.836 440.469L252.297 469.025L253.394 469.662L254.492 469.025L303.931 440.469L304.48 440.161V381.16L303.931 380.853ZM253.394 468.389L203.384 439.525V381.796L253.394 352.932L303.382 381.796V439.525L253.394 468.389Z" fill="#1D1D1D"/>
<path d="M296.752 385.638V435.684L253.394 460.728L210.014 435.684V385.638L253.394 410.661V360.593L296.752 385.638Z" fill="#1D1D1D"/>
<path d="M398.404 435.789L354.339 461.171V410.43L398.404 435.789Z" fill="#1D1D1D"/>
<path d="M304.48 439.525V440.161L303.931 440.469L353.392 469.025L354.49 468.389L304.48 439.525V439.525ZM405.027 380.853L355.588 352.296L354.49 351.659L353.392 352.296L303.931 380.853L303.383 381.16V440.161L303.931 440.469L353.392 469.025L354.49 469.662L355.588 469.025L405.027 440.469L405.576 440.161V381.16L405.027 380.853ZM354.49 468.389L304.48 439.525V381.796L354.49 352.932L404.478 381.796V439.525L354.49 468.389Z" fill="#1D1D1D"/>
<path d="M397.848 385.638L354.49 410.661L311.11 435.684V385.638L354.49 360.593L397.848 385.638Z" fill="#1D1D1D"/>
<path d="M498.551 435.789L455.822 461.171V410.43L498.551 435.789Z" fill="#1D1D1D"/>
<path d="M405.576 439.525V440.161L405.027 440.469L454.488 469.025L455.586 468.389L405.576 439.525V439.525ZM506.123 380.853L456.684 352.296L455.586 351.659L454.488 352.296L405.027 380.853L404.478 381.16V440.161L405.027 440.469L454.488 469.025L455.586 469.662L456.684 469.025L506.123 440.469L506.672 440.161V381.16L506.123 380.853ZM455.586 468.389L405.576 439.525V381.796L455.586 352.932L505.574 381.796V439.525L455.586 468.389Z" fill="#1D1D1D"/>
<path d="M498.944 385.638L455.586 410.661L412.228 435.684V385.638L455.586 360.593L498.944 385.638Z" fill="#1D1D1D"/>
<path d="M506.671 439.525V440.161L506.122 440.469L555.583 469.025L556.681 468.389L506.671 439.525V439.525ZM607.218 380.853L557.779 352.296L556.681 351.659L555.583 352.296L506.122 380.853L505.573 381.16V440.161L506.122 440.469L555.583 469.025L556.681 469.662L557.779 469.025L607.218 440.469L607.767 440.161V381.16L607.218 380.853ZM556.681 468.389L506.671 439.525V381.796L556.681 352.932L606.669 381.796V439.525L556.681 468.389Z" fill="#1D1D1D"/>
<path d="M600.039 385.638V435.684L556.681 410.661V460.728L513.323 435.684V385.638L556.681 360.593L600.039 385.638Z" fill="#1D1D1D"/>
<path d="M607.767 439.525V440.161L607.218 440.469L656.679 469.025L657.777 468.389L607.767 439.525V439.525ZM708.314 380.853L658.874 352.296L657.777 351.659L656.679 352.296L607.218 380.853L606.669 381.16V440.161L607.218 440.469L656.679 469.025L657.777 469.662L658.874 469.025L708.314 440.469L708.862 440.161V381.16L708.314 380.853V380.853ZM657.777 468.389L607.767 439.525V381.796L657.777 352.932L707.765 381.796V439.525L657.777 468.389V468.389ZM607.767 439.525V440.161L607.218 440.469L656.679 469.025L657.777 468.389L607.767 439.525V439.525Z" fill="#1D1D1D"/>
<path d="M701.135 385.638V435.684L657.777 410.661V360.593L701.135 385.638Z" fill="#1D1D1D"/>
<path d="M657.777 410.661V460.728L614.419 435.684V385.638L657.777 410.661Z" fill="#1D1D1D"/>
<path d="M758.936 410.429L801.665 435.8V385.059L758.936 410.429Z" fill="#1D1D1D"/>
<path d="M708.863 439.525V440.161L708.314 440.469L757.775 469.025L758.873 468.389L708.863 439.525V439.525ZM809.432 380.853L759.97 352.296L758.873 351.659L757.775 352.296L708.314 380.853L707.765 381.16V440.161L708.314 440.469L757.775 469.025L758.873 469.662L759.97 469.025L809.432 440.469L809.98 440.161V381.16L809.432 380.853V380.853ZM758.873 468.389L708.863 439.525V381.796L758.873 352.932L808.883 381.796V439.525L758.873 468.389Z" fill="#1D1D1D"/>
<path d="M758.873 360.593V460.728L715.515 435.684V385.638L758.873 360.593Z" fill="#1D1D1D"/>
<path d="M51.2247 294.27L93.9544 319.629V268.888L51.2247 294.27Z" fill="#1D1D1D"/>
<path d="M101.74 264.146L52.2791 235.589L51.1814 234.952L50.0838 235.589L0.6446 264.146L0.0957642 264.453V323.432L0.6446 323.74L50.0838 352.297L51.1814 352.933L52.2791 352.297L101.74 323.74L102.289 323.432V264.453L101.74 264.146V264.146ZM51.1814 351.66L1.19344 322.796V265.089L51.1814 236.225L101.191 265.089V322.796L51.1814 351.66Z" fill="#1D1D1D"/>
<path d="M51.1816 243.886V293.954L7.82355 318.977V268.909L51.1816 243.886Z" fill="#1D1D1D"/>
<path d="M102.289 322.796V323.432L101.74 323.74L151.18 352.297L152.277 351.66L102.289 322.796V322.796ZM202.836 264.146L153.375 235.589L152.277 234.952L151.18 235.589L101.74 264.146L101.192 264.453V323.432L101.74 323.74L151.18 352.297L152.277 352.933L153.375 352.297L202.836 323.74L203.385 323.432V264.453L202.836 264.146V264.146ZM152.277 351.66L102.289 322.796V265.089L152.277 236.225L202.287 265.089V322.796L152.277 351.66Z" fill="#1D1D1D"/>
<path d="M195.657 268.909V318.976L152.277 343.999L108.919 318.976L152.277 293.954L108.919 268.909L152.277 243.886L195.657 268.909Z" fill="#1D1D1D"/>
<path d="M210.126 318.962L252.855 343.665V294.259L210.126 318.962Z" fill="#1D1D1D"/>
<path d="M203.384 322.796V323.432L202.836 323.74L252.297 352.297L253.394 351.66L203.384 322.796V322.796ZM303.931 264.146L254.492 235.589L253.394 234.952L252.297 235.589L202.836 264.146L202.287 264.453V323.432L202.836 323.74L252.297 352.297L253.394 352.933L254.492 352.297L303.931 323.74L304.48 323.432V264.453L303.931 264.146V264.146ZM253.394 351.66L203.384 322.796V265.089L253.394 236.225L303.382 265.089V322.796L253.394 351.66ZM203.384 322.796V323.432L202.836 323.74L252.297 352.297L253.394 351.66L203.384 322.796V322.796Z" fill="#1D1D1D"/>
<path d="M296.752 268.909V318.977L253.394 293.954L210.014 268.909L253.394 243.886L296.752 268.909Z" fill="#1D1D1D"/>
<path d="M304.48 322.796V323.432L303.931 323.74L353.392 352.297L354.49 351.66L304.48 322.796V322.796ZM405.027 264.146L355.588 235.589L354.49 234.952L353.392 235.589L303.931 264.146L303.383 264.453V323.432L303.931 323.74L353.392 352.297L354.49 352.933L355.588 352.297L405.027 323.74L405.576 323.432V264.453L405.027 264.146V264.146ZM354.49 351.66L304.48 322.796V265.089L354.49 236.225L404.478 265.089V322.796L354.49 351.66Z" fill="#1D1D1D"/>
<path d="M397.848 268.909V318.977L354.49 293.954L311.11 318.977V268.909L354.49 243.886L397.848 268.909Z" fill="#1D1D1D"/>
<path d="M405.576 322.796V323.432L405.027 323.74L454.488 352.297L455.586 351.66L405.576 322.796V322.796ZM506.123 264.146L456.684 235.589L455.586 234.952L454.488 235.589L405.027 264.146L404.478 264.453V323.432L405.027 323.74L454.488 352.297L455.586 352.933L456.684 352.297L506.123 323.74L506.672 323.432V264.453L506.123 264.146V264.146ZM455.586 351.66L405.576 322.796V265.089L455.586 236.225L505.574 265.089V322.796L455.586 351.66Z" fill="#1D1D1D"/>
<path d="M455.586 243.886V343.999L412.228 318.976V268.909L455.586 243.886Z" fill="#1D1D1D"/>
<path d="M513.24 318.962L557.305 343.665V294.259L513.24 318.962Z" fill="#1D1D1D"/>
<path d="M506.671 322.796V323.432L506.122 323.74L555.583 352.297L556.681 351.66L506.671 322.796V322.796ZM607.218 264.146L557.779 235.589L556.681 234.952L555.583 235.589L506.122 264.146L505.573 264.453V323.432L506.122 323.74L555.583 352.297L556.681 352.933L557.779 352.297L607.218 323.74L607.767 323.432V264.453L607.218 264.146V264.146ZM556.681 351.66L506.671 322.796V265.089L556.681 236.225L606.669 265.089V322.796L556.681 351.66Z" fill="#1D1D1D"/>
<path d="M600.039 268.909V318.977L556.681 293.954L513.323 268.909L556.681 243.886L600.039 268.909Z" fill="#1D1D1D"/>
<path d="M614.723 318.962L657.453 343.665V294.259L614.723 318.962Z" fill="#1D1D1D"/>
<path d="M607.767 322.796V323.432L607.218 323.74L656.679 352.297L657.777 351.66L607.767 322.796V322.796ZM708.314 264.146L658.874 235.589L657.777 234.952L656.679 235.589L607.218 264.146L606.669 264.453V323.432L607.218 323.74L656.679 352.297L657.777 352.933L658.874 352.297L708.314 323.74L708.862 323.432V264.453L708.314 264.146V264.146ZM657.777 351.66L607.767 322.796V265.089L657.777 236.225L707.765 265.089V322.796L657.777 351.66V351.66Z" fill="#1D1D1D"/>
<path d="M701.135 268.909V318.977L657.777 293.954L614.419 268.909L657.777 243.886L701.135 268.909Z" fill="#1D1D1D"/>
<path d="M708.863 322.796V323.432L708.314 323.74L757.775 352.297L758.873 351.66L708.863 322.796V322.796ZM809.432 264.146L759.97 235.589L758.873 234.952L757.775 235.589L708.314 264.146L707.765 264.453V323.432L708.314 323.74L757.775 352.297L758.873 352.933L759.97 352.297L809.432 323.74L809.98 323.432V264.453L809.432 264.146V264.146ZM758.873 351.66L708.863 322.796V265.089L758.873 236.225L808.883 265.089V322.796L758.873 351.66Z" fill="#1D1D1D"/>
<path d="M802.231 268.909L758.873 293.954V343.999L715.515 318.976V268.909L758.873 243.886L802.231 268.909Z" fill="#1D1D1D"/>
<path d="M51.2246 177.42L7.15961 202.123V152.717L51.2246 177.42Z" fill="#1D1D1D"/>
<path d="M1.19344 206.087V206.724L0.6446 207.031L50.0838 235.588L51.1814 234.951L1.19344 206.087ZM101.74 147.415L51.1814 118.222L0.6446 147.415L0.0957642 147.722V206.724L0.6446 207.031L50.0838 235.588L51.1814 236.225L52.2791 235.588L101.74 207.031L102.289 206.724V147.722L101.74 147.415ZM51.1814 234.951L1.19344 206.087V148.359L51.1814 119.495L101.191 148.359V206.087L51.1814 234.951Z" fill="#1D1D1D"/>
<path d="M94.5395 152.2V202.246L51.1815 177.223V127.155L94.5395 152.2Z" fill="#1D1D1D"/>
<path d="M102.289 206.087V206.724L101.74 207.031L151.18 235.588L152.277 234.951L102.289 206.087ZM202.836 147.415L152.277 118.222L101.74 147.415L101.192 147.722V206.724L101.74 207.031L151.18 235.588L152.277 236.225L153.375 235.588L202.836 207.031L203.385 206.724V147.722L202.836 147.415ZM152.277 234.951L102.289 206.087V148.359L152.277 119.495L202.287 148.359V206.087L152.277 234.951ZM102.289 206.087V206.724L101.74 207.031L151.18 235.588L152.277 234.951L102.289 206.087Z" fill="#1D1D1D"/>
<path d="M195.657 152.2V202.246L152.277 227.291V177.223L195.657 152.2Z" fill="#1D1D1D"/>
<path d="M152.277 127.155V177.223L108.919 202.246V152.2L152.277 127.155Z" fill="#1D1D1D"/>
<path d="M203.384 206.087V206.724L202.836 207.031L252.297 235.588L253.394 234.951L203.384 206.087ZM303.931 147.415L253.394 118.222L202.836 147.415L202.287 147.722V206.724L202.836 207.031L252.297 235.588L253.394 236.225L254.492 235.588L303.931 207.031L304.48 206.724V147.722L303.931 147.415ZM253.394 234.951L203.384 206.087V148.359L253.394 119.495L303.382 148.359V206.087L253.394 234.951ZM203.384 206.087V206.724L202.836 207.031L252.297 235.588L253.394 234.951L203.384 206.087Z" fill="#1D1D1D"/>
<path d="M296.752 202.246L253.394 227.29L210.014 202.246L253.394 177.223L296.752 202.246Z" fill="#1D1D1D"/>
<path d="M296.752 152.2L253.394 177.223L210.014 152.2L253.394 127.155L296.752 152.2Z" fill="#1D1D1D"/>
<path d="M304.48 206.087V206.724L303.931 207.031L353.392 235.588L354.49 234.951L304.48 206.087ZM405.027 147.415L354.49 118.222L303.931 147.415L303.383 147.722V206.724L303.931 207.031L353.392 235.588L354.49 236.225L355.588 235.588L405.027 207.031L405.576 206.724V147.722L405.027 147.415ZM354.49 234.951L304.48 206.087V148.359L354.49 119.495L404.478 148.359V206.087L354.49 234.951Z" fill="#1D1D1D"/>
<path d="M397.848 152.2V202.246L354.49 177.223L311.11 152.2L354.49 127.155L397.848 152.2Z" fill="#1D1D1D"/>
<path d="M405.576 206.087V206.724L405.027 207.031L454.488 235.588L455.586 234.951L405.576 206.087ZM506.123 147.415L455.586 118.222L405.027 147.415L404.478 147.722V206.724L405.027 207.031L454.488 235.588L455.586 236.225L456.684 235.588L506.123 207.031L506.672 206.724V147.722L506.123 147.415ZM455.586 234.951L405.576 206.087V148.359L455.586 119.495L505.574 148.359V206.087L455.586 234.951Z" fill="#1D1D1D"/>
<path d="M498.944 152.2V202.246L455.586 227.291V177.223L412.228 152.2L455.586 127.155L498.944 152.2Z" fill="#1D1D1D"/>
<path d="M557.305 177.419L513.24 202.122V152.716L557.305 177.419Z" fill="#1D1D1D"/>
<path d="M600.034 202.111L557.305 227.493V176.751L600.034 202.111Z" fill="#1D1D1D"/>
<path d="M600.034 152.059L557.305 127.345V176.751L600.034 152.059Z" fill="#1D1D1D"/>
<path d="M556.637 236.84L505.228 207.13V147.709L556.637 117.998L608.046 147.709V207.13L556.637 236.84V236.84ZM506.332 206.488L556.637 235.558L606.942 206.488V148.35L556.637 119.28L506.332 148.35V206.488Z" fill="#1D1D1D"/>
<path d="M607.767 206.087V206.724L607.218 207.031L656.679 235.588L657.777 234.951L607.767 206.087ZM708.314 147.415L657.777 118.222L607.218 147.415L606.669 147.722V206.724L607.218 207.031L656.679 235.588L657.777 236.225L658.874 235.588L708.314 207.031L708.862 206.724V147.722L708.314 147.415V147.415ZM657.777 234.951L607.767 206.087V148.359L657.777 119.495L707.765 148.359V206.087L657.777 234.951V234.951Z" fill="#1D1D1D"/>
<path d="M657.777 127.155V227.291L614.419 202.246V152.2L657.777 127.155Z" fill="#1D1D1D"/>
<path d="M708.863 206.087V206.724L708.314 207.031L757.775 235.588L758.873 234.951L708.863 206.087ZM809.432 147.415L758.873 118.222L708.314 147.415L707.765 147.722V206.724L708.314 207.031L757.775 235.588L758.873 236.225L759.97 235.588L809.432 207.031L809.98 206.724V147.722L809.432 147.415V147.415ZM758.873 234.951L708.863 206.087V148.359L758.873 119.495L808.883 148.359V206.087L758.873 234.951Z" fill="#1D1D1D"/>
<path d="M802.231 152.2V202.246L758.873 227.291L715.515 202.246L758.873 177.223V127.155L802.231 152.2Z" fill="#1D1D1D"/>
<path d="M903.149 202.112L860.419 227.493V176.752L903.149 202.112Z" fill="#1D1D1D"/>
<path d="M809.98 206.087V206.724L809.431 207.031L858.87 235.588L859.968 234.951L809.98 206.087ZM910.527 147.415L859.968 118.222L809.431 147.415L808.882 147.722V206.724L809.431 207.031L858.87 235.588L859.968 236.225L861.066 235.588L910.527 207.031L911.076 206.724V147.722L910.527 147.415ZM859.968 234.951L809.98 206.087V148.359L859.968 119.495L909.978 148.359V206.087L859.968 234.951Z" fill="#1D1D1D"/>
<path d="M903.326 152.2L859.968 177.223L816.61 152.2L859.968 127.155L903.326 152.2Z" fill="#1D1D1D"/>
<path d="M960.567 177.42L1004.63 202.123V152.717L960.567 177.42Z" fill="#1D1D1D"/>
<path d="M911.076 206.087V206.724L910.527 207.031L959.966 235.588L961.064 234.951L911.076 206.087ZM1011.62 147.415L961.064 118.222L910.527 147.415L909.978 147.722V206.724L910.527 207.031L959.966 235.588L961.064 236.225L962.162 235.588L1011.62 207.031L1012.17 206.724V147.722L1011.62 147.415V147.415ZM961.064 234.951L911.076 206.087V148.359L961.064 119.495L1011.07 148.359V206.087L961.064 234.951Z" fill="#1D1D1D"/>
<path d="M961.064 127.155V177.223L917.706 202.246V152.2L961.064 127.155Z" fill="#1D1D1D"/>
<path d="M1062.16 118.222L1011.62 147.415L1011.07 147.722V206.724L1011.62 207.031L1061.06 235.588L1062.16 236.225L1063.26 235.588L1113.27 206.724V147.722L1062.16 118.222ZM1112.17 206.087L1062.16 234.951L1012.17 206.087V148.359L1062.16 119.495L1112.17 148.359V206.087Z" fill="#1D1D1D"/>
<path d="M1105.52 152.2V202.246L1062.16 227.291L1018.8 202.246V152.2L1062.16 177.223L1105.52 152.2Z" fill="#1D1D1D"/>
<path d="M1213.6 614.107L1164.14 585.55L1163.05 584.913L1161.95 585.55L1111.96 614.414V673.415L1163.05 702.894L1213.6 673.723L1214.15 673.415V614.414L1213.6 614.107ZM1113.06 672.779V615.05L1163.05 586.186L1213.06 615.05V672.779L1163.05 701.621L1113.06 672.779V672.779Z" fill="#1D1D1D"/>
<path d="M1163.05 643.915V693.961L1119.69 668.938V618.87L1163.05 643.915Z" fill="#1D1D1D"/>
<path d="M1206.4 618.87V668.937L1163.05 643.914V593.847L1206.4 618.87Z" fill="#1D1D1D"/>
<path d="M1265.24 585.55L1264.14 586.186L1314.15 615.05V614.414L1314.7 614.107L1265.24 585.55ZM1314.7 614.107L1265.24 585.55L1264.14 584.913L1263.04 585.55L1213.6 614.107L1213.05 614.414V673.415L1213.6 673.723L1264.14 702.894L1314.7 673.723L1315.25 673.415V614.414L1314.7 614.107ZM1214.15 672.779V615.05L1264.14 586.186L1314.15 615.05V672.779L1264.14 701.621L1214.15 672.779Z" fill="#1D1D1D"/>
<path d="M1307.5 618.87V668.937L1264.14 693.96L1220.78 668.937V618.87L1264.14 643.914V593.847L1307.5 618.87Z" fill="#1D1D1D"/>
<path d="M1163.53 527.269L1119.47 551.973V502.566L1163.53 527.269Z" fill="#1D1D1D"/>
<path d="M1213.06 556.684V556.048L1163.05 584.912L1164.14 585.549L1213.6 556.992L1213.06 556.684ZM1213.6 497.376L1164.12 468.819L1163.05 468.204L1161.97 468.819L1111.96 497.683V556.684L1161.95 585.549L1163.05 586.185L1164.14 585.549L1213.6 556.992L1214.15 556.684V497.683L1213.6 497.376ZM1163.05 584.912L1113.06 556.048V498.319L1163.05 469.455L1213.06 498.319V556.048L1163.05 584.912Z" fill="#1D1D1D"/>
<path d="M1206.4 502.16V552.228L1163.05 577.251V477.115L1206.4 502.16Z" fill="#1D1D1D"/>
<path d="M1314.7 497.376L1265.22 468.819L1264.14 468.204L1263.06 468.819L1213.6 497.376L1213.05 497.683V556.684L1213.6 556.992L1263.04 585.549L1264.14 586.185L1265.24 585.549L1314.7 556.992L1315.25 556.684V497.683L1314.7 497.376V497.376ZM1264.14 584.912L1214.15 556.048V498.319L1264.14 469.455L1314.15 498.319V556.048L1264.14 584.912Z" fill="#1D1D1D"/>
<path d="M1264.14 477.115V577.251L1220.78 552.228V502.16L1264.14 477.115Z" fill="#1D1D1D"/>
<path d="M1163.53 410.442L1206.26 435.801V385.06L1163.53 410.442Z" fill="#1D1D1D"/>
<path d="M1213.06 439.955V439.34L1163.05 468.204L1164.12 468.819L1213.6 440.262L1213.06 439.955ZM1213.6 380.668L1164.14 352.111L1163.05 351.475L1161.95 352.111L1111.96 380.975V439.955L1161.97 468.819L1163.05 469.456L1164.12 468.819L1213.6 440.262L1214.15 439.955V380.975L1213.6 380.668ZM1163.05 468.204L1113.06 439.34V381.612L1163.05 352.748L1213.06 381.612V439.34L1163.05 468.204Z" fill="#1D1D1D"/>
<path d="M1163.05 410.476V460.521L1119.69 435.498V385.431L1163.05 410.476Z" fill="#1D1D1D"/>
<path d="M1314.15 439.955V439.34L1264.14 468.204L1265.22 468.819L1314.7 440.262L1314.15 439.955ZM1314.7 380.668L1265.24 352.111L1264.14 351.475L1263.04 352.111L1213.6 380.668L1213.05 380.975V439.955L1213.6 440.262L1263.06 468.819L1264.14 469.456L1265.22 468.819L1314.7 440.262L1315.25 439.955V380.975L1314.7 380.668ZM1264.14 468.204L1214.15 439.34V381.612L1264.14 352.748L1314.15 381.612V439.34L1264.14 468.204Z" fill="#1D1D1D"/>
<path d="M1264.14 410.476L1307.5 435.499L1264.14 460.522L1220.78 435.499V385.431L1264.14 360.408L1307.5 385.431L1264.14 410.476Z" fill="#1D1D1D"/>
<path d="M1213.06 323.247V322.611L1163.05 351.475L1164.14 352.111L1213.6 323.554L1213.06 323.247ZM1213.6 263.939L1164.14 235.382L1163.05 234.745L1161.95 235.382L1111.96 264.246V323.247L1161.95 352.111L1163.05 352.748L1164.14 352.111L1213.6 323.554L1214.15 323.247V264.246L1213.6 263.939ZM1163.05 351.475L1113.06 322.611V264.882L1163.05 236.018L1213.06 264.882V322.611L1163.05 351.475ZM1213.06 323.247V322.611L1163.05 351.475L1164.14 352.111L1213.6 323.554L1213.06 323.247Z" fill="#1D1D1D"/>
<path d="M1206.4 268.724V318.769L1163.05 343.814V293.747L1206.4 268.724Z" fill="#1D1D1D"/>
<path d="M1163.05 243.679V293.747L1119.69 318.769V268.724L1163.05 243.679Z" fill="#1D1D1D"/>
<path d="M1307.75 268.899L1263.68 243.518V294.259L1307.75 268.899Z" fill="#1D1D1D"/>
<path d="M1314.15 323.247V322.611L1264.14 351.475L1265.24 352.111L1314.7 323.554L1314.15 323.247ZM1314.7 263.939L1265.24 235.382L1264.14 234.745L1263.04 235.382L1213.6 263.939L1213.05 264.246V323.247L1213.6 323.554L1263.04 352.111L1264.14 352.748L1265.24 352.111L1314.7 323.554L1315.25 323.247V264.246L1314.7 263.939ZM1264.14 351.475L1214.15 322.611V264.882L1264.14 236.018L1314.15 264.882V322.611L1264.14 351.475Z" fill="#1D1D1D"/>
<path d="M1307.5 318.769L1264.14 343.814L1220.78 318.769V268.724L1264.14 293.747L1307.5 318.769Z" fill="#1D1D1D"/>
<path d="M1163.53 176.763L1206.26 202.122V151.381L1163.53 176.763Z" fill="#1D1D1D"/>
<path d="M1163.53 176.763L1119.47 202.122V151.381L1163.53 176.763Z" fill="#1D1D1D"/>
<path d="M1162.87 235.505L1111.46 206.128V147.375L1162.87 117.998L1214.27 147.375V206.128L1162.87 235.505ZM1112.56 205.516L1162.87 234.259L1213.17 205.516V148.031L1162.87 119.288L1112.56 148.031V205.516Z" fill="#1D1D1D"/>
<path d="M1263.68 176.763L1307.75 202.122V151.381L1263.68 176.763Z" fill="#1D1D1D"/>
<path d="M1314.15 206.516V205.902L1264.14 234.744L1265.24 235.38L1314.7 206.824L1314.15 206.516V206.516ZM1314.7 147.23L1265.24 118.673L1264.14 118.036L1263.04 118.673L1213.6 147.23L1213.05 147.537V206.516L1213.6 206.824L1263.04 235.38L1264.14 236.017L1265.24 235.38L1314.7 206.824L1315.25 206.516V147.537L1314.7 147.23ZM1264.14 234.744L1214.15 205.902V148.173L1264.14 119.309L1314.15 148.173V205.902L1264.14 234.744Z" fill="#1D1D1D"/>
<path d="M1264.14 126.97V177.038L1220.78 202.06V151.993L1264.14 126.97Z" fill="#1D1D1D"/>
<path d="M1163.53 60.5807L1206.26 85.9515V35.21L1163.53 60.5807Z" fill="#1D1D1D"/>
<path d="M1213.06 89.8088V89.1722L1163.05 118.036L1164.14 118.673L1213.6 90.1161L1213.06 89.8088ZM1213.6 30.5L1164.14 1.94321L1163.05 1.30664L1161.95 1.94321L1111.96 30.8074V89.8088L1161.95 118.673L1163.05 119.31L1164.14 118.673L1213.6 90.1161L1214.15 89.8088V30.8074L1213.6 30.5ZM1163.05 118.036L1113.06 89.1722V31.4439L1163.05 2.57971L1213.06 31.4439V89.1722L1163.05 118.036V118.036Z" fill="#1D1D1D"/>
<path d="M1163.05 10.2402V110.376L1119.69 85.331V35.2851L1163.05 10.2402Z" fill="#1D1D1D"/>
<path d="M1263.68 60.5807L1220.95 85.9515V35.21L1263.68 60.5807Z" fill="#1D1D1D"/>
<path d="M1314.7 30.5L1265.24 1.94321L1264.14 1.30664L1263.04 1.94321L1213.6 30.5L1213.05 30.8074V89.8088L1213.6 90.1161L1263.04 118.673L1264.14 119.31L1265.24 118.673L1314.7 90.1161L1315.25 89.8088V30.8074L1314.7 30.5ZM1264.14 118.036L1214.15 89.1722V31.4439L1264.14 2.57971L1314.15 31.4439V89.1722L1264.14 118.036Z" fill="#1D1D1D"/>
<path d="M1307.5 35.2851V85.331L1264.14 60.308V10.2402L1307.5 35.2851Z" fill="#1D1D1D"/>
<path d="M1163.53 760.947L1206.26 785.65V736.244L1163.53 760.947Z" fill="#1D1D1D"/>
<path d="M1163.05 703.169L1161.95 702.532L1112.51 731.089L1113.06 731.396V732.033L1163.05 703.169ZM1213.6 731.089L1164.14 702.532L1163.05 701.896L1161.95 702.532L1112.51 731.089L1111.96 731.396V790.398L1112.51 790.705L1161.95 819.262L1163.05 819.898L1164.14 819.262L1213.6 790.705L1214.15 790.398V731.396L1213.6 731.089ZM1163.05 818.625L1113.06 789.761V732.033L1163.05 703.169L1213.06 732.033V789.761L1163.05 818.625Z" fill="#1D1D1D"/>
<path d="M1163.05 710.829V760.897L1119.69 785.92V735.874L1163.05 710.829Z" fill="#1D1D1D"/>
<path d="M1264.14 703.169L1263.04 702.532L1213.6 731.089L1214.15 731.396V732.033L1264.14 703.169ZM1265.24 702.532L1264.14 701.896L1263.04 702.532L1213.6 731.089L1213.05 731.396V790.398L1213.6 790.705L1263.04 819.262L1264.14 819.898L1265.24 819.262L1315.25 790.398V731.396L1265.24 702.532ZM1314.15 789.761L1264.14 818.625L1214.15 789.761V732.033L1264.14 703.169L1314.15 732.033V789.761Z" fill="#1D1D1D"/>
<path d="M1307.5 735.874V785.92L1264.14 810.965L1220.78 785.92V735.874L1264.14 760.897L1307.5 735.874Z" fill="#1D1D1D"/>
</g>
<defs>
<clipPath id="clip0_188_763">
<rect width="1315" height="820" fill="white"/>
</clipPath>
</defs>
</svg>
