<svg width="1440" height="820" viewBox="0 0 1440 820" fill="none" xmlns="http://www.w3.org/2000/svg">
<g clip-path="url(#clip0_188_763)">
<path d="M74.0956 790.307V789.693L24.0857 818.535L25.1833 819.172L74.6444 790.615L74.0956 790.307ZM74.0956 790.307V789.693L24.0857 818.535L25.1833 819.172L74.6444 790.615L74.0956 790.307ZM74.6444 731.021L25.1833 702.464L24.0857 701.827L22.988 702.464L-27 731.328V790.307L22.988 819.172L24.0857 819.808L25.1833 819.172L74.6444 790.615L75.1933 790.307V731.328L74.6444 731.021ZM24.0857 818.535L-25.9023 789.693V731.964L24.0857 703.1L74.0956 731.964V789.693L24.0857 818.535ZM74.0956 790.307V789.693L24.0857 818.535L25.1833 819.172L74.6444 790.615L74.0956 790.307Z" fill="#1D1D1D"/>
<path d="M24.0856 760.828V810.874L-19.2725 785.851V735.783L24.0856 760.828Z" fill="#1D1D1D"/>
<path d="M67.4436 735.784V785.851L24.0856 760.829V710.761L67.4436 735.784Z" fill="#1D1D1D"/>
<path d="M175.74 731.021L126.279 702.464L125.181 701.827L124.084 702.464L74.6447 731.021L74.0958 731.328V790.307L74.6447 790.615L124.084 819.172L125.181 819.808L126.279 819.172L175.74 790.615L176.289 790.307V731.328L175.74 731.021ZM125.181 818.535L75.1935 789.693V731.964L125.181 703.1L175.191 731.964V789.693L125.181 818.535Z" fill="#1D1D1D"/>
<path d="M168.54 735.784V785.851L125.182 810.874L81.8236 785.851V735.784L125.182 760.829V710.761L168.54 735.784Z" fill="#1D1D1D"/>
<path d="M182.643 785.65L226.708 811.021V760.279L182.643 785.65Z" fill="#1D1D1D"/>
<path d="M276.836 731.021L227.375 702.464L226.277 701.827L225.18 702.464L175.74 731.021L175.192 731.328V790.307L175.74 790.615L225.18 819.172L226.277 819.808L227.375 819.172L276.836 790.615L277.385 790.307V731.328L276.836 731.021ZM226.277 818.535L176.289 789.693V731.964L226.277 703.1L276.287 731.964V789.693L226.277 818.535Z" fill="#1D1D1D"/>
<path d="M269.657 735.784V785.851L226.277 760.829L182.919 735.784L226.277 710.761L269.657 735.784Z" fill="#1D1D1D"/>
<path d="M284.126 785.65L326.855 811.021V760.279L284.126 785.65Z" fill="#1D1D1D"/>
<path d="M377.931 731.021L328.492 702.464L327.394 701.827L326.297 702.464L276.836 731.021L276.287 731.328V790.307L276.836 790.615L326.297 819.172L327.394 819.808L328.492 819.172L377.931 790.615L378.48 790.307V731.328L377.931 731.021ZM327.394 818.535L277.384 789.693V731.964L327.394 703.1L377.382 731.964V789.693L327.394 818.535Z" fill="#1D1D1D"/>
<path d="M370.752 735.784V785.851L327.394 760.829L284.014 735.784L327.394 710.761L370.752 735.784Z" fill="#1D1D1D"/>
<path d="M428.339 760.958L385.609 785.65V736.244L428.339 760.958Z" fill="#1D1D1D"/>
<path d="M472.404 785.65L428.339 811.021V760.279L472.404 785.65Z" fill="#1D1D1D"/>
<path d="M472.404 735.565L428.339 710.873V760.279L472.404 735.565Z" fill="#1D1D1D"/>
<path d="M428.339 820.368L377.597 790.658V731.237L428.339 701.526L479.08 731.237V790.658L428.339 820.368ZM378.687 790.017L428.339 819.086L477.99 790.017V731.878L428.339 702.808L378.687 731.878V790.017Z" fill="#1D1D1D"/>
<path d="M580.123 731.021L530.684 702.464L529.586 701.827L528.488 702.464L479.027 731.021L478.478 731.328V790.307L479.027 790.615L528.488 819.172L529.586 819.808L530.684 819.172L580.123 790.615L580.672 790.307V731.328L580.123 731.021ZM529.586 818.535L479.576 789.693V731.964L529.586 703.1L579.574 731.964V789.693L529.586 818.535Z" fill="#1D1D1D"/>
<path d="M572.944 735.783V785.851L529.586 810.874L486.228 785.851L529.586 760.828L572.944 735.783Z" fill="#1D1D1D"/>
<path d="M631.305 760.958L674.034 785.65V736.244L631.305 760.958Z" fill="#1D1D1D"/>
<path d="M681.218 731.021L631.779 702.464L630.681 701.827L629.583 702.464L580.122 731.021L579.573 731.328V790.307L580.122 790.615L629.583 819.172L630.681 819.808L631.779 819.172L681.218 790.615L681.767 790.307V731.328L681.218 731.021ZM630.681 818.535L580.671 789.693V731.964L630.681 703.1L680.669 731.964V789.693L630.681 818.535Z" fill="#1D1D1D"/>
<path d="M630.681 710.761V760.829L587.323 785.851V735.784L630.681 710.761Z" fill="#1D1D1D"/>
<path d="M731.777 703.1L730.679 702.464L681.218 731.021L681.767 731.328V731.964L731.777 703.1ZM782.314 731.021L732.875 702.464L731.777 701.827L730.679 702.464L681.218 731.021L680.669 731.328V790.307L681.218 790.615L730.679 819.172L731.777 819.808L732.875 819.172L782.314 790.615L782.863 790.307V731.328L782.314 731.021ZM731.777 818.535L681.767 789.693V731.964L731.777 703.1L781.765 731.964V789.693L731.777 818.535ZM731.777 703.1L730.679 702.464L681.218 731.021L681.767 731.328V731.964L731.777 703.1Z" fill="#1D1D1D"/>
<path d="M775.135 735.784V785.851L731.777 760.829V710.761L775.135 735.784Z" fill="#1D1D1D"/>
<path d="M731.777 760.828V810.874L688.419 785.851V735.783L731.777 760.828Z" fill="#1D1D1D"/>
<path d="M832.873 703.1L831.775 702.464L782.314 731.021L782.863 731.328V731.964L832.873 703.1ZM883.432 731.021L833.97 702.464L832.873 701.827L831.775 702.464L782.314 731.021L781.765 731.328V790.307L782.314 790.615L831.775 819.172L832.873 819.808L833.97 819.172L883.432 790.615L883.98 790.307V731.328L883.432 731.021ZM832.873 818.535L782.863 789.693V731.964L832.873 703.1L882.883 731.964V789.693L832.873 818.535Z" fill="#1D1D1D"/>
<path d="M876.231 735.784V785.851L832.873 760.829L789.515 785.851V735.784L832.873 710.761L876.231 735.784Z" fill="#1D1D1D"/>
<path d="M890.354 785.65L934.419 811.021V760.279L890.354 785.65Z" fill="#1D1D1D"/>
<path d="M933.968 703.1L932.87 702.464L883.431 731.021L883.98 731.328V731.964L933.968 703.1ZM984.527 731.021L935.066 702.464L933.968 701.827L932.87 702.464L883.431 731.021L882.882 731.328V790.307L883.431 790.615L932.87 819.172L933.968 819.808L935.066 819.172L984.527 790.615L985.076 790.307V731.328L984.527 731.021ZM933.968 818.535L883.98 789.693V731.964L933.968 703.1L983.978 731.964V789.693L933.968 818.535Z" fill="#1D1D1D"/>
<path d="M977.326 735.784V785.851L933.968 760.829L890.61 735.784L933.968 710.761L977.326 735.784Z" fill="#1D1D1D"/>
<path d="M1035.06 703.1L1033.97 702.464L984.527 731.021L985.076 731.328V731.964L1035.06 703.1ZM1085.62 731.021L1036.16 702.464L1035.06 701.827L1033.97 702.464L984.527 731.021L983.978 731.328V790.307L984.527 790.615L1033.97 819.172L1035.06 819.808L1036.16 819.172L1085.62 790.615L1086.17 790.307V731.328L1085.62 731.021ZM1035.06 818.535L985.076 789.693V731.964L1035.06 703.1L1085.07 731.964V789.693L1035.06 818.535Z" fill="#1D1D1D"/>
<path d="M1078.42 735.784V785.851L1035.06 810.874L991.706 785.851V735.784L1035.06 710.761V760.829L1078.42 735.784Z" fill="#1D1D1D"/>
<path d="M1093.32 785.65L1136.05 811.021V760.279L1093.32 785.65Z" fill="#1D1D1D"/>
<path d="M1136.16 703.1L1135.06 702.464L1085.62 731.021L1086.17 731.328V731.964L1136.16 703.1ZM1137.26 702.464L1136.16 701.827L1135.06 702.464L1085.62 731.021L1085.07 731.328V790.307L1085.62 790.615L1135.06 819.172L1136.16 819.808L1137.26 819.172L1187.27 790.307V731.328L1137.26 702.464ZM1186.17 789.693L1136.16 818.535L1086.17 789.693V731.964L1136.16 703.1L1186.17 731.964V789.693Z" fill="#1D1D1D"/>
<path d="M1179.52 735.784V785.851L1136.16 760.829L1092.8 735.784L1136.16 710.761L1179.52 735.784Z" fill="#1D1D1D"/>
<path d="M23.7415 644.108L-18.9882 669.479V618.737L23.7415 644.108Z" fill="#1D1D1D"/>
<path d="M74.0956 673.6V672.963L24.0857 701.827L25.1833 702.464L74.6444 673.907L74.0956 673.6ZM74.6444 614.291L25.1833 585.734L24.0857 585.098L22.988 585.734L-27 614.598V673.6L22.988 702.464L24.0857 703.101L25.1833 702.464L74.6444 673.907L75.1933 673.6V614.598L74.6444 614.291ZM24.0857 701.827L-25.9023 672.963V615.235L24.0857 586.371L74.0956 615.235V672.963L24.0857 701.827Z" fill="#1D1D1D"/>
<path d="M67.4436 619.076V669.122L24.0856 694.167V594.031L67.4436 619.076Z" fill="#1D1D1D"/>
<path d="M175.191 673.6V672.963L125.181 701.827L126.279 702.464L175.74 673.907L175.191 673.6ZM175.74 614.291L126.279 585.734L125.181 585.098L124.084 585.734L74.6447 614.291L74.0958 614.598V673.6L74.6447 673.907L124.084 702.464L125.181 703.101L126.279 702.464L175.74 673.907L176.289 673.6V614.598L175.74 614.291ZM125.181 701.827L75.1935 672.963V615.235L125.181 586.371L175.191 615.235V672.963L125.181 701.827Z" fill="#1D1D1D"/>
<path d="M125.182 594.031V694.167L81.8236 669.122V619.076L125.182 594.031Z" fill="#1D1D1D"/>
<path d="M182.643 618.748L226.708 644.108V593.366L182.643 618.748Z" fill="#1D1D1D"/>
<path d="M276.287 673.6V672.963L226.277 701.827L227.375 702.464L276.836 673.907L276.287 673.6ZM276.836 614.291L227.375 585.734L226.277 585.098L225.18 585.734L175.74 614.291L175.192 614.598V673.6L175.74 673.907L225.18 702.464L226.277 703.101L227.375 702.464L276.836 673.907L277.385 673.6V614.598L276.836 614.291ZM226.277 701.827L176.289 672.963V615.235L226.277 586.371L276.287 615.235V672.963L226.277 701.827Z" fill="#1D1D1D"/>
<path d="M269.657 619.076V669.122L226.277 694.167V644.099L269.657 619.076Z" fill="#1D1D1D"/>
<path d="M377.382 673.6V672.963L327.394 701.827L328.492 702.464L377.931 673.907L377.382 673.6ZM377.931 614.291L328.492 585.734L327.394 585.098L326.297 585.734L276.836 614.291L276.287 614.598V673.6L276.836 673.907L326.297 702.464L327.394 703.101L328.492 702.464L377.931 673.907L378.48 673.6V614.598L377.931 614.291ZM327.394 701.827L277.384 672.963V615.235L327.394 586.371L377.382 615.235V672.963L327.394 701.827Z" fill="#1D1D1D"/>
<path d="M370.752 619.076V669.122L327.394 694.167L284.014 669.122V619.076L327.394 594.031V644.099L370.752 619.076Z" fill="#1D1D1D"/>
<path d="M385.609 668.801L428.339 693.515V644.108L385.609 668.801Z" fill="#1D1D1D"/>
<path d="M479.027 614.291L429.588 585.734L428.49 585.098L427.393 585.734L377.931 614.291L377.383 614.598V673.6L377.931 673.907L427.393 702.464L428.49 703.101L429.588 702.464L479.027 673.907L479.576 673.6V614.598L479.027 614.291ZM428.49 701.827L378.48 672.963V615.235L428.49 586.371L478.478 615.235V672.963L428.49 701.827Z" fill="#1D1D1D"/>
<path d="M471.848 619.076V669.122L428.49 644.099V594.031L471.848 619.076Z" fill="#1D1D1D"/>
<path d="M479.576 672.963V673.6L479.027 673.907L528.488 702.464L529.586 701.827L479.576 672.963ZM580.123 614.291L530.684 585.734L529.586 585.098L528.488 585.734L479.027 614.291L478.478 614.598V673.6L479.027 673.907L528.488 702.464L529.586 703.101L530.684 702.464L580.123 673.907L580.672 673.6V614.598L580.123 614.291ZM529.586 701.827L479.576 672.963V615.235L529.586 586.371L579.574 615.235V672.963L529.586 701.827ZM479.576 672.963V673.6L479.027 673.907L528.488 702.464L529.586 701.827L479.576 672.963Z" fill="#1D1D1D"/>
<path d="M529.586 644.099V694.167L486.228 669.122V619.076L529.586 644.099Z" fill="#1D1D1D"/>
<path d="M572.944 619.076V669.122L529.586 644.099V594.031L572.944 619.076Z" fill="#1D1D1D"/>
<path d="M587.24 668.801L631.305 693.515V644.108L587.24 668.801Z" fill="#1D1D1D"/>
<path d="M580.671 672.963V673.6L580.122 673.907L629.583 702.464L630.681 701.827L580.671 672.963ZM681.218 614.291L631.779 585.734L630.681 585.098L629.583 585.734L580.122 614.291L579.573 614.598V673.6L580.122 673.907L629.583 702.464L630.681 703.101L631.779 702.464L681.218 673.907L681.767 673.6V614.598L681.218 614.291ZM630.681 701.827L580.671 672.963V615.235L630.681 586.371L680.669 615.235V672.963L630.681 701.827Z" fill="#1D1D1D"/>
<path d="M674.039 619.076V669.122L630.681 644.099L587.323 619.076L630.681 594.031L674.039 619.076Z" fill="#1D1D1D"/>
<path d="M775.518 618.748L731.453 593.366V644.108L775.518 618.748Z" fill="#1D1D1D"/>
<path d="M782.314 614.291L732.875 585.734L731.777 585.098L730.679 585.734L681.218 614.291L680.669 614.598V673.6L681.218 673.907L730.679 702.464L731.777 703.101L732.875 702.464L782.314 673.907L782.863 673.6V614.598L782.314 614.291ZM731.777 701.827L681.767 672.963V615.235L731.777 586.371L781.765 615.235V672.963L731.777 701.827Z" fill="#1D1D1D"/>
<path d="M775.135 669.122L731.777 694.167L688.419 669.122V619.076L731.777 644.099L775.135 669.122Z" fill="#1D1D1D"/>
<path d="M832.873 586.371L831.775 585.734L782.314 614.291L782.863 614.598V615.235L832.873 586.371ZM883.432 614.291L833.97 585.734L832.873 585.098L831.775 585.734L782.314 614.291L781.765 614.598V673.6L782.314 673.907L831.775 702.464L832.873 703.101L833.97 702.464L883.432 673.907L883.98 673.6V614.598L883.432 614.291ZM832.873 701.827L782.863 672.963V615.235L832.873 586.371L882.883 615.235V672.963L832.873 701.827Z" fill="#1D1D1D"/>
<path d="M876.231 619.076V669.122L832.873 644.099L789.515 619.076L832.873 594.031L876.231 619.076Z" fill="#1D1D1D"/>
<path d="M933.968 586.371L932.87 585.734L883.431 614.291L883.98 614.598V615.235L933.968 586.371ZM984.527 614.291L935.066 585.734L933.968 585.098L932.87 585.734L883.431 614.291L882.882 614.598V673.6L883.431 673.907L932.87 702.464L933.968 703.101L935.066 702.464L984.527 673.907L985.076 673.6V614.598L984.527 614.291ZM933.968 701.827L883.98 672.963V615.235L933.968 586.371L983.978 615.235V672.963L933.968 701.827Z" fill="#1D1D1D"/>
<path d="M977.326 619.076V669.122L933.968 644.099V694.167L890.61 669.122V619.076L933.968 594.031L977.326 619.076Z" fill="#1D1D1D"/>
<path d="M991.837 668.801L1034.57 693.515V644.108L991.837 668.801Z" fill="#1D1D1D"/>
<path d="M1035.06 586.371L1033.97 585.734L984.527 614.291L985.076 614.598V615.235L1035.06 586.371ZM1085.62 614.291L1036.16 585.734L1035.06 585.098L1033.97 585.734L984.527 614.291L983.978 614.598V673.6L984.527 673.907L1033.97 702.464L1035.06 703.101L1036.16 702.464L1085.62 673.907L1086.17 673.6V614.598L1085.62 614.291ZM1035.06 701.827L985.076 672.963V615.235L1035.06 586.371L1085.07 615.235V672.963L1035.06 701.827Z" fill="#1D1D1D"/>
<path d="M1078.42 619.076V669.122L1035.06 644.099L991.706 619.076L1035.06 594.031L1078.42 619.076Z" fill="#1D1D1D"/>
<path d="M1136.16 586.371L1135.06 585.734L1085.62 614.291L1086.17 614.598V615.235L1136.16 586.371ZM1137.26 585.734L1136.16 585.098L1135.06 585.734L1085.62 614.291L1085.07 614.598V673.6L1085.62 673.907L1135.06 702.464L1136.16 703.101L1137.26 702.464L1187.27 673.6V614.598L1137.26 585.734ZM1186.17 672.963L1136.16 701.827L1086.17 672.963V615.235L1136.16 586.371L1186.17 615.235V672.963Z" fill="#1D1D1D"/>
<path d="M1136.16 644.099L1179.52 669.122L1136.16 694.167L1092.8 669.122V619.076L1136.16 594.031L1179.52 619.076L1136.16 644.099Z" fill="#1D1D1D"/>
<path d="M23.7415 527.279L67.8065 551.972V502.565L23.7415 527.279Z" fill="#1D1D1D"/>
<path d="M23.7415 527.506V577.342L-18.9882 552.424V502.565L23.7415 527.506Z" fill="#1D1D1D"/>
<path d="M74.714 556.974V556.355L24.3982 585.407L25.5025 586.048L75.2662 557.283L74.714 556.974ZM75.2662 497.254L25.5025 468.489L24.3982 467.848L23.2938 468.489L-27 497.564V556.974L23.2938 586.048L24.3982 586.69L25.5025 586.048L75.2662 557.283L75.8184 556.974V497.564L75.2662 497.254ZM24.3982 585.407L-25.8956 556.355V498.205L24.3982 469.13L74.714 498.205V556.355L24.3982 585.407Z" fill="#1D1D1D"/>
<path d="M175.74 497.582L126.279 469.025L125.181 468.389L124.084 469.025L74.6447 497.582L74.0958 497.889V556.869L74.6447 557.176L124.084 585.733L125.181 586.37L126.279 585.733L175.74 557.176L176.289 556.869V497.889L175.74 497.582ZM125.181 585.096L75.1935 556.254V498.526L125.181 469.662L175.191 498.526V556.254L125.181 585.096Z" fill="#1D1D1D"/>
<path d="M125.182 527.39L168.54 552.413L125.182 577.436L81.8236 552.413V502.345L125.182 477.322L168.54 502.345L125.182 527.39Z" fill="#1D1D1D"/>
<path d="M226.708 527.279L269.437 551.972V502.565L226.708 527.279Z" fill="#1D1D1D"/>
<path d="M276.836 497.582L227.375 469.025L226.277 468.389L225.18 469.025L175.74 497.582L175.192 497.889V556.869L175.74 557.176L225.18 585.733L226.277 586.37L227.375 585.733L276.836 557.176L277.385 556.869V497.889L276.836 497.582ZM226.277 585.096L176.289 556.254V498.526L226.277 469.662L276.287 498.526V556.254L226.277 585.096Z" fill="#1D1D1D"/>
<path d="M226.277 477.322V577.436L182.919 552.413V502.345L226.277 477.322Z" fill="#1D1D1D"/>
<path d="M370.92 502.554L326.855 477.194V527.936L370.92 502.554Z" fill="#1D1D1D"/>
<path d="M377.931 497.582L328.492 469.025L327.394 468.389L326.297 469.025L276.836 497.582L276.287 497.889V556.869L276.836 557.176L326.297 585.733L327.394 586.37L328.492 585.733L377.931 557.176L378.48 556.869V497.889L377.931 497.582ZM327.394 585.096L277.384 556.254V498.526L327.394 469.662L377.382 498.526V556.254L327.394 585.096Z" fill="#1D1D1D"/>
<path d="M370.752 552.413L327.394 577.435L284.014 552.413V502.345L327.394 527.39L370.752 552.413Z" fill="#1D1D1D"/>
<path d="M378.48 556.254V556.869L377.931 557.176L427.393 585.733L428.49 585.096L378.48 556.254ZM479.027 497.582L429.588 469.025L428.49 468.389L427.393 469.025L377.931 497.582L377.383 497.889V556.869L377.931 557.176L427.393 585.733L428.49 586.37L429.588 585.733L479.027 557.176L479.576 556.869V497.889L479.027 497.582ZM428.49 585.096L378.48 556.254V498.526L428.49 469.662L478.478 498.526V556.254L428.49 585.096Z" fill="#1D1D1D"/>
<path d="M471.848 502.345V552.413L428.49 577.436L385.11 552.413L428.49 527.39L385.11 502.345L428.49 477.322L471.848 502.345Z" fill="#1D1D1D"/>
<path d="M485.757 502.554L529.822 527.936V477.194L485.757 502.554Z" fill="#1D1D1D"/>
<path d="M479.576 556.254V556.869L479.027 557.176L528.488 585.733L529.586 585.096L479.576 556.254ZM580.123 497.582L530.684 469.025L529.586 468.389L528.488 469.025L479.027 497.582L478.478 497.889V556.869L479.027 557.176L528.488 585.733L529.586 586.37L530.684 585.733L580.123 557.176L580.672 556.869V497.889L580.123 497.582ZM529.586 585.096L479.576 556.254V498.526L529.586 469.662L579.574 498.526V556.254L529.586 585.096Z" fill="#1D1D1D"/>
<path d="M572.944 502.345V552.413L529.586 577.435V527.39L572.944 502.345Z" fill="#1D1D1D"/>
<path d="M580.671 556.254V556.869L580.122 557.176L629.583 585.733L630.681 585.096L580.671 556.254ZM681.218 497.582L631.779 469.025L630.681 468.389L629.583 469.025L580.122 497.582L579.573 497.889V556.869L580.122 557.176L629.583 585.733L630.681 586.37L631.779 585.733L681.218 557.176L681.767 556.869V497.889L681.218 497.582ZM630.681 585.096L580.671 556.254V498.526L630.681 469.662L680.669 498.526V556.254L630.681 585.096Z" fill="#1D1D1D"/>
<path d="M674.039 502.345V552.413L630.681 527.39L587.323 502.345L630.681 477.322L674.039 502.345Z" fill="#1D1D1D"/>
<path d="M731.453 527.279L775.518 551.972V502.565L731.453 527.279Z" fill="#1D1D1D"/>
<path d="M681.767 556.254V556.869L681.218 557.176L730.679 585.733L731.777 585.096L681.767 556.254ZM782.314 497.582L732.875 469.025L731.777 468.389L730.679 469.025L681.218 497.582L680.669 497.889V556.869L681.218 557.176L730.679 585.733L731.777 586.37L732.875 585.733L782.314 557.176L782.863 556.869V497.889L782.314 497.582ZM731.777 585.096L681.767 556.254V498.526L731.777 469.662L781.765 498.526V556.254L731.777 585.096Z" fill="#1D1D1D"/>
<path d="M731.777 527.39V577.435L688.419 552.413V502.345L731.777 527.39Z" fill="#1D1D1D"/>
<path d="M875.665 552.64L832.936 577.343V527.937L875.665 552.64Z" fill="#1D1D1D"/>
<path d="M883.432 497.582L833.97 469.025L832.873 468.389L831.775 469.025L782.314 497.582L781.765 497.889V556.869L782.314 557.176L831.775 585.733L832.873 586.37L833.97 585.733L883.432 557.176L883.98 556.869V497.889L883.432 497.582ZM832.873 585.096L782.863 556.254V498.526L832.873 469.662L882.883 498.526V556.254L832.873 585.096Z" fill="#1D1D1D"/>
<path d="M876.231 502.345L832.873 527.39L789.515 552.413V502.345L832.873 477.322L876.231 502.345Z" fill="#1D1D1D"/>
<path d="M933.968 469.662L932.87 469.025L883.431 497.582L883.98 497.889V498.526L933.968 469.662ZM984.527 497.582L935.066 469.025L933.968 468.389L932.87 469.025L883.431 497.582L882.882 497.889V556.869L883.431 557.176L932.87 585.733L933.968 586.37L935.066 585.733L984.527 557.176L985.076 556.869V497.889L984.527 497.582ZM933.968 585.096L883.98 556.254V498.526L933.968 469.662L983.978 498.526V556.254L933.968 585.096ZM933.968 469.662L932.87 469.025L883.431 497.582L883.98 497.889V498.526L933.968 469.662Z" fill="#1D1D1D"/>
<path d="M977.326 552.413L933.968 577.436L890.61 552.413L933.968 527.39L977.326 552.413Z" fill="#1D1D1D"/>
<path d="M977.326 502.345L933.968 527.39L890.61 502.345L933.968 477.322L977.326 502.345Z" fill="#1D1D1D"/>
<path d="M1035.06 469.662L1033.97 469.025L984.527 497.582L985.076 497.889V498.526L1035.06 469.662ZM1085.62 497.582L1036.16 469.025L1035.06 468.389L1033.97 469.025L984.527 497.582L983.978 497.889V556.869L984.527 557.176L1033.97 585.733L1035.06 586.37L1036.16 585.733L1085.62 557.176L1086.17 556.869V497.889L1085.62 497.582ZM1035.06 585.096L985.076 556.254V498.526L1035.06 469.662L1085.07 498.526V556.254L1035.06 585.096Z" fill="#1D1D1D"/>
<path d="M1078.42 502.345V552.413L1035.06 527.39L991.706 552.413V502.345L1035.06 477.322L1078.42 502.345Z" fill="#1D1D1D"/>
<path d="M1136.05 527.279L1180.11 551.972V502.565L1136.05 527.279Z" fill="#1D1D1D"/>
<path d="M1136.16 469.662L1135.06 469.025L1085.62 497.582L1086.17 497.889V498.526L1136.16 469.662ZM1137.26 469.025L1136.16 468.389L1135.06 469.025L1085.62 497.582L1085.07 497.889V556.869L1085.62 557.176L1135.06 585.733L1136.16 586.37L1137.26 585.733L1187.27 556.869V497.889L1137.26 469.025ZM1186.17 556.254L1136.16 585.096L1086.17 556.254V498.526L1136.16 469.662L1186.17 498.526V556.254Z" fill="#1D1D1D"/>
<path d="M1136.16 527.39V577.435L1092.8 552.413V502.345L1136.16 527.39Z" fill="#1D1D1D"/>
<path d="M984.527 29.1934L933.968 0L883.431 29.1934L882.882 29.5007V88.4802L883.431 88.7875L933.968 117.981L984.527 88.7875L985.076 88.4802V29.5007L984.527 29.1934ZM883.98 87.8656V30.1373L933.968 1.2731L983.978 30.1373V87.8656L933.968 116.708L883.98 87.8656Z" fill="#1D1D1D"/>
<path d="M977.326 84.0239L933.968 109.047L890.61 84.0239L933.968 59.001L977.326 84.0239Z" fill="#1D1D1D"/>
<path d="M977.326 33.9565L933.968 59.0014L890.61 33.9565L933.968 8.93359L977.326 33.9565Z" fill="#1D1D1D"/>
<path d="M1085.62 29.1934L1035.06 0L984.527 29.1934L983.978 29.5007V88.4802L984.527 88.7875L1035.06 117.981L1085.62 88.7875L1086.17 88.4802V29.5007L1085.62 29.1934ZM985.076 87.8656V30.1373L1035.06 1.2731L1085.07 30.1373V87.8656L1035.06 116.708L985.076 87.8656Z" fill="#1D1D1D"/>
<path d="M1078.42 33.9565V84.0243L1035.06 59.0014L991.706 84.0243V33.9565L1035.06 8.93359L1078.42 33.9565Z" fill="#1D1D1D"/>
<path d="M1136.05 59.2559L1180.11 84.6156V33.874L1136.05 59.2559Z" fill="#1D1D1D"/>
<path d="M1136.16 0L1085.62 29.1934L1085.07 29.5007V88.4802L1085.62 88.7875L1136.16 117.981L1187.27 88.4802V29.5007L1136.16 0ZM1186.17 87.8656L1136.16 116.708L1086.17 87.8656V30.1373L1136.16 1.2731L1186.17 30.1373V87.8656Z" fill="#1D1D1D"/>
<path d="M1136.16 59.0009V109.047L1092.8 84.0239V33.9561L1136.16 59.0009Z" fill="#1D1D1D"/>
<path d="M984.527 380.853L935.066 352.296L933.968 351.659L932.87 352.296L883.431 380.853L882.882 381.16V440.161L883.431 440.469L932.87 469.025L933.968 469.662L935.066 469.025L984.527 440.469L985.076 440.161V381.16L984.527 380.853ZM933.968 468.389L883.98 439.525V381.796L933.968 352.932L983.978 381.796V439.525L933.968 468.389Z" fill="#1D1D1D"/>
<path d="M977.326 385.638V435.684L933.968 460.728L890.61 435.684V385.638L933.968 360.593V410.661L977.326 385.638Z" fill="#1D1D1D"/>
<path d="M1035.06 352.932L1033.97 352.296L984.527 380.853L985.076 381.16V381.796L1035.06 352.932ZM1085.62 380.853L1036.16 352.296L1035.06 351.659L1033.97 352.296L984.527 380.853L983.978 381.16V440.161L984.527 440.469L1033.97 469.025L1035.06 469.662L1036.16 469.025L1085.62 440.469L1086.17 440.161V381.16L1085.62 380.853ZM1035.06 468.389L985.076 439.525V381.796L1035.06 352.932L1085.07 381.796V439.525L1035.06 468.389ZM1035.06 352.932L1033.97 352.296L984.527 380.853L985.076 381.16V381.796L1035.06 352.932Z" fill="#1D1D1D"/>
<path d="M1078.42 435.683L1035.06 460.728L991.706 435.683L1035.06 410.66L1078.42 435.683Z" fill="#1D1D1D"/>
<path d="M1078.42 385.638L1035.06 410.661L991.706 385.638L1035.06 360.593L1078.42 385.638Z" fill="#1D1D1D"/>
<path d="M1180.11 435.789L1136.05 461.171V410.43L1180.11 435.789Z" fill="#1D1D1D"/>
<path d="M1136.16 352.932L1135.06 352.296L1085.62 380.853L1086.17 381.16V381.796L1136.16 352.932ZM1137.26 352.296L1136.16 351.659L1135.06 352.296L1085.62 380.853L1085.07 381.16V440.161L1085.62 440.469L1135.06 469.025L1136.16 469.662L1137.26 469.025L1187.27 440.161V381.16L1137.26 352.296ZM1186.17 439.525L1136.16 468.389L1086.17 439.525V381.796L1136.16 352.932L1186.17 381.796V439.525Z" fill="#1D1D1D"/>
<path d="M1179.52 385.638L1136.16 410.661L1092.8 435.684V385.638L1136.16 360.593L1179.52 385.638Z" fill="#1D1D1D"/>
<path d="M890.354 318.962L934.419 343.665V294.259L890.354 318.962Z" fill="#1D1D1D"/>
<path d="M883.98 322.796V323.432L883.431 323.74L932.87 352.297L933.968 351.66L883.98 322.796ZM984.527 264.146L935.066 235.589L933.968 234.952L932.87 235.589L883.431 264.146L882.882 264.453V323.432L883.431 323.74L932.87 352.297L933.968 352.933L935.066 352.297L984.527 323.74L985.076 323.432V264.453L984.527 264.146ZM933.968 351.66L883.98 322.796V265.089L933.968 236.225L983.978 265.089V322.796L933.968 351.66Z" fill="#1D1D1D"/>
<path d="M977.326 268.909V318.977L933.968 293.954L890.61 268.909L933.968 243.886L977.326 268.909Z" fill="#1D1D1D"/>
<path d="M991.837 318.962L1034.57 343.665V294.259L991.837 318.962Z" fill="#1D1D1D"/>
<path d="M1085.62 264.146L1036.16 235.589L1035.06 234.952L1033.97 235.589L984.527 264.146L983.978 264.453V323.432L984.527 323.74L1033.97 352.297L1035.06 352.933L1036.16 352.297L1085.62 323.74L1086.17 323.432V264.453L1085.62 264.146ZM1035.06 351.66L985.076 322.796V265.089L1035.06 236.225L1085.07 265.089V322.796L1035.06 351.66Z" fill="#1D1D1D"/>
<path d="M1078.42 268.909L1035.06 293.954L991.706 268.909L1035.06 243.886L1078.42 268.909Z" fill="#1D1D1D"/>
<path d="M1093.32 318.961L1136.05 343.664V294.258L1093.32 318.961Z" fill="#1D1D1D"/>
<path d="M1093.32 268.876L1136.05 294.258V243.517L1093.32 268.876Z" fill="#1D1D1D"/>
<path d="M1136.05 353.012L1085.31 323.635V264.882L1136.05 235.505L1186.79 264.882V323.635L1136.05 353.012ZM1086.4 323.001L1136.05 351.744L1185.7 323.001V265.515L1136.05 236.773L1086.4 265.515V323.001Z" fill="#1D1D1D"/>
<path d="M23.7415 59.2559L67.8065 84.6156V33.874L23.7415 59.2559Z" fill="#1D1D1D"/>
<path d="M74.6444 29.1934L24.0857 0L-27 29.5007V88.4802L24.0857 117.981L74.6444 88.7875L75.1933 88.4802V29.5007L74.6444 29.1934ZM-25.9023 87.8656V30.1373L24.0857 1.2731L74.0956 30.1373V87.8656L24.0857 116.708L-25.9023 87.8656Z" fill="#1D1D1D"/>
<path d="M24.0856 59.0009V109.047L-19.2725 84.0239V33.9561L24.0856 59.0009Z" fill="#1D1D1D"/>
<path d="M175.74 29.1934L125.181 0L74.6446 29.1934L74.0958 29.5007V88.4802L74.6446 88.7875L125.181 117.981L175.74 88.7875L176.289 88.4802V29.5007L175.74 29.1934ZM75.1934 87.8656V30.1373L125.181 1.2731L175.191 30.1373V87.8656L125.181 116.708L75.1934 87.8656Z" fill="#1D1D1D"/>
<path d="M125.182 59.0014L168.54 84.0243L125.182 109.047L81.8235 84.0243V33.9565L125.182 8.93359L168.54 33.9565L125.182 59.0014Z" fill="#1D1D1D"/>
<path d="M226.708 59.2559L269.437 84.6156V33.874L226.708 59.2559Z" fill="#1D1D1D"/>
<path d="M276.836 29.1934L226.277 0L175.74 29.1934L175.192 29.5007V88.4802L175.74 88.7875L226.277 117.981L276.836 88.7875L277.385 88.4802V29.5007L276.836 29.1934ZM176.289 87.8656V30.1373L226.277 1.2731L276.287 30.1373V87.8656L226.277 116.708L176.289 87.8656Z" fill="#1D1D1D"/>
<path d="M226.277 8.93359V109.047L182.919 84.0243V33.9565L226.277 8.93359Z" fill="#1D1D1D"/>
<path d="M370.92 33.8636L326.855 8.50391V59.2454L370.92 33.8636Z" fill="#1D1D1D"/>
<path d="M377.931 29.1934L327.394 0L276.836 29.1934L276.287 29.5007V88.4802L276.836 88.7875L327.394 117.981L377.931 88.7875L378.48 88.4802V29.5007L377.931 29.1934ZM277.384 87.8656V30.1373L327.394 1.2731L377.382 30.1373V87.8656L327.394 116.708L277.384 87.8656Z" fill="#1D1D1D"/>
<path d="M370.752 84.0239L327.394 109.047L284.014 84.0239V33.9561L327.394 59.0009L370.752 84.0239Z" fill="#1D1D1D"/>
<path d="M479.027 29.1934L428.49 0L377.931 29.1934L377.383 29.5007V88.4802L377.931 88.7875L428.49 117.981L479.027 88.7875L479.576 88.4802V29.5007L479.027 29.1934ZM378.48 87.8656V30.1373L428.49 1.2731L478.478 30.1373V87.8656L428.49 116.708L378.48 87.8656Z" fill="#1D1D1D"/>
<path d="M471.848 33.9565V84.0243L428.49 109.047L385.11 84.0243L428.49 59.0014L385.11 33.9565L428.49 8.93359L471.848 33.9565Z" fill="#1D1D1D"/>
<path d="M485.757 33.8636L529.822 59.2454V8.50391L485.757 33.8636Z" fill="#1D1D1D"/>
<path d="M580.123 29.1934L529.586 0L479.027 29.1934L478.478 29.5007V88.4802L479.027 88.7875L529.586 117.981L580.123 88.7875L580.672 88.4802V29.5007L580.123 29.1934ZM479.576 87.8656V30.1373L529.586 1.2731L579.574 30.1373V87.8656L529.586 116.708L479.576 87.8656Z" fill="#1D1D1D"/>
<path d="M572.944 33.9561V84.0239L529.586 109.047V59.0009L572.944 33.9561Z" fill="#1D1D1D"/>
<path d="M681.218 29.1934L630.681 0L580.122 29.1934L579.573 29.5007V88.4802L580.122 88.7875L630.681 117.981L681.218 88.7875L681.767 88.4802V29.5007L681.218 29.1934ZM580.671 87.8656V30.1373L630.681 1.2731L680.669 30.1373V87.8656L630.681 116.708L580.671 87.8656Z" fill="#1D1D1D"/>
<path d="M674.039 33.9565V84.0243L630.681 59.0014L587.323 33.9565L630.681 8.93359L674.039 33.9565Z" fill="#1D1D1D"/>
<path d="M731.453 59.2559L775.518 84.6156V33.874L731.453 59.2559Z" fill="#1D1D1D"/>
<path d="M782.314 29.1934L731.777 0L681.218 29.1934L680.669 29.5007V88.4802L681.218 88.7875L731.777 117.981L782.314 88.7875L782.862 88.4802V29.5007L782.314 29.1934ZM681.767 87.8656V30.1373L731.777 1.2731L781.765 30.1373V87.8656L731.777 116.708L681.767 87.8656Z" fill="#1D1D1D"/>
<path d="M731.777 59.0009V109.047L688.419 84.0239V33.9561L731.777 59.0009Z" fill="#1D1D1D"/>
<path d="M875.665 83.9482L832.936 108.651V59.2451L875.665 83.9482Z" fill="#1D1D1D"/>
<path d="M883.432 29.1934L832.873 0L782.314 29.1934L781.765 29.5007V88.4802L782.314 88.7875L832.873 117.981L883.432 88.7875L883.98 88.4802V29.5007L883.432 29.1934ZM782.863 87.8656V30.1373L832.873 1.2731L882.883 30.1373V87.8656L832.873 116.708L782.863 87.8656Z" fill="#1D1D1D"/>
<path d="M876.231 33.9565L832.873 59.0014L789.515 84.0243V33.9565L832.873 8.93359L876.231 33.9565Z" fill="#1D1D1D"/>
<path d="M74.0956 440.161V439.525L24.0856 468.389L25.1833 469.025L74.6444 440.469L74.0956 440.161ZM74.6444 380.853L25.1833 352.296L24.0856 351.659L22.9879 352.296L-27.0001 381.16V440.161L22.9879 469.025L24.0856 469.662L25.1833 469.025L74.6444 440.469L75.1932 440.161V381.16L74.6444 380.853ZM24.0856 468.389L-25.9024 439.525V381.796L24.0856 352.932L74.0956 381.796V439.525L24.0856 468.389ZM74.0956 440.161V439.525L24.0856 468.389L25.1833 469.025L74.6444 440.469L74.0956 440.161Z" fill="#1D1D1D"/>
<path d="M67.4436 385.638V435.684L24.0855 460.728V410.661L67.4436 385.638Z" fill="#1D1D1D"/>
<path d="M24.0855 360.593V410.661L-19.2726 435.684V385.638L24.0855 360.593Z" fill="#1D1D1D"/>
<path d="M167.954 385.737L125.225 361.023V410.43L167.954 385.737Z" fill="#1D1D1D"/>
<path d="M175.191 440.161V439.525L125.181 468.389L126.279 469.025L175.74 440.469L175.191 440.161ZM175.74 380.853L126.279 352.296L125.181 351.659L124.084 352.296L74.6446 380.853L74.0958 381.16V440.161L74.6446 440.469L124.084 469.025L125.181 469.662L126.279 469.025L175.74 440.469L176.289 440.161V381.16L175.74 380.853ZM125.181 468.389L75.1934 439.525V381.796L125.181 352.932L175.191 381.796V439.525L125.181 468.389Z" fill="#1D1D1D"/>
<path d="M168.54 435.684L125.182 460.728L81.8235 435.684V385.638L125.182 410.661L168.54 435.684Z" fill="#1D1D1D"/>
<path d="M182.643 435.789L226.708 461.171V410.43L182.643 435.789Z" fill="#1D1D1D"/>
<path d="M276.836 380.853L227.375 352.296L226.277 351.659L225.18 352.296L175.74 380.853L175.192 381.16V440.161L175.74 440.469L225.18 469.025L226.277 469.662L227.375 469.025L276.836 440.469L277.385 440.161V381.16L276.836 380.853ZM226.277 468.389L176.289 439.525V381.796L226.277 352.932L276.287 381.796V439.525L226.277 468.389Z" fill="#1D1D1D"/>
<path d="M269.657 385.638V435.684L226.277 410.661L182.919 385.638L226.277 360.593L269.657 385.638Z" fill="#1D1D1D"/>
<path d="M277.384 439.525V440.161L276.836 440.469L326.297 469.025L327.394 468.389L277.384 439.525ZM377.931 380.853L328.492 352.296L327.394 351.659L326.297 352.296L276.836 380.853L276.287 381.16V440.161L276.836 440.469L326.297 469.025L327.394 469.662L328.492 469.025L377.931 440.469L378.48 440.161V381.16L377.931 380.853ZM327.394 468.389L277.384 439.525V381.796L327.394 352.932L377.382 381.796V439.525L327.394 468.389Z" fill="#1D1D1D"/>
<path d="M370.752 385.638V435.684L327.394 460.728L284.014 435.684V385.638L327.394 410.661V360.593L370.752 385.638Z" fill="#1D1D1D"/>
<path d="M472.404 435.789L428.339 461.171V410.43L472.404 435.789Z" fill="#1D1D1D"/>
<path d="M378.48 439.525V440.161L377.931 440.469L427.393 469.025L428.49 468.389L378.48 439.525ZM479.027 380.853L429.588 352.296L428.49 351.659L427.393 352.296L377.931 380.853L377.383 381.16V440.161L377.931 440.469L427.393 469.025L428.49 469.662L429.588 469.025L479.027 440.469L479.576 440.161V381.16L479.027 380.853ZM428.49 468.389L378.48 439.525V381.796L428.49 352.932L478.478 381.796V439.525L428.49 468.389Z" fill="#1D1D1D"/>
<path d="M471.848 385.638L428.49 410.661L385.11 435.684V385.638L428.49 360.593L471.848 385.638Z" fill="#1D1D1D"/>
<path d="M572.551 435.789L529.822 461.171V410.43L572.551 435.789Z" fill="#1D1D1D"/>
<path d="M479.576 439.525V440.161L479.027 440.469L528.488 469.025L529.586 468.389L479.576 439.525ZM580.123 380.853L530.684 352.296L529.586 351.659L528.488 352.296L479.027 380.853L478.478 381.16V440.161L479.027 440.469L528.488 469.025L529.586 469.662L530.684 469.025L580.123 440.469L580.672 440.161V381.16L580.123 380.853ZM529.586 468.389L479.576 439.525V381.796L529.586 352.932L579.574 381.796V439.525L529.586 468.389Z" fill="#1D1D1D"/>
<path d="M572.944 385.638L529.586 410.661L486.228 435.684V385.638L529.586 360.593L572.944 385.638Z" fill="#1D1D1D"/>
<path d="M580.671 439.525V440.161L580.122 440.469L629.583 469.025L630.681 468.389L580.671 439.525ZM681.218 380.853L631.779 352.296L630.681 351.659L629.583 352.296L580.122 380.853L579.573 381.16V440.161L580.122 440.469L629.583 469.025L630.681 469.662L631.779 469.025L681.218 440.469L681.767 440.161V381.16L681.218 380.853ZM630.681 468.389L580.671 439.525V381.796L630.681 352.932L680.669 381.796V439.525L630.681 468.389Z" fill="#1D1D1D"/>
<path d="M674.039 385.638V435.684L630.681 410.661V460.728L587.323 435.684V385.638L630.681 360.593L674.039 385.638Z" fill="#1D1D1D"/>
<path d="M681.767 439.525V440.161L681.218 440.469L730.679 469.025L731.777 468.389L681.767 439.525ZM782.314 380.853L732.874 352.296L731.777 351.659L730.679 352.296L681.218 380.853L680.669 381.16V440.161L681.218 440.469L730.679 469.025L731.777 469.662L732.874 469.025L782.314 440.469L782.862 440.161V381.16L782.314 380.853ZM731.777 468.389L681.767 439.525V381.796L731.777 352.932L781.765 381.796V439.525L731.777 468.389ZM681.767 439.525V440.161L681.218 440.469L730.679 469.025L731.777 468.389L681.767 439.525Z" fill="#1D1D1D"/>
<path d="M775.135 385.638V435.684L731.777 410.661V360.593L775.135 385.638Z" fill="#1D1D1D"/>
<path d="M731.777 410.661V460.728L688.419 435.684V385.638L731.777 410.661Z" fill="#1D1D1D"/>
<path d="M832.936 410.429L875.665 435.8V385.059L832.936 410.429Z" fill="#1D1D1D"/>
<path d="M782.863 439.525V440.161L782.314 440.469L831.775 469.025L832.873 468.389L782.863 439.525ZM883.432 380.853L833.97 352.296L832.873 351.659L831.775 352.296L782.314 380.853L781.765 381.16V440.161L782.314 440.469L831.775 469.025L832.873 469.662L833.97 469.025L883.432 440.469L883.98 440.161V381.16L883.432 380.853ZM832.873 468.389L782.863 439.525V381.796L832.873 352.932L882.883 381.796V439.525L832.873 468.389Z" fill="#1D1D1D"/>
<path d="M832.873 360.593V460.728L789.515 435.684V385.638L832.873 360.593Z" fill="#1D1D1D"/>
<path d="M23.7415 294.27L67.8065 319.629V268.888L23.7415 294.27Z" fill="#1D1D1D"/>
<path d="M23.7414 294.27L-18.9883 319.629V268.888L23.7414 294.27Z" fill="#1D1D1D"/>
<path d="M24.4091 353.012L-27.0001 323.635V264.882L24.4091 235.505L75.8183 264.882V323.635L24.4091 353.012ZM-25.8959 323.001L24.4091 351.744L74.7142 323.001V265.515L24.4091 236.773L-25.8959 265.537V323.023V323.001Z" fill="#1D1D1D"/>
<path d="M125.225 294.27L167.954 319.629V268.888L125.225 294.27Z" fill="#1D1D1D"/>
<path d="M175.74 264.146L126.279 235.589L125.181 234.952L124.084 235.589L74.6446 264.146L74.0958 264.453V323.432L74.6446 323.74L124.084 352.297L125.181 352.933L126.279 352.297L175.74 323.74L176.289 323.432V264.453L175.74 264.146ZM125.181 351.66L75.1934 322.796V265.089L125.181 236.225L175.191 265.089V322.796L125.181 351.66Z" fill="#1D1D1D"/>
<path d="M125.182 243.886V293.954L81.8235 318.977V268.909L125.182 243.886Z" fill="#1D1D1D"/>
<path d="M176.289 322.796V323.432L175.74 323.74L225.18 352.297L226.277 351.66L176.289 322.796ZM276.836 264.146L227.375 235.589L226.277 234.952L225.18 235.589L175.74 264.146L175.192 264.453V323.432L175.74 323.74L225.18 352.297L226.277 352.933L227.375 352.297L276.836 323.74L277.385 323.432V264.453L276.836 264.146ZM226.277 351.66L176.289 322.796V265.089L226.277 236.225L276.287 265.089V322.796L226.277 351.66Z" fill="#1D1D1D"/>
<path d="M269.657 268.909V318.976L226.277 343.999L182.919 318.976L226.277 293.954L182.919 268.909L226.277 243.886L269.657 268.909Z" fill="#1D1D1D"/>
<path d="M284.126 318.962L326.855 343.665V294.259L284.126 318.962Z" fill="#1D1D1D"/>
<path d="M277.384 322.796V323.432L276.836 323.74L326.297 352.297L327.394 351.66L277.384 322.796ZM377.931 264.146L328.492 235.589L327.394 234.952L326.297 235.589L276.836 264.146L276.287 264.453V323.432L276.836 323.74L326.297 352.297L327.394 352.933L328.492 352.297L377.931 323.74L378.48 323.432V264.453L377.931 264.146ZM327.394 351.66L277.384 322.796V265.089L327.394 236.225L377.382 265.089V322.796L327.394 351.66ZM277.384 322.796V323.432L276.836 323.74L326.297 352.297L327.394 351.66L277.384 322.796Z" fill="#1D1D1D"/>
<path d="M370.752 268.909V318.977L327.394 293.954L284.014 268.909L327.394 243.886L370.752 268.909Z" fill="#1D1D1D"/>
<path d="M378.48 322.796V323.432L377.931 323.74L427.393 352.297L428.49 351.66L378.48 322.796ZM479.027 264.146L429.588 235.589L428.49 234.952L427.393 235.589L377.931 264.146L377.383 264.453V323.432L377.931 323.74L427.393 352.297L428.49 352.933L429.588 352.297L479.027 323.74L479.576 323.432V264.453L479.027 264.146ZM428.49 351.66L378.48 322.796V265.089L428.49 236.225L478.478 265.089V322.796L428.49 351.66Z" fill="#1D1D1D"/>
<path d="M471.848 268.909V318.977L428.49 293.954L385.11 318.977V268.909L428.49 243.886L471.848 268.909Z" fill="#1D1D1D"/>
<path d="M479.576 322.796V323.432L479.027 323.74L528.488 352.297L529.586 351.66L479.576 322.796ZM580.123 264.146L530.684 235.589L529.586 234.952L528.488 235.589L479.027 264.146L478.478 264.453V323.432L479.027 323.74L528.488 352.297L529.586 352.933L530.684 352.297L580.123 323.74L580.672 323.432V264.453L580.123 264.146ZM529.586 351.66L479.576 322.796V265.089L529.586 236.225L579.574 265.089V322.796L529.586 351.66Z" fill="#1D1D1D"/>
<path d="M529.586 243.886V343.999L486.228 318.976V268.909L529.586 243.886Z" fill="#1D1D1D"/>
<path d="M587.24 318.962L631.305 343.665V294.259L587.24 318.962Z" fill="#1D1D1D"/>
<path d="M580.671 322.796V323.432L580.122 323.74L629.583 352.297L630.681 351.66L580.671 322.796ZM681.218 264.146L631.779 235.589L630.681 234.952L629.583 235.589L580.122 264.146L579.573 264.453V323.432L580.122 323.74L629.583 352.297L630.681 352.933L631.779 352.297L681.218 323.74L681.767 323.432V264.453L681.218 264.146ZM630.681 351.66L580.671 322.796V265.089L630.681 236.225L680.669 265.089V322.796L630.681 351.66Z" fill="#1D1D1D"/>
<path d="M674.039 268.909V318.977L630.681 293.954L587.323 268.909L630.681 243.886L674.039 268.909Z" fill="#1D1D1D"/>
<path d="M688.723 318.962L731.453 343.665V294.259L688.723 318.962Z" fill="#1D1D1D"/>
<path d="M681.767 322.796V323.432L681.218 323.74L730.679 352.297L731.777 351.66L681.767 322.796ZM782.314 264.146L732.874 235.589L731.777 234.952L730.679 235.589L681.218 264.146L680.669 264.453V323.432L681.218 323.74L730.679 352.297L731.777 352.933L732.874 352.297L782.314 323.74L782.862 323.432V264.453L782.314 264.146ZM731.777 351.66L681.767 322.796V265.089L731.777 236.225L781.765 265.089V322.796L731.777 351.66Z" fill="#1D1D1D"/>
<path d="M775.135 268.909V318.977L731.777 293.954L688.419 268.909L731.777 243.886L775.135 268.909Z" fill="#1D1D1D"/>
<path d="M782.863 322.796V323.432L782.314 323.74L831.775 352.297L832.873 351.66L782.863 322.796ZM883.432 264.146L833.97 235.589L832.873 234.952L831.775 235.589L782.314 264.146L781.765 264.453V323.432L782.314 323.74L831.775 352.297L832.873 352.933L833.97 352.297L883.432 323.74L883.98 323.432V264.453L883.432 264.146ZM832.873 351.66L782.863 322.796V265.089L832.873 236.225L882.883 265.089V322.796L832.873 351.66Z" fill="#1D1D1D"/>
<path d="M876.231 268.909L832.873 293.954V343.999L789.515 318.976V268.909L832.873 243.886L876.231 268.909Z" fill="#1D1D1D"/>
<path d="M23.7415 177.42L67.8065 202.123V152.717L23.7415 177.42Z" fill="#1D1D1D"/>
<path d="M74.6444 147.415L24.0856 118.222L-27.0001 147.722V206.724L22.9879 235.588L24.0856 236.225L25.1833 235.588L74.6444 207.031L75.1932 206.724V147.722L74.6444 147.415ZM24.0856 234.951L-25.9024 206.087V148.359L24.0856 119.495L74.0956 148.359V206.087L24.0856 234.951Z" fill="#1D1D1D"/>
<path d="M24.0855 127.155V227.291L-19.2726 202.246V152.2L24.0855 127.155Z" fill="#1D1D1D"/>
<path d="M125.225 177.42L81.1596 202.123V152.717L125.225 177.42Z" fill="#1D1D1D"/>
<path d="M75.1934 206.087V206.724L74.6446 207.031L124.084 235.588L125.181 234.951L75.1934 206.087ZM175.74 147.415L125.181 118.222L74.6446 147.415L74.0958 147.722V206.724L74.6446 207.031L124.084 235.588L125.181 236.225L126.279 235.588L175.74 207.031L176.289 206.724V147.722L175.74 147.415ZM125.181 234.951L75.1934 206.087V148.359L125.181 119.495L175.191 148.359V206.087L125.181 234.951Z" fill="#1D1D1D"/>
<path d="M168.54 152.2V202.246L125.181 177.223V127.155L168.54 152.2Z" fill="#1D1D1D"/>
<path d="M176.289 206.087V206.724L175.74 207.031L225.18 235.588L226.277 234.951L176.289 206.087ZM276.836 147.415L226.277 118.222L175.74 147.415L175.192 147.722V206.724L175.74 207.031L225.18 235.588L226.277 236.225L227.375 235.588L276.836 207.031L277.385 206.724V147.722L276.836 147.415ZM226.277 234.951L176.289 206.087V148.359L226.277 119.495L276.287 148.359V206.087L226.277 234.951ZM176.289 206.087V206.724L175.74 207.031L225.18 235.588L226.277 234.951L176.289 206.087Z" fill="#1D1D1D"/>
<path d="M269.657 152.2V202.246L226.277 227.291V177.223L269.657 152.2Z" fill="#1D1D1D"/>
<path d="M226.277 127.155V177.223L182.919 202.246V152.2L226.277 127.155Z" fill="#1D1D1D"/>
<path d="M277.384 206.087V206.724L276.836 207.031L326.297 235.588L327.394 234.951L277.384 206.087ZM377.931 147.415L327.394 118.222L276.836 147.415L276.287 147.722V206.724L276.836 207.031L326.297 235.588L327.394 236.225L328.492 235.588L377.931 207.031L378.48 206.724V147.722L377.931 147.415ZM327.394 234.951L277.384 206.087V148.359L327.394 119.495L377.382 148.359V206.087L327.394 234.951ZM277.384 206.087V206.724L276.836 207.031L326.297 235.588L327.394 234.951L277.384 206.087Z" fill="#1D1D1D"/>
<path d="M370.752 202.246L327.394 227.29L284.014 202.246L327.394 177.223L370.752 202.246Z" fill="#1D1D1D"/>
<path d="M370.752 152.2L327.394 177.223L284.014 152.2L327.394 127.155L370.752 152.2Z" fill="#1D1D1D"/>
<path d="M378.48 206.087V206.724L377.931 207.031L427.393 235.588L428.49 234.951L378.48 206.087ZM479.027 147.415L428.49 118.222L377.931 147.415L377.383 147.722V206.724L377.931 207.031L427.393 235.588L428.49 236.225L429.588 235.588L479.027 207.031L479.576 206.724V147.722L479.027 147.415ZM428.49 234.951L378.48 206.087V148.359L428.49 119.495L478.478 148.359V206.087L428.49 234.951Z" fill="#1D1D1D"/>
<path d="M471.848 152.2V202.246L428.49 177.223L385.11 152.2L428.49 127.155L471.848 152.2Z" fill="#1D1D1D"/>
<path d="M479.576 206.087V206.724L479.027 207.031L528.488 235.588L529.586 234.951L479.576 206.087ZM580.123 147.415L529.586 118.222L479.027 147.415L478.478 147.722V206.724L479.027 207.031L528.488 235.588L529.586 236.225L530.684 235.588L580.123 207.031L580.672 206.724V147.722L580.123 147.415ZM529.586 234.951L479.576 206.087V148.359L529.586 119.495L579.574 148.359V206.087L529.586 234.951Z" fill="#1D1D1D"/>
<path d="M572.944 152.2V202.246L529.586 227.291V177.223L486.228 152.2L529.586 127.155L572.944 152.2Z" fill="#1D1D1D"/>
<path d="M631.305 177.419L587.24 202.122V152.716L631.305 177.419Z" fill="#1D1D1D"/>
<path d="M674.034 202.111L631.305 227.493V176.751L674.034 202.111Z" fill="#1D1D1D"/>
<path d="M674.034 152.059L631.305 127.345V176.751L674.034 152.059Z" fill="#1D1D1D"/>
<path d="M630.637 236.84L579.228 207.13V147.709L630.637 117.998L682.046 147.709V207.13L630.637 236.84ZM580.332 206.488L630.637 235.558L680.942 206.488V148.35L630.637 119.28L580.332 148.35V206.488Z" fill="#1D1D1D"/>
<path d="M681.767 206.087V206.724L681.218 207.031L730.679 235.588L731.777 234.951L681.767 206.087ZM782.314 147.415L731.777 118.222L681.218 147.415L680.669 147.722V206.724L681.218 207.031L730.679 235.588L731.777 236.225L732.874 235.588L782.314 207.031L782.862 206.724V147.722L782.314 147.415ZM731.777 234.951L681.767 206.087V148.359L731.777 119.495L781.765 148.359V206.087L731.777 234.951Z" fill="#1D1D1D"/>
<path d="M731.777 127.155V227.291L688.419 202.246V152.2L731.777 127.155Z" fill="#1D1D1D"/>
<path d="M782.863 206.087V206.724L782.314 207.031L831.775 235.588L832.873 234.951L782.863 206.087ZM883.432 147.415L832.873 118.222L782.314 147.415L781.765 147.722V206.724L782.314 207.031L831.775 235.588L832.873 236.225L833.97 235.588L883.432 207.031L883.98 206.724V147.722L883.432 147.415ZM832.873 234.951L782.863 206.087V148.359L832.873 119.495L882.883 148.359V206.087L832.873 234.951Z" fill="#1D1D1D"/>
<path d="M876.231 152.2V202.246L832.873 227.291L789.515 202.246L832.873 177.223V127.155L876.231 152.2Z" fill="#1D1D1D"/>
<path d="M977.149 202.112L934.419 227.493V176.752L977.149 202.112Z" fill="#1D1D1D"/>
<path d="M883.98 206.087V206.724L883.431 207.031L932.87 235.588L933.968 234.951L883.98 206.087ZM984.527 147.415L933.968 118.222L883.431 147.415L882.882 147.722V206.724L883.431 207.031L932.87 235.588L933.968 236.225L935.066 235.588L984.527 207.031L985.076 206.724V147.722L984.527 147.415ZM933.968 234.951L883.98 206.087V148.359L933.968 119.495L983.978 148.359V206.087L933.968 234.951Z" fill="#1D1D1D"/>
<path d="M977.326 152.2L933.968 177.223L890.61 152.2L933.968 127.155L977.326 152.2Z" fill="#1D1D1D"/>
<path d="M1034.57 177.42L1078.63 202.123V152.717L1034.57 177.42Z" fill="#1D1D1D"/>
<path d="M985.076 206.087V206.724L984.527 207.031L1033.97 235.588L1035.06 234.951L985.076 206.087ZM1085.62 147.415L1035.06 118.222L984.527 147.415L983.978 147.722V206.724L984.527 207.031L1033.97 235.588L1035.06 236.225L1036.16 235.588L1085.62 207.031L1086.17 206.724V147.722L1085.62 147.415ZM1035.06 234.951L985.076 206.087V148.359L1035.06 119.495L1085.07 148.359V206.087L1035.06 234.951Z" fill="#1D1D1D"/>
<path d="M1035.06 127.155V177.223L991.706 202.246V152.2L1035.06 127.155Z" fill="#1D1D1D"/>
<path d="M1136.16 118.222L1085.62 147.415L1085.07 147.722V206.724L1085.62 207.031L1135.06 235.588L1136.16 236.225L1137.26 235.588L1187.27 206.724V147.722L1136.16 118.222ZM1186.17 206.087L1136.16 234.951L1086.17 206.087V148.359L1136.16 119.495L1186.17 148.359V206.087Z" fill="#1D1D1D"/>
<path d="M1179.52 152.2V202.246L1136.16 227.291L1092.8 202.246V152.2L1136.16 177.223L1179.52 152.2Z" fill="#1D1D1D"/>
<path d="M1287.6 614.107L1238.14 585.55L1237.05 584.913L1235.95 585.55L1185.96 614.414V673.415L1237.05 702.894L1287.6 673.723L1288.15 673.415V614.414L1287.6 614.107ZM1187.06 672.779V615.05L1237.05 586.186L1287.06 615.05V672.779L1237.05 701.621L1187.06 672.779Z" fill="#1D1D1D"/>
<path d="M1237.05 643.915V693.961L1193.69 668.938V618.87L1237.05 643.915Z" fill="#1D1D1D"/>
<path d="M1280.4 618.87V668.937L1237.05 643.914V593.847L1280.4 618.87Z" fill="#1D1D1D"/>
<path d="M1339.24 585.55L1338.14 586.186L1388.15 615.05V614.414L1388.7 614.107L1339.24 585.55ZM1388.7 614.107L1339.24 585.55L1338.14 584.913L1337.04 585.55L1287.6 614.107L1287.05 614.414V673.415L1287.6 673.723L1338.14 702.894L1388.7 673.723L1389.25 673.415V614.414L1388.7 614.107ZM1288.15 672.779V615.05L1338.14 586.186L1388.15 615.05V672.779L1338.14 701.621L1288.15 672.779Z" fill="#1D1D1D"/>
<path d="M1381.5 618.87V668.937L1338.14 693.96L1294.78 668.937V618.87L1338.14 643.914V593.847L1381.5 618.87Z" fill="#1D1D1D"/>
<path d="M1396.43 668.812L1439.16 693.515V644.108L1396.43 668.812Z" fill="#1D1D1D"/>
<path d="M1440.33 585.55L1439.24 586.186L1489.25 615.05V614.414L1489.8 614.107L1440.33 585.55ZM1489.8 614.107L1440.33 585.55L1439.24 584.913L1438.14 585.55L1388.7 614.107L1388.15 614.414V673.415L1388.7 673.723L1439.24 702.894L1489.8 673.723L1490.34 673.415V614.414L1489.8 614.107ZM1389.25 672.779V615.05L1439.24 586.186L1489.25 615.05V672.779L1439.24 701.621L1389.25 672.779Z" fill="#1D1D1D"/>
<path d="M1482.62 618.87V668.937L1439.24 643.914L1395.88 618.87L1439.24 593.847L1482.62 618.87Z" fill="#1D1D1D"/>
<path d="M1237.53 527.269L1193.47 551.973V502.566L1237.53 527.269Z" fill="#1D1D1D"/>
<path d="M1287.06 556.684V556.048L1237.05 584.912L1238.14 585.549L1287.6 556.992L1287.06 556.684ZM1287.6 497.376L1238.12 468.819L1237.05 468.204L1235.97 468.819L1185.96 497.683V556.684L1235.95 585.549L1237.05 586.185L1238.14 585.549L1287.6 556.992L1288.15 556.684V497.683L1287.6 497.376ZM1237.05 584.912L1187.06 556.048V498.319L1237.05 469.455L1287.06 498.319V556.048L1237.05 584.912Z" fill="#1D1D1D"/>
<path d="M1280.4 502.16V552.228L1237.05 577.251V477.115L1280.4 502.16Z" fill="#1D1D1D"/>
<path d="M1388.7 497.376L1339.22 468.819L1338.14 468.204L1337.06 468.819L1287.6 497.376L1287.05 497.683V556.684L1287.6 556.992L1337.04 585.549L1338.14 586.185L1339.24 585.549L1388.7 556.992L1389.25 556.684V497.683L1388.7 497.376ZM1338.14 584.912L1288.15 556.048V498.319L1338.14 469.455L1388.15 498.319V556.048L1338.14 584.912Z" fill="#1D1D1D"/>
<path d="M1338.14 477.115V577.251L1294.78 552.228V502.16L1338.14 477.115Z" fill="#1D1D1D"/>
<path d="M1396.43 501.909L1439.16 526.602V477.195L1396.43 501.909Z" fill="#1D1D1D"/>
<path d="M1440.31 468.819L1439.24 469.455L1489.25 498.319V497.683L1489.8 497.376L1440.31 468.819ZM1489.8 497.376L1440.31 468.819L1439.24 468.204L1438.16 468.819L1388.7 497.376L1388.15 497.683V556.684L1388.7 556.992L1438.14 585.549L1439.24 586.185L1440.33 585.549L1489.8 556.992L1490.34 556.684V497.683L1489.8 497.376ZM1439.24 584.912L1389.25 556.048V498.319L1439.24 469.455L1489.25 498.319V556.048L1439.24 584.912Z" fill="#1D1D1D"/>
<path d="M1482.62 502.16V552.228L1439.24 577.251V527.183L1482.62 502.16Z" fill="#1D1D1D"/>
<path d="M1237.53 410.442L1280.26 435.801V385.06L1237.53 410.442Z" fill="#1D1D1D"/>
<path d="M1287.06 439.955V439.34L1237.05 468.204L1238.12 468.819L1287.6 440.262L1287.06 439.955ZM1287.6 380.668L1238.14 352.111L1237.05 351.475L1235.95 352.111L1185.96 380.975V439.955L1235.97 468.819L1237.05 469.456L1238.12 468.819L1287.6 440.262L1288.15 439.955V380.975L1287.6 380.668ZM1237.05 468.204L1187.06 439.34V381.612L1237.05 352.748L1287.06 381.612V439.34L1237.05 468.204Z" fill="#1D1D1D"/>
<path d="M1237.05 410.476V460.521L1193.69 435.498V385.431L1237.05 410.476Z" fill="#1D1D1D"/>
<path d="M1388.15 439.955V439.34L1338.14 468.204L1339.22 468.819L1388.7 440.262L1388.15 439.955ZM1388.7 380.668L1339.24 352.111L1338.14 351.475L1337.04 352.111L1287.6 380.668L1287.05 380.975V439.955L1287.6 440.262L1337.06 468.819L1338.14 469.456L1339.22 468.819L1388.7 440.262L1389.25 439.955V380.975L1388.7 380.668ZM1338.14 468.204L1288.15 439.34V381.612L1338.14 352.748L1388.15 381.612V439.34L1338.14 468.204Z" fill="#1D1D1D"/>
<path d="M1338.14 410.476L1381.5 435.499L1338.14 460.522L1294.78 435.499V385.431L1338.14 360.408L1381.5 385.431L1338.14 410.476Z" fill="#1D1D1D"/>
<path d="M1439.16 410.442L1483.23 435.801V385.06L1439.16 410.442Z" fill="#1D1D1D"/>
<path d="M1489.8 380.668L1440.33 352.111L1439.24 351.475L1438.14 352.111L1388.7 380.668L1388.15 380.975V439.955L1388.7 440.262L1438.14 468.819L1439.21 469.456L1440.29 468.819H1440.31L1489.77 440.262L1490.32 439.955V380.975L1489.77 380.668H1489.8ZM1439.24 468.204L1389.25 439.34V381.612L1439.24 352.748L1489.25 381.612V439.34L1439.24 468.204Z" fill="#1D1D1D"/>
<path d="M1439.24 360.408V460.522L1395.88 435.499V385.431L1439.24 360.408Z" fill="#1D1D1D"/>
<path d="M1287.06 323.247V322.611L1237.05 351.475L1238.14 352.111L1287.6 323.554L1287.06 323.247ZM1287.6 263.939L1238.14 235.382L1237.05 234.745L1235.95 235.382L1185.96 264.246V323.247L1235.95 352.111L1237.05 352.748L1238.14 352.111L1287.6 323.554L1288.15 323.247V264.246L1287.6 263.939ZM1237.05 351.475L1187.06 322.611V264.882L1237.05 236.018L1287.06 264.882V322.611L1237.05 351.475ZM1287.06 323.247V322.611L1237.05 351.475L1238.14 352.111L1287.6 323.554L1287.06 323.247Z" fill="#1D1D1D"/>
<path d="M1280.4 268.724V318.769L1237.05 343.814V293.747L1280.4 268.724Z" fill="#1D1D1D"/>
<path d="M1237.05 243.679V293.747L1193.69 318.769V268.724L1237.05 243.679Z" fill="#1D1D1D"/>
<path d="M1381.75 268.899L1337.68 243.518V294.259L1381.75 268.899Z" fill="#1D1D1D"/>
<path d="M1388.15 323.247V322.611L1338.14 351.475L1339.24 352.111L1388.7 323.554L1388.15 323.247ZM1388.7 263.939L1339.24 235.382L1338.14 234.745L1337.04 235.382L1287.6 263.939L1287.05 264.246V323.247L1287.6 323.554L1337.04 352.111L1338.14 352.748L1339.24 352.111L1388.7 323.554L1389.25 323.247V264.246L1388.7 263.939ZM1338.14 351.475L1288.15 322.611V264.882L1338.14 236.018L1388.15 264.882V322.611L1338.14 351.475Z" fill="#1D1D1D"/>
<path d="M1381.5 318.769L1338.14 343.814L1294.78 318.769V268.724L1338.14 293.747L1381.5 318.769Z" fill="#1D1D1D"/>
<path d="M1396.43 318.951L1439.16 343.665V294.259L1396.43 318.951Z" fill="#1D1D1D"/>
<path d="M1483.23 268.457V318.294L1439.82 293.375L1396.43 268.457L1439.82 243.517L1483.23 268.457Z" fill="#1D1D1D"/>
<path d="M1489.36 263.571L1440.24 234.811L1439.15 234.17L1438.06 234.811L1388.97 263.571L1388.42 263.88V323.301L1388.97 323.611L1438.06 352.371L1439.15 353.012L1440.24 352.371L1489.36 323.611L1489.9 323.301V263.88L1489.36 263.571ZM1439.15 351.73L1389.51 322.66V264.521L1439.15 235.452L1488.81 264.521V322.66L1439.15 351.73Z" fill="#1D1D1D"/>
<path d="M1237.53 176.763L1280.26 202.122V151.381L1237.53 176.763Z" fill="#1D1D1D"/>
<path d="M1237.53 176.763L1193.47 202.122V151.381L1237.53 176.763Z" fill="#1D1D1D"/>
<path d="M1236.87 235.505L1185.46 206.128V147.375L1236.87 117.998L1288.27 147.375V206.128L1236.87 235.505ZM1186.56 205.516L1236.87 234.259L1287.17 205.516V148.031L1236.87 119.288L1186.56 148.031V205.516Z" fill="#1D1D1D"/>
<path d="M1337.68 176.763L1381.75 202.122V151.381L1337.68 176.763Z" fill="#1D1D1D"/>
<path d="M1388.15 206.516V205.902L1338.14 234.744L1339.24 235.38L1388.7 206.824L1388.15 206.516ZM1388.7 147.23L1339.24 118.673L1338.14 118.036L1337.04 118.673L1287.6 147.23L1287.05 147.537V206.516L1287.6 206.824L1337.04 235.38L1338.14 236.017L1339.24 235.38L1388.7 206.824L1389.25 206.516V147.537L1388.7 147.23ZM1338.14 234.744L1288.15 205.902V148.173L1338.14 119.309L1388.15 148.173V205.902L1338.14 234.744Z" fill="#1D1D1D"/>
<path d="M1338.14 126.97V177.038L1294.78 202.06V151.993L1338.14 126.97Z" fill="#1D1D1D"/>
<path d="M1489.8 147.23L1440.33 118.673L1439.24 118.036L1438.14 118.673L1388.7 147.23L1388.15 147.537V206.516L1388.7 206.824L1438.14 235.38L1439.24 236.017L1440.33 235.38L1489.8 206.824L1490.34 206.516V147.537L1489.8 147.23ZM1439.24 234.744L1389.25 205.902V148.173L1439.24 119.309L1489.25 148.173V205.902L1439.24 234.744Z" fill="#1D1D1D"/>
<path d="M1482.62 151.993V202.06L1439.24 227.083L1395.88 202.06L1439.24 177.038L1395.88 151.993L1439.24 126.97L1482.62 151.993Z" fill="#1D1D1D"/>
<path d="M1396.43 785.65L1439.16 811.021V760.279L1396.43 785.65Z" fill="#1D1D1D"/>
<path d="M1439.64 703.192L1438.54 702.556L1389.1 731.112L1389.65 731.42V732.056L1439.64 703.192ZM1490.2 731.112L1440.74 702.556L1439.64 701.919L1438.54 702.556L1389.1 731.112L1388.56 731.42V790.399L1389.1 790.706L1438.54 819.263L1439.64 819.9L1440.74 819.263L1490.2 790.706L1490.75 790.399V731.42L1490.2 731.112ZM1439.64 818.627L1389.65 789.785V732.056L1439.64 703.192L1489.65 732.056V789.785L1439.64 818.627Z" fill="#1D1D1D"/>
<path d="M1483 735.875L1439.64 760.92L1396.28 735.875L1439.64 710.853L1483 735.875Z" fill="#1D1D1D"/>
<path d="M1237.53 60.5807L1280.26 85.9515V35.21L1237.53 60.5807Z" fill="#1D1D1D"/>
<path d="M1287.06 89.8088V89.1722L1237.05 118.036L1238.14 118.673L1287.6 90.1161L1287.06 89.8088ZM1287.6 30.5L1238.14 1.94321L1237.05 1.30664L1235.95 1.94321L1185.96 30.8074V89.8088L1235.95 118.673L1237.05 119.31L1238.14 118.673L1287.6 90.1161L1288.15 89.8088V30.8074L1287.6 30.5ZM1237.05 118.036L1187.06 89.1722V31.4439L1237.05 2.57971L1287.06 31.4439V89.1722L1237.05 118.036Z" fill="#1D1D1D"/>
<path d="M1237.05 10.2402V110.376L1193.69 85.331V35.2851L1237.05 10.2402Z" fill="#1D1D1D"/>
<path d="M1337.68 60.5807L1294.95 85.9515V35.21L1337.68 60.5807Z" fill="#1D1D1D"/>
<path d="M1388.7 30.5L1339.24 1.94321L1338.14 1.30664L1337.04 1.94321L1287.6 30.5L1287.05 30.8074V89.8088L1287.6 90.1161L1337.04 118.673L1338.14 119.31L1339.24 118.673L1388.7 90.1161L1389.25 89.8088V30.8074L1388.7 30.5ZM1338.14 118.036L1288.15 89.1722V31.4439L1338.14 2.57971L1388.15 31.4439V89.1722L1338.14 118.036Z" fill="#1D1D1D"/>
<path d="M1381.5 35.2851V85.331L1338.14 60.308V10.2402L1381.5 35.2851Z" fill="#1D1D1D"/>
<path d="M1489.8 30.5L1440.33 1.94321L1439.24 1.30664L1438.14 1.94321L1388.7 30.5L1388.15 30.8074V89.8088L1388.7 90.1161L1438.14 118.673L1439.24 119.31L1440.33 118.673L1489.8 90.1161L1490.34 89.8088V30.8074L1489.8 30.5ZM1439.24 118.036L1389.25 89.1722V31.4439L1439.24 2.57971L1489.25 31.4439V89.1722L1439.24 118.036Z" fill="#1D1D1D"/>
<path d="M1482.62 35.2852V85.331L1439.24 110.376V60.3081L1482.62 35.2852Z" fill="#1D1D1D"/>
<path d="M1439.24 10.2402V60.308L1395.88 85.331V35.2851L1439.24 10.2402Z" fill="#1D1D1D"/>
<path d="M1237.53 760.947L1280.26 785.65V736.244L1237.53 760.947Z" fill="#1D1D1D"/>
<path d="M1237.05 703.169L1235.95 702.532L1186.51 731.089L1187.06 731.396V732.033L1237.05 703.169ZM1287.6 731.089L1238.14 702.532L1237.05 701.896L1235.95 702.532L1186.51 731.089L1185.96 731.396V790.398L1186.51 790.705L1235.95 819.262L1237.05 819.898L1238.14 819.262L1287.6 790.705L1288.15 790.398V731.396L1287.6 731.089ZM1237.05 818.625L1187.06 789.761V732.033L1237.05 703.169L1287.06 732.033V789.761L1237.05 818.625Z" fill="#1D1D1D"/>
<path d="M1237.05 710.829V760.897L1193.69 785.92V735.874L1237.05 710.829Z" fill="#1D1D1D"/>
<path d="M1338.14 703.169L1337.04 702.532L1287.6 731.089L1288.15 731.396V732.033L1338.14 703.169ZM1339.24 702.532L1338.14 701.896L1337.04 702.532L1287.6 731.089L1287.05 731.396V790.398L1287.6 790.705L1337.04 819.262L1338.14 819.898L1339.24 819.262L1389.25 790.398V731.396L1339.24 702.532ZM1388.15 789.761L1338.14 818.625L1288.15 789.761V732.033L1338.14 703.169L1388.15 732.033V789.761Z" fill="#1D1D1D"/>
<path d="M1381.5 735.874V785.92L1338.14 810.965L1294.78 785.92V735.874L1338.14 760.897L1381.5 735.874Z" fill="#1D1D1D"/>
</g>
<defs>
<clipPath id="clip0_188_763">
<rect width="1440" height="820" fill="white"/>
</clipPath>
</defs>
</svg>
