<svg width="1364" height="615" viewBox="0 0 1364 615" fill="none" xmlns="http://www.w3.org/2000/svg">
<path d="M5.58008 588.368L38.5801 607.368V569.368L5.58008 588.368Z" fill="#0D0D0D"/>
<path d="M76.1208 547.457L39.0798 526.07L38.2577 525.594L37.4357 526.07L0.41102 547.457L0 547.687V591.856L0.41102 592.086L37.4357 613.472L38.2577 613.949L39.0798 613.472L76.1208 592.086L76.5319 591.856V547.687L76.1208 547.457ZM38.2577 612.995L0.822039 591.396V548.163L38.2577 526.547L75.7098 548.163V591.396L38.2577 612.995Z" fill="#0D0D0D"/>
<path d="M70.7447 551.024V588.519L38.2577 569.78L5.78711 551.024L38.2577 532.284L70.7447 551.024Z" fill="#0D0D0D"/>
<path d="M81.5801 588.368L113.58 607.368V569.368L81.5801 588.368Z" fill="#0D0D0D"/>
<path d="M151.83 547.457L114.806 526.07L113.984 525.594L113.162 526.07L76.1205 547.457L75.7095 547.687V591.856L76.1205 592.086L113.162 613.472L113.984 613.949L114.806 613.472L151.83 592.086L152.241 591.856V547.687L151.83 547.457ZM113.984 612.995L76.5315 591.396V548.163L113.984 526.547L151.419 548.163V591.396L113.984 612.995Z" fill="#0D0D0D"/>
<path d="M146.454 551.024V588.519L113.984 569.78L81.4966 551.024L113.984 532.284L146.454 551.024Z" fill="#0D0D0D"/>
<path d="M189.58 569.876L157.58 588.368V551.368L189.58 569.876Z" fill="#0D0D0D"/>
<path d="M222.58 588.368L189.58 607.368V569.368L222.58 588.368Z" fill="#0D0D0D"/>
<path d="M222.58 550.86L189.58 532.368V569.368L222.58 550.86Z" fill="#0D0D0D"/>
<path d="M189.58 614.368L151.58 592.118V547.618L189.58 525.368L227.58 547.618V592.118L189.58 614.368ZM152.396 591.638L189.58 613.408L226.764 591.638V548.098L189.58 526.328L152.396 548.098V591.638Z" fill="#0D0D0D"/>
<path d="M303.25 547.457L266.225 526.07L265.403 525.594L264.581 526.07L227.54 547.457L227.129 547.687V591.856L227.54 592.086L264.581 613.472L265.403 613.949L266.225 613.472L303.25 592.086L303.661 591.856V547.687L303.25 547.457ZM265.403 612.995L227.951 591.396V548.163L265.403 526.547L302.839 548.163V591.396L265.403 612.995Z" fill="#0D0D0D"/>
<path d="M297.874 551.023V588.519L265.403 607.258L232.933 588.519L265.403 569.779L297.874 551.023Z" fill="#0D0D0D"/>
<path d="M568.58 395.508L600.58 414V377L568.58 395.508Z" fill="#0D0D0D"/>
<path d="M606.701 372.863L569.676 351.477L568.854 351L568.032 351.477L530.991 372.863L530.58 373.093V417.262L530.991 417.492L568.032 438.878L568.854 439.355L569.676 438.878L606.701 417.492L607.112 417.262V373.093L606.701 372.863ZM568.854 438.402L531.402 416.802V373.57L568.854 351.953L606.29 373.57V416.802L568.854 438.402Z" fill="#0D0D0D"/>
<path d="M568.854 357.69V395.186L536.384 413.925V376.43L568.854 357.69Z" fill="#0D0D0D"/>
<path d="M416.823 526.547L416.001 526.07L378.96 547.457L379.371 547.687V548.163L416.823 526.547ZM454.67 547.457L417.645 526.07L416.823 525.594L416.001 526.07L378.96 547.457L378.549 547.687V591.856L378.96 592.086L416.001 613.472L416.823 613.949L417.645 613.472L454.67 592.086L455.081 591.856V547.687L454.67 547.457ZM416.823 612.995L379.371 591.396V548.163L416.823 526.547L454.259 548.163V591.396L416.823 612.995ZM416.823 526.547L416.001 526.07L378.96 547.457L379.371 547.687V548.163L416.823 526.547Z" fill="#0D0D0D"/>
<path d="M449.294 551.024V588.519L416.823 569.78V532.284L449.294 551.024Z" fill="#0D0D0D"/>
<path d="M416.823 569.779V607.258L384.352 588.519V551.023L416.823 569.779Z" fill="#0D0D0D"/>
<path d="M492.533 526.547L491.711 526.07L454.67 547.457L455.081 547.687V548.163L492.533 526.547V526.547ZM530.396 547.457L493.355 526.07L492.533 525.594L491.711 526.07L454.67 547.457L454.259 547.687V591.856L454.67 592.086L491.711 613.472L492.533 613.949L493.355 613.472L530.396 592.086L530.807 591.856V547.687L530.396 547.457ZM492.533 612.995L455.081 591.396V548.163L492.533 526.547L529.985 548.163V591.396L492.533 612.995Z" fill="#0D0D0D"/>
<path d="M525.003 551.024V588.519L492.533 569.78L460.062 588.519V551.024L492.533 532.284L525.003 551.024Z" fill="#0D0D0D"/>
<path d="M535.58 588.368L568.58 607.368V569.368L535.58 588.368Z" fill="#0D0D0D"/>
<path d="M568.243 526.547L567.421 526.07L530.396 547.457L530.807 547.687V548.163L568.243 526.547ZM606.106 547.457L569.065 526.07L568.243 525.594L567.421 526.07L530.396 547.457L529.985 547.687V591.856L530.396 592.086L567.421 613.472L568.243 613.949L569.065 613.472L606.106 592.086L606.517 591.856V547.687L606.106 547.457ZM568.243 612.995L530.807 591.396V548.163L568.243 526.547L605.695 548.163V591.396L568.243 612.995Z" fill="#0D0D0D"/>
<path d="M600.713 551.024V588.519L568.243 569.78L535.772 551.024L568.243 532.284L600.713 551.024Z" fill="#0D0D0D"/>
<path d="M643.953 526.547L643.13 526.07L606.106 547.457L606.517 547.687V548.163L643.953 526.547ZM681.816 547.457L644.775 526.07L643.953 525.594L643.13 526.07L606.106 547.457L605.695 547.687V591.856L606.106 592.086L643.13 613.472L643.953 613.949L644.775 613.472L681.816 592.086L682.227 591.856V547.687L681.816 547.457ZM643.953 612.995L606.517 591.396V548.163L643.953 526.547L681.405 548.163V591.396L643.953 612.995Z" fill="#0D0D0D"/>
<path d="M676.423 551.024V588.519L643.952 607.259L611.482 588.519V551.024L643.952 532.284V569.78L676.423 551.024Z" fill="#0D0D0D"/>
<path d="M687.58 588.368L719.58 607.368V569.368L687.58 588.368Z" fill="#0D0D0D"/>
<path d="M719.662 526.547L718.84 526.07L681.815 547.457L682.226 547.687V548.163L719.662 526.547ZM720.484 526.07L719.662 525.594L718.84 526.07L681.815 547.457L681.404 547.687V591.856L681.815 592.086L718.84 613.472L719.662 613.949L720.484 613.472L757.936 591.856V547.687L720.484 526.07ZM757.114 591.396L719.662 612.995L682.226 591.396V548.163L719.662 526.547L757.114 548.163V591.396Z" fill="#0D0D0D"/>
<path d="M752.133 551.024V588.519L719.662 569.78L687.191 551.024L719.662 532.284L752.133 551.024Z" fill="#0D0D0D"/>
<path d="M5.58008 463.377L38.5801 482.368V444.368L5.58008 463.377Z" fill="#0D0D0D"/>
<path d="M75.7098 504.454V503.978L38.2577 525.594L39.0798 526.071L76.1208 504.685L75.7098 504.454ZM76.1208 460.039L39.0798 438.653L38.2577 438.176L37.4357 438.653L0.41102 460.039L0 460.269V504.454L0.41102 504.685L37.4357 526.071L38.2577 526.547L39.0798 526.071L76.1208 504.685L76.5319 504.454V460.269L76.1208 460.039ZM38.2577 525.594L0.822039 503.978V460.745L38.2577 439.129L75.7098 460.745V503.978L38.2577 525.594Z" fill="#0D0D0D"/>
<path d="M70.7448 463.622V501.101L38.2578 519.857V482.362L70.7448 463.622Z" fill="#0D0D0D"/>
<path d="M151.419 504.454V503.978L113.984 525.594L114.806 526.071L151.83 504.685L151.419 504.454ZM151.83 460.039L114.806 438.653L113.984 438.176L113.162 438.653L76.1205 460.039L75.7095 460.269V504.454L76.1205 504.685L113.162 526.071L113.984 526.547L114.806 526.071L151.83 504.685L152.241 504.454V460.269L151.83 460.039ZM113.984 525.594L76.5315 503.978V460.745L113.984 439.129L151.419 460.745V503.978L113.984 525.594Z" fill="#0D0D0D"/>
<path d="M146.454 463.622V501.101L113.984 519.857L81.4966 501.101V463.622L113.984 444.866V482.362L146.454 463.622Z" fill="#0D0D0D"/>
<path d="M157.58 500.86L189.58 519.368V482.368L157.58 500.86Z" fill="#0D0D0D"/>
<path d="M227.54 460.039L190.516 438.653L189.694 438.176L188.872 438.653L151.83 460.039L151.419 460.269V504.454L151.83 504.685L188.872 526.071L189.694 526.547L190.516 526.071L227.54 504.685L227.951 504.454V460.269L227.54 460.039ZM189.694 525.594L152.241 503.978V460.745L189.694 439.129L227.129 460.745V503.978L189.694 525.594Z" fill="#0D0D0D"/>
<path d="M222.164 463.622V501.101L189.693 482.362V444.866L222.164 463.622Z" fill="#0D0D0D"/>
<path d="M227.951 503.978V504.454L227.54 504.685L264.581 526.071L265.403 525.594L227.951 503.978ZM303.25 460.039L266.225 438.653L265.403 438.176L264.581 438.653L227.54 460.039L227.129 460.269V504.454L227.54 504.685L264.581 526.071L265.403 526.547L266.225 526.071L303.25 504.685L303.661 504.454V460.269L303.25 460.039ZM265.403 525.594L227.951 503.978V460.745L265.403 439.129L302.839 460.745V503.978L265.403 525.594ZM227.951 503.978V504.454L227.54 504.685L264.581 526.071L265.403 525.594L227.951 503.978Z" fill="#0D0D0D"/>
<path d="M265.403 482.362V519.857L232.933 501.101V463.622L265.403 482.362Z" fill="#0D0D0D"/>
<path d="M297.873 463.622V501.101L265.403 482.362V444.866L297.873 463.622Z" fill="#0D0D0D"/>
<path d="M308.58 500.86L341.58 519.368V482.368L308.58 500.86Z" fill="#0D0D0D"/>
<path d="M303.661 503.978V504.454L303.25 504.685L340.291 526.071L341.113 525.594L303.661 503.978V503.978ZM378.96 460.039L341.935 438.653L341.113 438.176L340.291 438.653L303.25 460.039L302.839 460.269V504.454L303.25 504.685L340.291 526.071L341.113 526.547L341.935 526.071L378.96 504.685L379.371 504.454V460.269L378.96 460.039ZM341.113 525.594L303.661 503.978V460.745L341.113 439.129L378.549 460.745V503.978L341.113 525.594Z" fill="#0D0D0D"/>
<path d="M373.584 463.622V501.101L341.113 482.362L308.643 463.622L341.113 444.866L373.584 463.622Z" fill="#0D0D0D"/>
<path d="M449.58 463.377L416.58 444.368V482.368L449.58 463.377Z" fill="#0D0D0D"/>
<path d="M454.67 460.039L417.645 438.653L416.823 438.176L416.001 438.653L378.96 460.039L378.549 460.269V504.454L378.96 504.685L416.001 526.071L416.823 526.547L417.645 526.071L454.67 504.685L455.081 504.454V460.269L454.67 460.039ZM416.823 525.594L379.371 503.978V460.745L416.823 439.129L454.259 460.745V503.978L416.823 525.594Z" fill="#0D0D0D"/>
<path d="M449.293 501.101L416.823 519.857L384.352 501.101V463.622L416.823 482.362L449.293 501.101Z" fill="#0D0D0D"/>
<path d="M492.533 439.129L491.711 438.653L454.67 460.039L455.081 460.269V460.745L492.533 439.129V439.129ZM530.396 460.039L493.355 438.653L492.533 438.176L491.711 438.653L454.67 460.039L454.259 460.269V504.454L454.67 504.685L491.711 526.071L492.533 526.547L493.355 526.071L530.396 504.685L530.807 504.454V460.269L530.396 460.039ZM492.533 525.594L455.081 503.978V460.745L492.533 439.129L529.985 460.745V503.978L492.533 525.594Z" fill="#0D0D0D"/>
<path d="M525.003 463.622V501.101L492.533 482.362L460.062 463.622L492.533 444.866L525.003 463.622Z" fill="#0D0D0D"/>
<path d="M568.243 439.129L567.421 438.653L530.396 460.039L530.807 460.269V460.745L568.243 439.129ZM606.106 460.039L569.065 438.653L568.243 438.176L567.421 438.653L530.396 460.039L529.985 460.269V504.454L530.396 504.685L567.421 526.071L568.243 526.547L569.065 526.071L606.106 504.685L606.517 504.454V460.269L606.106 460.039ZM568.243 525.594L530.807 503.978V460.745L568.243 439.129L605.695 460.745V503.978L568.243 525.594Z" fill="#0D0D0D"/>
<path d="M600.713 463.622V501.101L568.243 482.362V519.857L535.772 501.101V463.622L568.243 444.866L600.713 463.622Z" fill="#0D0D0D"/>
<path d="M611.58 500.86L643.58 519.368V482.368L611.58 500.86Z" fill="#0D0D0D"/>
<path d="M643.953 439.129L643.13 438.653L606.106 460.039L606.517 460.269V460.745L643.953 439.129ZM681.816 460.039L644.775 438.653L643.953 438.176L643.13 438.653L606.106 460.039L605.695 460.269V504.454L606.106 504.685L643.13 526.071L643.953 526.547L644.775 526.071L681.816 504.685L682.227 504.454V460.269L681.816 460.039ZM643.953 525.594L606.517 503.978V460.745L643.953 439.129L681.405 460.745V503.978L643.953 525.594Z" fill="#0D0D0D"/>
<path d="M676.423 463.622V501.101L643.952 482.362L611.482 463.622L643.952 444.866L676.423 463.622Z" fill="#0D0D0D"/>
<path d="M719.662 439.129L718.84 438.653L681.815 460.039L682.226 460.269V460.745L719.662 439.129ZM720.484 438.653L719.662 438.176L718.84 438.653L681.815 460.039L681.404 460.269V504.454L681.815 504.685L718.84 526.071L719.662 526.547L720.484 526.071L757.936 504.454V460.269L720.484 438.653ZM757.114 503.978L719.662 525.594L682.226 503.978V460.745L719.662 439.129L757.114 460.745V503.978Z" fill="#0D0D0D"/>
<path d="M719.662 482.362L752.133 501.101L719.662 519.857L687.191 501.101V463.622L719.662 444.866L752.133 463.622L719.662 482.362Z" fill="#0D0D0D"/>
<path d="M38.5801 394.876L70.5801 413.368V376.368L38.5801 394.876Z" fill="#0D0D0D"/>
<path d="M76.1208 372.637L39.0798 351.251L38.2577 350.774L37.4357 351.251L0.41102 372.637L0 372.867V417.036L0.41102 417.266L37.4357 438.652L38.2577 439.129L39.0798 438.652L76.1208 417.266L76.5319 417.036V372.867L76.1208 372.637ZM38.2577 438.176L0.822039 416.576V373.344L38.2577 351.727L75.7098 373.344V416.576L38.2577 438.176Z" fill="#0D0D0D"/>
<path d="M38.2577 357.464V432.439L5.78711 413.699V376.204L38.2577 357.464Z" fill="#0D0D0D"/>
<path d="M146.58 376.36L113.58 357.368V395.368L146.58 376.36Z" fill="#0D0D0D"/>
<path d="M151.83 372.637L114.806 351.251L113.984 350.774L113.162 351.251L76.1205 372.637L75.7095 372.867V417.036L76.1205 417.266L113.162 438.652L113.984 439.129L114.806 438.652L151.83 417.266L152.241 417.036V372.867L151.83 372.637ZM113.984 438.176L76.5315 416.576V373.344L113.984 351.727L151.419 373.344V416.576L113.984 438.176Z" fill="#0D0D0D"/>
<path d="M146.454 413.699L113.984 432.439L81.4966 413.699V376.204L113.984 394.96L146.454 413.699Z" fill="#0D0D0D"/>
<path d="M152.241 416.576V417.036L151.83 417.266L188.872 438.652L189.694 438.176L152.241 416.576V416.576ZM227.54 372.637L190.516 351.251L189.694 350.774L188.872 351.251L151.83 372.637L151.419 372.867V417.036L151.83 417.266L188.872 438.652L189.694 439.129L190.516 438.652L227.54 417.266L227.951 417.036V372.867L227.54 372.637ZM189.694 438.176L152.241 416.576V373.344L189.694 351.727L227.129 373.344V416.576L189.694 438.176Z" fill="#0D0D0D"/>
<path d="M222.164 376.204V413.699L189.694 432.439L157.207 413.699L189.694 394.96L157.207 376.204L189.694 357.464L222.164 376.204Z" fill="#0D0D0D"/>
<path d="M232.58 376.36L265.58 395.368V357.368L232.58 376.36Z" fill="#0D0D0D"/>
<path d="M227.951 416.576V417.036L227.54 417.266L264.581 438.652L265.403 438.176L227.951 416.576V416.576ZM303.25 372.637L266.225 351.251L265.403 350.774L264.581 351.251L227.54 372.637L227.129 372.867V417.036L227.54 417.266L264.581 438.652L265.403 439.129L266.225 438.652L303.25 417.266L303.661 417.036V372.867L303.25 372.637ZM265.403 438.176L227.951 416.576V373.344L265.403 351.727L302.839 373.344V416.576L265.403 438.176Z" fill="#0D0D0D"/>
<path d="M297.873 376.204V413.699L265.403 432.439V394.96L297.873 376.204Z" fill="#0D0D0D"/>
<path d="M303.661 416.576V417.036L303.25 417.266L340.291 438.652L341.113 438.176L303.661 416.576V416.576ZM378.96 372.637L341.935 351.251L341.113 350.774L340.291 351.251L303.25 372.637L302.839 372.867V417.036L303.25 417.266L340.291 438.652L341.113 439.129L341.935 438.652L378.96 417.266L379.371 417.036V372.867L378.96 372.637ZM341.113 438.176L303.661 416.576V373.344L341.113 351.727L378.549 373.344V416.576L341.113 438.176Z" fill="#0D0D0D"/>
<path d="M373.584 376.204V413.699L341.113 394.96L308.643 376.204L341.113 357.464L373.584 376.204Z" fill="#0D0D0D"/>
<path d="M416.58 394.876L449.58 413.368V376.368L416.58 394.876Z" fill="#0D0D0D"/>
<path d="M379.371 416.576V417.036L378.96 417.266L416.001 438.652L416.823 438.176L379.371 416.576V416.576ZM454.67 372.637L417.645 351.251L416.823 350.774L416.001 351.251L378.96 372.637L378.549 372.867V417.036L378.96 417.266L416.001 438.652L416.823 439.129L417.645 438.652L454.67 417.266L455.081 417.036V372.867L454.67 372.637V372.637ZM416.823 438.176L379.371 416.576V373.344L416.823 351.727L454.259 373.344V416.576L416.823 438.176V438.176Z" fill="#0D0D0D"/>
<path d="M416.823 394.96V432.439L384.352 413.699V376.204L416.823 394.96Z" fill="#0D0D0D"/>
<path d="M524.58 413.868L492.58 432.368V395.368L524.58 413.868Z" fill="#0D0D0D"/>
<path d="M530.396 372.637L493.355 351.251L492.533 350.774L491.711 351.251L454.67 372.637L454.259 372.867V417.036L454.67 417.266L491.711 438.652L492.533 439.129L493.355 438.652L530.396 417.266L530.807 417.036V372.867L530.396 372.637V372.637ZM492.533 438.176L455.081 416.576V373.344L492.533 351.727L529.985 373.344V416.576L492.533 438.176Z" fill="#0D0D0D"/>
<path d="M525.003 376.204L492.533 394.96L460.062 413.699V376.204L492.533 357.464L525.003 376.204Z" fill="#0D0D0D"/>
<path d="M340.838 526.953L340.016 526.477L302.991 547.863L303.402 548.093V548.57L340.838 526.953V526.953ZM378.701 547.863L341.66 526.477L340.838 526L340.016 526.477L302.991 547.863L302.58 548.093V592.262L302.991 592.492L340.016 613.878L340.838 614.355L341.66 613.878L378.701 592.492L379.112 592.262V548.093L378.701 547.863ZM340.838 613.402L303.402 591.802V548.57L340.838 526.953L378.29 548.57V591.802L340.838 613.402ZM340.838 526.953L340.016 526.477L302.991 547.863L303.402 548.093V548.57L340.838 526.953V526.953Z" fill="#EB3B28"/>
<path d="M373.308 588.925L340.838 607.665L308.367 588.925L340.838 570.186L373.308 588.925Z" fill="#EB3B28"/>
<path d="M373.308 551.43L340.838 570.186L308.367 551.43L340.838 532.69L373.308 551.43Z" fill="#EB3B28"/>
<path d="M643.953 351.727L643.13 351.251L606.106 372.637L606.517 372.867V373.344L643.953 351.727V351.727ZM681.816 372.637L644.775 351.251L643.953 350.774L643.13 351.251L606.106 372.637L605.695 372.867V417.036L606.106 417.266L643.13 438.652L643.953 439.129L644.775 438.652L681.816 417.266L682.227 417.036V372.867L681.816 372.637ZM643.953 438.176L606.517 416.576V373.344L643.953 351.727L681.405 373.344V416.576L643.953 438.176Z" fill="#0D0D0D"/>
<path d="M676.423 376.204V413.699L643.952 394.96L611.482 413.699V376.204L643.952 357.464L676.423 376.204Z" fill="#0D0D0D"/>
<path d="M719.58 394.876L752.58 413.368V376.368L719.58 394.876Z" fill="#0D0D0D"/>
<path d="M719.662 351.727L718.84 351.251L681.815 372.637L682.226 372.867V373.344L719.662 351.727V351.727ZM720.484 351.251L719.662 350.774L718.84 351.251L681.815 372.637L681.404 372.867V417.036L681.815 417.266L718.84 438.652L719.662 439.129L720.484 438.652L757.936 417.036V372.867L720.484 351.251V351.251ZM757.114 416.576L719.662 438.176L682.226 416.576V373.344L719.662 351.727L757.114 373.344V416.576Z" fill="#0D0D0D"/>
<path d="M719.662 394.96V432.439L687.191 413.699V376.204L719.662 394.96Z" fill="#0D0D0D"/>
<path d="M38.5801 44.3765L70.5801 63.3682V25.3682L38.5801 44.3765Z" fill="#0D0D0D"/>
<path d="M76.1208 21.8628L38.2577 0L0.41102 21.8628L0 22.0929V66.2622L0.41102 66.4924L38.2577 88.3551L76.1208 66.4924L76.5319 66.2622V22.0929L76.1208 21.8628V21.8628ZM0.822039 65.802V22.5696L38.2577 0.953413L75.7098 22.5696V65.802L38.2577 87.4017L0.822039 65.802Z" fill="#0D0D0D"/>
<path d="M38.2577 6.69043V81.6649L5.78711 62.9254V25.4299L38.2577 6.69043Z" fill="#0D0D0D"/>
<path d="M146.58 25.3598L113.58 6.36816V44.3682L146.58 25.3598Z" fill="#0D0D0D"/>
<path d="M151.83 21.8628L113.984 0L76.1205 21.8628L75.7095 22.0929V66.2622L76.1205 66.4924L113.984 88.3551L151.83 66.4924L152.241 66.2622V22.0929L151.83 21.8628V21.8628ZM76.5315 65.802V22.5696L113.984 0.953413L151.419 22.5696V65.802L113.984 87.4017L76.5315 65.802V65.802Z" fill="#0D0D0D"/>
<path d="M146.454 62.9251L113.984 81.6646L81.4966 62.9251V25.4297L113.984 44.1856L146.454 62.9251Z" fill="#0D0D0D"/>
<path d="M227.54 21.8628L189.694 0L151.83 21.8628L151.419 22.0929V66.2622L151.83 66.4924L189.694 88.3551L227.54 66.4924L227.951 66.2622V22.0929L227.54 21.8628V21.8628ZM152.241 65.802V22.5696L189.694 0.953413L227.129 22.5696V65.802L189.694 87.4017L152.241 65.802Z" fill="#0D0D0D"/>
<path d="M222.164 25.4299V62.9254L189.694 81.6649L157.207 62.9254L189.694 44.1859L157.207 25.4299L189.694 6.69043L222.164 25.4299Z" fill="#0D0D0D"/>
<path d="M232.58 25.3598L265.58 44.3682V6.36816L232.58 25.3598Z" fill="#0D0D0D"/>
<path d="M303.25 21.8628L265.403 0L227.54 21.8628L227.129 22.0929V66.2622L227.54 66.4924L265.403 88.3551L303.25 66.4924L303.661 66.2622V22.0929L303.25 21.8628V21.8628ZM227.951 65.802V22.5696L265.403 0.953413L302.839 22.5696V65.802L265.403 87.4017L227.951 65.802Z" fill="#0D0D0D"/>
<path d="M297.873 25.4297V62.9251L265.403 81.6646V44.1856L297.873 25.4297Z" fill="#0D0D0D"/>
<path d="M378.96 21.8628L341.113 0L303.25 21.8628L302.839 22.0929V66.2622L303.25 66.4924L341.113 88.3551L378.96 66.4924L379.371 66.2622V22.0929L378.96 21.8628V21.8628ZM303.661 65.802V22.5696L341.113 0.953413L378.549 22.5696V65.802L341.113 87.4017L303.661 65.802V65.802Z" fill="#0D0D0D"/>
<path d="M373.584 25.4299V62.9254L341.113 44.1859L308.643 25.4299L341.113 6.69043L373.584 25.4299Z" fill="#0D0D0D"/>
<path d="M416.58 44.3765L449.58 63.3682V25.3682L416.58 44.3765Z" fill="#0D0D0D"/>
<path d="M454.67 21.8628L416.823 0L378.96 21.8628L378.549 22.0929V66.2622L378.96 66.4924L416.823 88.3551L454.67 66.4924L455.081 66.2622V22.0929L454.67 21.8628V21.8628ZM379.371 65.802V22.5696L416.823 0.953413L454.259 22.5696V65.802L416.823 87.4017L379.371 65.802V65.802Z" fill="#0D0D0D"/>
<path d="M416.823 44.1856V81.6646L384.352 62.9251V25.4297L416.823 44.1856Z" fill="#0D0D0D"/>
<path d="M524.58 62.8682L492.58 81.3682V44.3682L524.58 62.8682Z" fill="#0D0D0D"/>
<path d="M530.396 21.8628L492.533 0L454.67 21.8628L454.259 22.0929V66.2622L454.67 66.4924L492.533 88.3551L530.396 66.4924L530.807 66.2622V22.0929L530.396 21.8628V21.8628ZM455.081 65.802V22.5696L492.533 0.953413L529.985 22.5696V65.802L492.533 87.4017L455.081 65.802V65.802Z" fill="#0D0D0D"/>
<path d="M525.003 25.4299L492.533 44.1859L460.062 62.9254V25.4299L492.533 6.69043L525.003 25.4299Z" fill="#0D0D0D"/>
<path d="M606.106 21.8628L568.243 0L530.396 21.8628L529.985 22.0929V66.2622L530.396 66.4924L568.243 88.3551L606.106 66.4924L606.517 66.2622V22.0929L606.106 21.8628V21.8628ZM530.807 65.802V22.5696L568.243 0.953413L605.695 22.5696V65.802L568.243 87.4017L530.807 65.802V65.802Z" fill="#0D0D0D"/>
<path d="M600.713 62.925L568.243 81.6646L535.772 62.925L568.243 44.1855L600.713 62.925Z" fill="#0D0D0D"/>
<path d="M600.713 25.4299L568.243 44.1859L535.772 25.4299L568.243 6.69043L600.713 25.4299Z" fill="#0D0D0D"/>
<path d="M681.816 21.8628L643.953 0L606.106 21.8628L605.695 22.0929V66.2622L606.106 66.4924L643.953 88.3551L681.816 66.4924L682.227 66.2622V22.0929L681.816 21.8628V21.8628ZM606.517 65.802V22.5696L643.953 0.953413L681.405 22.5696V65.802L643.953 87.4017L606.517 65.802Z" fill="#0D0D0D"/>
<path d="M676.423 25.4299V62.9254L643.952 44.1859L611.482 62.9254V25.4299L643.952 6.69043L676.423 25.4299Z" fill="#0D0D0D"/>
<path d="M719.58 44.3765L752.58 63.3682V25.3682L719.58 44.3765Z" fill="#0D0D0D"/>
<path d="M719.662 0L681.815 21.8628L681.404 22.0929V66.2622L681.815 66.4924L719.662 88.3551L757.936 66.2622V22.0929L719.662 0ZM757.114 65.802L719.662 87.4017L682.226 65.802V22.5696L719.662 0.953413L757.114 22.5696V65.802Z" fill="#0D0D0D"/>
<path d="M719.662 44.1856V81.6646L687.191 62.9251V25.4297L719.662 44.1856Z" fill="#0D0D0D"/>
<path d="M5.58008 326.36L38.5801 345.368V307.368L5.58008 326.36Z" fill="#0D0D0D"/>
<path d="M76.1208 285.219L39.0798 263.833L38.2577 263.356L37.4357 263.833L0.41102 285.219L0 285.449V329.635L0.41102 329.865L37.4357 351.251L38.2577 351.728L39.0798 351.251L76.1208 329.865L76.5319 329.635V285.449L76.1208 285.219ZM38.2577 350.774L0.822039 329.158V285.926L38.2577 264.309L75.7098 285.926V329.158L38.2577 350.774Z" fill="#0D0D0D"/>
<path d="M70.7447 288.802V326.281L38.2577 307.542L5.78711 288.802L38.2577 270.046L70.7447 288.802Z" fill="#0D0D0D"/>
<path d="M76.5315 329.158V329.635L76.1205 329.865L113.162 351.251L113.984 350.774L76.5315 329.158V329.158ZM151.83 285.219L114.806 263.833L113.984 263.356L113.162 263.833L76.1205 285.219L75.7095 285.449V329.635L76.1205 329.865L113.162 351.251L113.984 351.728L114.806 351.251L151.83 329.865L152.241 329.635V285.449L151.83 285.219ZM113.984 350.774L76.5315 329.158V285.926L113.984 264.309L151.419 285.926V329.158L113.984 350.774Z" fill="#0D0D0D"/>
<path d="M146.454 288.802V326.281L113.984 345.037L81.4966 326.281V288.802L113.984 307.542V270.046L146.454 288.802Z" fill="#0D0D0D"/>
<path d="M222.58 326.36L189.58 345.368V307.368L222.58 326.36Z" fill="#0D0D0D"/>
<path d="M152.241 329.158V329.635L151.83 329.865L188.872 351.251L189.694 350.774L152.241 329.158V329.158ZM227.54 285.219L190.516 263.833L189.694 263.356L188.872 263.833L151.83 285.219L151.419 285.449V329.635L151.83 329.865L188.872 351.251L189.694 351.728L190.516 351.251L227.54 329.865L227.951 329.635V285.449L227.54 285.219ZM189.694 350.774L152.241 329.158V285.926L189.694 264.309L227.129 285.926V329.158L189.694 350.774Z" fill="#0D0D0D"/>
<path d="M222.164 288.802L189.694 307.542L157.207 326.281V288.802L189.694 270.046L222.164 288.802Z" fill="#0D0D0D"/>
<path d="M297.58 326.36L265.58 345.368V307.368L297.58 326.36Z" fill="#0D0D0D"/>
<path d="M227.951 329.158V329.635L227.54 329.865L264.581 351.251L265.403 350.774L227.951 329.158V329.158ZM303.25 285.219L266.225 263.833L265.403 263.356L264.581 263.833L227.54 285.219L227.129 285.449V329.635L227.54 329.865L264.581 351.251L265.403 351.728L266.225 351.251L303.25 329.865L303.661 329.635V285.449L303.25 285.219ZM265.403 350.774L227.951 329.158V285.926L265.403 264.309L302.839 285.926V329.158L265.403 350.774Z" fill="#0D0D0D"/>
<path d="M297.874 288.802L265.403 307.542L232.933 326.281V288.802L265.403 270.046L297.874 288.802Z" fill="#0D0D0D"/>
<path d="M303.661 329.158V329.635L303.25 329.865L340.291 351.251L341.113 350.774L303.661 329.158V329.158ZM378.96 285.219L341.935 263.833L341.113 263.356L340.291 263.833L303.25 285.219L302.839 285.449V329.635L303.25 329.865L340.291 351.251L341.113 351.728L341.935 351.251L378.96 329.865L379.371 329.635V285.449L378.96 285.219ZM341.113 350.774L303.661 329.158V285.926L341.113 264.309L378.549 285.926V329.158L341.113 350.774Z" fill="#0D0D0D"/>
<path d="M373.584 288.802V326.281L341.113 307.542V345.037L308.643 326.281V288.802L341.113 270.046L373.584 288.802Z" fill="#0D0D0D"/>
<path d="M379.371 329.158V329.635L378.96 329.865L416.001 351.251L416.823 350.774L379.371 329.158V329.158ZM454.67 285.219L417.645 263.833L416.823 263.356L416.001 263.833L378.96 285.219L378.549 285.449V329.635L378.96 329.865L416.001 351.251L416.823 351.728L417.645 351.251L454.67 329.865L455.081 329.635V285.449L454.67 285.219V285.219ZM416.823 350.774L379.371 329.158V285.926L416.823 264.309L454.259 285.926V329.158L416.823 350.774V350.774ZM379.371 329.158V329.635L378.96 329.865L416.001 351.251L416.823 350.774L379.371 329.158V329.158Z" fill="#0D0D0D"/>
<path d="M449.294 288.802V326.281L416.823 307.542V270.046L449.294 288.802Z" fill="#0D0D0D"/>
<path d="M416.823 307.542V345.037L384.352 326.281V288.802L416.823 307.542Z" fill="#0D0D0D"/>
<path d="M492.58 307.368L524.58 326.368V288.368L492.58 307.368Z" fill="#0D0D0D"/>
<path d="M455.081 329.158V329.635L454.67 329.865L491.711 351.251L492.533 350.774L455.081 329.158V329.158ZM530.396 285.219L493.355 263.833L492.533 263.356L491.711 263.833L454.67 285.219L454.259 285.449V329.635L454.67 329.865L491.711 351.251L492.533 351.728L493.355 351.251L530.396 329.865L530.807 329.635V285.449L530.396 285.219V285.219ZM492.533 350.774L455.081 329.158V285.926L492.533 264.309L529.985 285.926V329.158L492.533 350.774Z" fill="#0D0D0D"/>
<path d="M492.533 270.046V345.037L460.062 326.281V288.802L492.533 270.046Z" fill="#0D0D0D"/>
<path d="M606.106 285.219L569.065 263.833L568.243 263.356L567.421 263.833L530.396 285.219L529.985 285.449V329.635L530.396 329.865L567.421 351.251L568.243 351.728L569.065 351.251L606.106 329.865L606.517 329.635V285.449L606.106 285.219ZM568.243 350.774L530.807 329.158V285.926L568.243 264.309L605.695 285.926V329.158L568.243 350.774Z" fill="#0D0D0D"/>
<path d="M600.713 288.802V326.281L568.243 345.037L535.772 326.281V288.802L568.243 270.046V307.542L600.713 288.802Z" fill="#0D0D0D"/>
<path d="M643.953 264.309L643.13 263.833L606.106 285.219L606.517 285.449V285.926L643.953 264.309V264.309ZM681.816 285.219L644.775 263.833L643.953 263.356L643.13 263.833L606.106 285.219L605.695 285.449V329.635L606.106 329.865L643.13 351.251L643.953 351.728L644.775 351.251L681.816 329.865L682.227 329.635V285.449L681.816 285.219ZM643.953 350.774L606.517 329.158V285.926L643.953 264.309L681.405 285.926V329.158L643.953 350.774ZM643.953 264.309L643.13 263.833L606.106 285.219L606.517 285.449V285.926L643.953 264.309V264.309Z" fill="#3066AF"/>
<path d="M676.423 326.281L643.952 345.037L611.482 326.281L643.952 307.542L676.423 326.281Z" fill="#3066AF"/>
<path d="M676.423 288.802L643.952 307.542L611.482 288.802L643.952 270.046L676.423 288.802Z" fill="#3066AF"/>
<path d="M752.58 326.36L719.58 345.368V307.368L752.58 326.36Z" fill="#0D0D0D"/>
<path d="M719.662 264.309L718.84 263.833L681.815 285.219L682.226 285.449V285.926L719.662 264.309V264.309ZM720.484 263.833L719.662 263.356L718.84 263.833L681.815 285.219L681.404 285.449V329.635L681.815 329.865L718.84 351.251L719.662 351.728L720.484 351.251L757.936 329.635V285.449L720.484 263.833V263.833ZM757.114 329.158L719.662 350.774L682.226 329.158V285.926L719.662 264.309L757.114 285.926V329.158Z" fill="#0D0D0D"/>
<path d="M752.133 288.802L719.662 307.542L687.191 326.281V288.802L719.662 270.046L752.133 288.802Z" fill="#0D0D0D"/>
<path d="M0.822039 241.74V242.216L0.41102 242.446L37.4357 263.833L38.2577 263.356L0.822039 241.74V241.74ZM76.1208 197.817L39.0798 176.431L38.2577 175.954L37.4357 176.431L0.41102 197.817L0 198.047V242.216L0.41102 242.446L37.4357 263.833L38.2577 264.309L39.0798 263.833L76.1208 242.446L76.5319 242.216V198.047L76.1208 197.817V197.817ZM38.2577 263.356L0.822039 241.74V198.524L38.2577 176.908L75.7098 198.524V241.74L38.2577 263.356Z" fill="#0D0D0D"/>
<path d="M70.7447 201.384V238.879L38.2577 257.619L5.78711 238.879L38.2577 220.14L5.78711 201.384L38.2577 182.645L70.7447 201.384Z" fill="#0D0D0D"/>
<path d="M81.5801 238.868L113.58 257.368V220.368L81.5801 238.868Z" fill="#0D0D0D"/>
<path d="M76.5315 241.74V242.216L76.1205 242.446L113.162 263.833L113.984 263.356L76.5315 241.74V241.74ZM151.83 197.817L114.806 176.431L113.984 175.954L113.162 176.431L76.1205 197.817L75.7095 198.047V242.216L76.1205 242.446L113.162 263.833L113.984 264.309L114.806 263.833L151.83 242.446L152.241 242.216V198.047L151.83 197.817V197.817ZM113.984 263.356L76.5315 241.74V198.524L113.984 176.908L151.419 198.524V241.74L113.984 263.356ZM76.5315 241.74V242.216L76.1205 242.446L113.162 263.833L113.984 263.356L76.5315 241.74V241.74Z" fill="#0D0D0D"/>
<path d="M146.454 201.384V238.879L113.984 220.14L81.4966 201.384L113.984 182.645L146.454 201.384Z" fill="#0D0D0D"/>
<path d="M152.241 241.74V242.216L151.83 242.446L188.872 263.833L189.694 263.356L152.241 241.74V241.74ZM227.54 197.817L190.516 176.431L189.694 175.954L188.872 176.431L151.83 197.817L151.419 198.047V242.216L151.83 242.446L188.872 263.833L189.694 264.309L190.516 263.833L227.54 242.446L227.951 242.216V198.047L227.54 197.817V197.817ZM189.694 263.356L152.241 241.74V198.524L189.694 176.908L227.129 198.524V241.74L189.694 263.356Z" fill="#0D0D0D"/>
<path d="M222.164 201.384V238.879L189.694 220.14L157.207 238.879V201.384L189.694 182.645L222.164 201.384Z" fill="#0D0D0D"/>
<path d="M227.951 241.74V242.216L227.54 242.446L264.581 263.833L265.403 263.356L227.951 241.74V241.74ZM303.25 197.817L266.225 176.431L265.403 175.954L264.581 176.431L227.54 197.817L227.129 198.047V242.216L227.54 242.446L264.581 263.833L265.403 264.309L266.225 263.833L303.25 242.446L303.661 242.216V198.047L303.25 197.817V197.817ZM265.403 263.356L227.951 241.74V198.524L265.403 176.908L302.839 198.524V241.74L265.403 263.356Z" fill="#0D0D0D"/>
<path d="M265.403 182.645V257.619L232.933 238.879V201.384L265.403 182.645Z" fill="#0D0D0D"/>
<path d="M308.58 238.868L341.58 257.368V220.368L308.58 238.868Z" fill="#0D0D0D"/>
<path d="M303.661 241.74V242.216L303.25 242.446L340.291 263.833L341.113 263.356L303.661 241.74V241.74ZM378.96 197.817L341.935 176.431L341.113 175.954L340.291 176.431L303.25 197.817L302.839 198.047V242.216L303.25 242.446L340.291 263.833L341.113 264.309L341.935 263.833L378.96 242.446L379.371 242.216V198.047L378.96 197.817V197.817ZM341.113 263.356L303.661 241.74V198.524L341.113 176.908L378.549 198.524V241.74L341.113 263.356Z" fill="#0D0D0D"/>
<path d="M373.584 201.384V238.879L341.113 220.14L308.643 201.384L341.113 182.645L373.584 201.384Z" fill="#0D0D0D"/>
<path d="M384.58 238.868L416.58 257.368V220.368L384.58 238.868Z" fill="#0D0D0D"/>
<path d="M379.371 241.74V242.216L378.96 242.446L416.001 263.833L416.823 263.356L379.371 241.74V241.74ZM454.67 197.817L417.645 176.431L416.823 175.954L416.001 176.431L378.96 197.817L378.549 198.047V242.216L378.96 242.446L416.001 263.833L416.823 264.309L417.645 263.833L454.67 242.446L455.081 242.216V198.047L454.67 197.817V197.817ZM416.823 263.356L379.371 241.74V198.524L416.823 176.908L454.259 198.524V241.74L416.823 263.356V263.356Z" fill="#0D0D0D"/>
<path d="M449.293 201.384V238.879L416.823 220.14L384.352 201.384L416.823 182.645L449.293 201.384Z" fill="#0D0D0D"/>
<path d="M455.081 241.74V242.216L454.67 242.446L491.711 263.833L492.533 263.356L455.081 241.74V241.74ZM530.396 197.817L493.355 176.431L492.533 175.954L491.711 176.431L454.67 197.817L454.259 198.047V242.216L454.67 242.446L491.711 263.833L492.533 264.309L493.355 263.833L530.396 242.446L530.807 242.216V198.047L530.396 197.817V197.817ZM492.533 263.356L455.081 241.74V198.524L492.533 176.908L529.985 198.524V241.74L492.533 263.356Z" fill="#0D0D0D"/>
<path d="M525.003 201.384L492.533 220.14V257.619L460.062 238.879V201.384L492.533 182.645L525.003 201.384Z" fill="#0D0D0D"/>
<path d="M535.58 238.868L568.58 257.368V220.368L535.58 238.868Z" fill="#0D0D0D"/>
<path d="M530.807 241.74V242.216L530.396 242.446L567.421 263.833L568.243 263.356L530.807 241.74V241.74ZM606.106 197.817L569.065 176.431L568.243 175.954L567.421 176.431L530.396 197.817L529.985 198.047V242.216L530.396 242.446L567.421 263.833L568.243 264.309L569.065 263.833L606.106 242.446L606.517 242.216V198.047L606.106 197.817V197.817ZM568.243 263.356L530.807 241.74V198.524L568.243 176.908L605.695 198.524V241.74L568.243 263.356Z" fill="#0D0D0D"/>
<path d="M600.713 201.384V238.879L568.243 220.14L535.772 201.384L568.243 182.645L600.713 201.384Z" fill="#0D0D0D"/>
<path d="M611.58 238.868L643.58 257.368V220.368L611.58 238.868Z" fill="#0D0D0D"/>
<path d="M681.816 197.817L644.775 176.431L643.953 175.954L643.13 176.431L606.106 197.817L605.695 198.047V242.216L606.106 242.446L643.13 263.833L643.953 264.309L644.775 263.833L681.816 242.446L682.227 242.216V198.047L681.816 197.817V197.817ZM643.953 263.356L606.517 241.74V198.524L643.953 176.908L681.405 198.524V241.74L643.953 263.356Z" fill="#0D0D0D"/>
<path d="M676.423 201.384L643.952 220.14L611.482 201.384L643.952 182.645L676.423 201.384Z" fill="#0D0D0D"/>
<path d="M687.58 238.868L719.58 257.368V220.368L687.58 238.868Z" fill="#0D0D0D"/>
<path d="M687.58 201.36L719.58 220.368V182.368L687.58 201.36Z" fill="#0D0D0D"/>
<path d="M719.58 264.368L681.58 242.368V198.368L719.58 176.368L757.58 198.368V242.368L719.58 264.368ZM682.396 241.893L719.58 263.419L756.764 241.893V198.843L719.58 177.318L682.396 198.843V241.893Z" fill="#0D0D0D"/>
<path d="M0.822039 154.338V154.814L0.41102 155.044L37.4357 176.43L38.2577 175.954L0.822039 154.338ZM76.1208 110.398L38.2577 88.5356L0.41102 110.398L0 110.629V154.814L0.41102 155.044L37.4357 176.43L38.2577 176.907L39.0798 176.43L76.1208 155.044L76.5319 154.814V110.629L76.1208 110.398ZM38.2577 175.954L0.822039 154.338V111.105L38.2577 89.4891L75.7098 111.105V154.338L38.2577 175.954ZM0.822039 154.338V154.814L0.41102 155.044L37.4357 176.43L38.2577 175.954L0.822039 154.338Z" fill="#0D0D0D"/>
<path d="M70.7448 113.982V151.461L38.2578 170.217V132.721L70.7448 113.982Z" fill="#0D0D0D"/>
<path d="M38.2577 95.2261V132.722L5.78711 151.461V113.982L38.2577 95.2261Z" fill="#0D0D0D"/>
<path d="M76.5315 154.338V154.814L76.1205 155.044L113.162 176.43L113.984 175.954L76.5315 154.338ZM151.83 110.398L113.984 88.5356L76.1205 110.398L75.7095 110.629V154.814L76.1205 155.044L113.162 176.43L113.984 176.907L114.806 176.43L151.83 155.044L152.241 154.814V110.629L151.83 110.398ZM113.984 175.954L76.5315 154.338V111.105L113.984 89.4891L151.419 111.105V154.338L113.984 175.954ZM76.5315 154.338V154.814L76.1205 155.044L113.162 176.43L113.984 175.954L76.5315 154.338Z" fill="#238E45"/>
<path d="M146.454 151.461L113.984 170.217L81.4966 151.461L113.984 132.721L146.454 151.461Z" fill="#238E45"/>
<path d="M146.454 113.982L113.984 132.722L81.4966 113.982L113.984 95.2261L146.454 113.982Z" fill="#238E45"/>
<path d="M152.241 154.338V154.814L151.83 155.044L188.872 176.43L189.694 175.954L152.241 154.338ZM227.54 110.398L189.694 88.5356L151.83 110.398L151.419 110.629V154.814L151.83 155.044L188.872 176.43L189.694 176.907L190.516 176.43L227.54 155.044L227.951 154.814V110.629L227.54 110.398ZM189.694 175.954L152.241 154.338V111.105L189.694 89.4891L227.129 111.105V154.338L189.694 175.954Z" fill="#0D0D0D"/>
<path d="M222.164 113.982V151.461L189.694 132.722L157.207 113.982L189.694 95.2261L222.164 113.982Z" fill="#0D0D0D"/>
<path d="M227.951 154.338V154.814L227.54 155.044L264.581 176.43L265.403 175.954L227.951 154.338ZM303.25 110.398L265.403 88.5356L227.54 110.398L227.129 110.629V154.814L227.54 155.044L264.581 176.43L265.403 176.907L266.225 176.43L303.25 155.044L303.661 154.814V110.629L303.25 110.398ZM265.403 175.954L227.951 154.338V111.105L265.403 89.4891L302.839 111.105V154.338L265.403 175.954Z" fill="#0D0D0D"/>
<path d="M297.874 113.982V151.461L265.403 170.217V132.722L232.933 113.982L265.403 95.2261L297.874 113.982Z" fill="#0D0D0D"/>
<path d="M341.58 132.868L308.58 151.368V114.368L341.58 132.868Z" fill="#0D0D0D"/>
<path d="M373.58 151.36L341.58 170.368V132.368L373.58 151.36Z" fill="#0D0D0D"/>
<path d="M373.58 113.876L341.58 95.3682V132.368L373.58 113.876Z" fill="#0D0D0D"/>
<path d="M341.08 177.368L302.58 155.118V110.618L341.08 88.3682L379.58 110.618V155.118L341.08 177.368V177.368ZM303.407 154.638L341.08 176.408L378.753 154.638V111.098L341.08 89.3284L303.407 111.098V154.638Z" fill="#0D0D0D"/>
<path d="M379.371 154.338V154.814L378.96 155.044L416.001 176.43L416.823 175.954L379.371 154.338ZM454.67 110.398L416.823 88.5356L378.96 110.398L378.549 110.629V154.814L378.96 155.044L416.001 176.43L416.823 176.907L417.645 176.43L454.67 155.044L455.081 154.814V110.629L454.67 110.398V110.398ZM416.823 175.954L379.371 154.338V111.105L416.823 89.4891L454.259 111.105V154.338L416.823 175.954V175.954Z" fill="#0D0D0D"/>
<path d="M416.823 95.2261V170.217L384.352 151.461V113.982L416.823 95.2261Z" fill="#0D0D0D"/>
<path d="M455.081 154.338V154.814L454.67 155.044L491.711 176.43L492.533 175.954L455.081 154.338ZM530.396 110.398L492.533 88.5356L454.67 110.398L454.259 110.629V154.814L454.67 155.044L491.711 176.43L492.533 176.907L493.355 176.43L530.396 155.044L530.807 154.814V110.629L530.396 110.398V110.398ZM492.533 175.954L455.081 154.338V111.105L492.533 89.4891L529.985 111.105V154.338L492.533 175.954Z" fill="#0D0D0D"/>
<path d="M525.003 113.982V151.461L492.533 170.217L460.062 151.461L492.533 132.722V95.2261L525.003 113.982Z" fill="#0D0D0D"/>
<path d="M600.58 151.36L568.58 170.368V132.368L600.58 151.36Z" fill="#0D0D0D"/>
<path d="M530.807 154.338V154.814L530.396 155.044L567.421 176.43L568.243 175.954L530.807 154.338ZM606.106 110.398L568.243 88.5356L530.396 110.398L529.985 110.629V154.814L530.396 155.044L567.421 176.43L568.243 176.907L569.065 176.43L606.106 155.044L606.517 154.814V110.629L606.106 110.398ZM568.243 175.954L530.807 154.338V111.105L568.243 89.4891L605.695 111.105V154.338L568.243 175.954Z" fill="#0D0D0D"/>
<path d="M600.713 113.982L568.243 132.722L535.772 113.982L568.243 95.2261L600.713 113.982Z" fill="#0D0D0D"/>
<path d="M643.58 132.868L676.58 151.368V114.368L643.58 132.868Z" fill="#0D0D0D"/>
<path d="M606.517 154.338V154.814L606.106 155.044L643.13 176.43L643.953 175.954L606.517 154.338ZM681.816 110.398L643.953 88.5356L606.106 110.398L605.695 110.629V154.814L606.106 155.044L643.13 176.43L643.953 176.907L644.775 176.43L681.816 155.044L682.227 154.814V110.629L681.816 110.398V110.398ZM643.953 175.954L606.517 154.338V111.105L643.953 89.4891L681.405 111.105V154.338L643.953 175.954Z" fill="#0D0D0D"/>
<path d="M643.952 95.2261V132.722L611.482 151.461V113.982L643.952 95.2261Z" fill="#0D0D0D"/>
<path d="M719.662 88.5356L681.815 110.398L681.404 110.629V154.814L681.815 155.044L718.84 176.43L719.662 176.907L720.484 176.43L757.936 154.814V110.629L719.662 88.5356ZM757.114 154.338L719.662 175.954L682.226 154.338V111.105L719.662 89.4891L757.114 111.105V154.338Z" fill="#0D0D0D"/>
<path d="M752.133 113.982V151.461L719.662 170.217L687.191 151.461V113.982L719.662 132.721L752.133 113.982Z" fill="#0D0D0D"/>
<path d="M833.078 459.899L796.037 438.513L795.215 438.037L794.393 438.513L756.958 460.13V504.315L795.215 526.392L833.078 504.545L833.489 504.315V460.13L833.078 459.899ZM757.78 503.839V460.606L795.215 438.99L832.667 460.606V503.839L795.215 525.438L757.78 503.839V503.839Z" fill="#0D0D0D"/>
<path d="M795.215 482.223V519.702L762.745 500.962V463.467L795.215 482.223Z" fill="#0D0D0D"/>
<path d="M827.686 463.467V500.962L795.215 482.222V444.727L827.686 463.467Z" fill="#0D0D0D"/>
<path d="M871.747 438.513L870.925 438.99L908.377 460.606V460.13L908.788 459.899L871.747 438.513ZM908.788 459.899L871.747 438.513L870.925 438.037L870.103 438.513L833.078 459.899L832.667 460.13V504.315L833.078 504.545L870.925 526.392L908.788 504.545L909.199 504.315V460.13L908.788 459.899ZM833.489 503.839V460.606L870.925 438.99L908.377 460.606V503.839L870.925 525.438L833.489 503.839Z" fill="#0D0D0D"/>
<path d="M903.395 463.467V500.962L870.925 519.701L838.454 500.962V463.467L870.925 482.222V444.727L903.395 463.467Z" fill="#0D0D0D"/>
<path d="M914.58 500.868L946.58 519.368V482.368L914.58 500.868Z" fill="#0D0D0D"/>
<path d="M947.457 438.513L946.635 438.99L984.087 460.606V460.13L984.498 459.899L947.457 438.513ZM984.498 459.899L947.457 438.513L946.635 438.037L945.813 438.513L908.788 459.899L908.377 460.13V504.315L908.788 504.545L946.635 526.392L984.498 504.545L984.909 504.315V460.13L984.498 459.899ZM909.199 503.839V460.606L946.635 438.99L984.087 460.606V503.839L946.635 525.438L909.199 503.839Z" fill="#0D0D0D"/>
<path d="M979.122 463.467V500.962L946.635 482.222L914.164 463.467L946.635 444.727L979.122 463.467Z" fill="#0D0D0D"/>
<path d="M989.58 500.868L1022.58 519.368V482.368L989.58 500.868Z" fill="#0D0D0D"/>
<path d="M1023.18 438.513L1022.36 438.99L1059.8 460.606V460.13L1060.21 459.899L1023.18 438.513ZM1060.21 459.899L1023.18 438.513L1022.36 438.037L1021.54 438.513L984.498 459.899L984.087 460.13V504.315L984.498 504.545L1022.36 526.392L1060.21 504.545L1060.62 504.315V460.13L1060.21 459.899ZM984.909 503.839V460.606L1022.36 438.99L1059.8 460.606V503.839L1022.36 525.438L984.909 503.839Z" fill="#0D0D0D"/>
<path d="M1054.83 463.467V500.962L1022.36 482.222L989.874 463.467L1022.36 444.727L1054.83 463.467Z" fill="#0D0D0D"/>
<path d="M1097.58 482.376L1065.58 501.368V463.368L1097.58 482.376Z" fill="#0D0D0D"/>
<path d="M1130.58 500.868L1097.58 519.368V482.368L1130.58 500.868Z" fill="#0D0D0D"/>
<path d="M1130.58 463.36L1097.58 444.368V482.368L1130.58 463.36Z" fill="#0D0D0D"/>
<path d="M1098.08 526.368L1059.58 504.368V460.368L1098.08 438.368L1136.58 460.368V504.368L1098.08 526.368ZM1060.41 503.893L1098.08 525.419L1135.75 503.893V460.843L1098.08 439.317L1060.41 460.843V503.893Z" fill="#0D0D0D"/>
<path d="M1174.6 438.513L1173.78 438.99L1211.22 460.606V460.13L1211.63 459.899L1174.6 438.513ZM1211.63 459.899L1174.6 438.513L1173.78 438.037L1172.96 438.513L1135.92 459.899L1135.51 460.13V504.315L1135.92 504.545L1173.78 526.392L1211.63 504.545L1212.04 504.315V460.13L1211.63 459.899ZM1136.33 503.839V460.606L1173.78 438.99L1211.22 460.606V503.839L1173.78 525.438L1136.33 503.839Z" fill="#0D0D0D"/>
<path d="M1206.25 463.467V500.962L1173.78 519.702L1141.31 500.962L1173.78 482.223L1206.25 463.467Z" fill="#0D0D0D"/>
<path d="M1249.58 482.376L1281.58 501.368V463.368L1249.58 482.376Z" fill="#0D0D0D"/>
<path d="M1250.31 438.513L1249.49 438.99L1286.93 460.606V460.13L1287.34 459.899L1250.31 438.513ZM1287.34 459.899L1250.31 438.513L1249.49 438.037L1248.67 438.513L1211.63 459.899L1211.22 460.13V504.315L1211.63 504.545L1249.49 526.392L1287.34 504.545L1287.75 504.315V460.13L1287.34 459.899V459.899ZM1212.04 503.839V460.606L1249.49 438.99L1286.93 460.606V503.839L1249.49 525.438L1212.04 503.839Z" fill="#0D0D0D"/>
<path d="M1249.49 444.727V482.222L1217.02 500.962V463.467L1249.49 444.727Z" fill="#0D0D0D"/>
<path d="M1326.02 438.513L1325.2 438.99L1362.64 460.606V460.13L1363.05 459.899L1326.02 438.513ZM1363.05 459.899L1326.02 438.513L1325.2 438.037L1324.38 438.513L1287.34 459.899L1286.93 460.13V504.315L1287.34 504.545L1325.2 526.392L1363.05 504.545L1363.46 504.315V460.13L1363.05 459.899ZM1287.75 503.839V460.606L1325.2 438.99L1362.64 460.606V503.839L1325.2 525.438L1287.75 503.839V503.839ZM1326.02 438.513L1325.2 438.99L1362.64 460.606V460.13L1363.05 459.899L1326.02 438.513Z" fill="#0D0D0D"/>
<path d="M1357.67 463.467V500.962L1325.2 482.222V444.727L1357.67 463.467Z" fill="#0D0D0D"/>
<path d="M1325.2 482.223V519.702L1292.73 500.962V463.467L1325.2 482.223Z" fill="#0D0D0D"/>
<path d="M795.58 394.868L762.58 413.368V376.368L795.58 394.868Z" fill="#0D0D0D"/>
<path d="M832.667 416.897V416.42L795.215 438.036L796.037 438.513L833.078 417.127L832.667 416.897ZM833.078 372.481L796.021 351.095L795.215 350.635L794.41 351.095L756.958 372.711V416.897L794.393 438.513L795.215 438.99L796.037 438.513L833.078 417.127L833.489 416.897V372.711L833.078 372.481ZM795.215 438.036L757.78 416.42V373.188L795.215 351.572L832.667 373.188V416.42L795.215 438.036Z" fill="#0D0D0D"/>
<path d="M827.686 376.065V413.56L795.215 432.299V357.309L827.686 376.065Z" fill="#0D0D0D"/>
<path d="M908.788 372.481L871.73 351.095L870.925 350.635L870.119 351.095L833.078 372.481L832.667 372.711V416.897L833.078 417.127L870.103 438.513L870.925 438.99L871.747 438.513L908.788 417.127L909.199 416.897V372.711L908.788 372.481V372.481ZM870.925 438.036L833.489 416.42V373.188L870.925 351.572L908.377 373.188V416.42L870.925 438.036Z" fill="#0D0D0D"/>
<path d="M870.925 357.309V432.299L838.454 413.56V376.065L870.925 357.309Z" fill="#0D0D0D"/>
<path d="M914.58 375.876L946.58 394.368V357.368L914.58 375.876Z" fill="#0D0D0D"/>
<path d="M947.44 351.095L946.635 351.572L984.087 373.188V372.711L984.498 372.481L947.44 351.095V351.095ZM984.498 372.481L947.44 351.095L946.635 350.635L945.829 351.095L908.788 372.481L908.377 372.711V416.897L908.788 417.127L945.813 438.513L946.635 438.99L947.457 438.513L984.498 417.127L984.909 416.897V372.711L984.498 372.481V372.481ZM946.635 438.036L909.199 416.42V373.188L946.635 351.572L984.087 373.188V416.42L946.635 438.036Z" fill="#0D0D0D"/>
<path d="M979.122 376.064V413.56L946.635 432.299V394.804L979.122 376.064Z" fill="#0D0D0D"/>
<path d="M1023.17 351.095L1022.36 351.572L1059.8 373.188V372.711L1060.21 372.481L1023.17 351.095ZM1060.21 372.481L1023.17 351.095L1022.36 350.635L1021.56 351.095L984.498 372.481L984.087 372.711V416.897L984.498 417.127L1021.54 438.513L1022.36 438.99L1023.18 438.513L1060.21 417.127L1060.62 416.897V372.711L1060.21 372.481ZM1022.36 438.036L984.909 416.42V373.188L1022.36 351.572L1059.8 373.188V416.42L1022.36 438.036Z" fill="#0D0D0D"/>
<path d="M1054.83 376.065V413.56L1022.36 432.299L989.874 413.56V376.065L1022.36 357.309V394.804L1054.83 376.065Z" fill="#0D0D0D"/>
<path d="M1065.58 413.377L1097.58 432.368V394.368L1065.58 413.377Z" fill="#0D0D0D"/>
<path d="M1098.88 351.095L1098.07 351.572L1135.51 373.188V372.711L1135.92 372.481L1098.88 351.095ZM1135.92 372.481L1098.88 351.095L1098.07 350.635L1097.27 351.095L1060.21 372.481L1059.8 372.711V416.897L1060.21 417.127L1097.25 438.513L1098.07 438.99L1098.89 438.513L1135.92 417.127L1136.33 416.897V372.711L1135.92 372.481ZM1098.07 438.036L1060.62 416.42V373.188L1098.07 351.572L1135.51 373.188V416.42L1098.07 438.036Z" fill="#0D0D0D"/>
<path d="M1130.54 376.065V413.56L1098.07 394.804V357.309L1130.54 376.065Z" fill="#0D0D0D"/>
<path d="M1174.6 351.095H1174.59L1173.78 351.572L1211.22 373.188V372.711L1211.63 372.481L1174.6 351.095ZM1211.63 372.481L1174.6 351.095H1174.59L1173.78 350.635L1172.98 351.095H1172.96L1135.92 372.481L1135.51 372.711V416.897L1135.92 417.127L1172.96 438.513L1173.78 438.99L1174.6 438.513L1211.63 417.127L1212.04 416.897V372.711L1211.63 372.481ZM1173.78 438.036L1136.33 416.42V373.188L1173.78 351.572L1211.22 373.188V416.42L1173.78 438.036ZM1174.6 351.095H1174.59L1173.78 351.572L1211.22 373.188V372.711L1211.63 372.481L1174.6 351.095Z" fill="#0D0D0D"/>
<path d="M1206.25 376.065V413.56L1173.78 394.804V357.309L1206.25 376.065Z" fill="#0D0D0D"/>
<path d="M1173.78 394.804V432.299L1141.31 413.56V376.064L1173.78 394.804Z" fill="#0D0D0D"/>
<path d="M1216.58 413.377L1249.58 432.368V394.368L1216.58 413.377Z" fill="#0D0D0D"/>
<path d="M1250.3 351.095L1249.49 351.572L1286.93 373.188V372.711L1287.34 372.481L1250.3 351.095V351.095ZM1287.34 372.481L1250.3 351.095L1249.49 350.635L1248.69 351.095L1211.63 372.481L1211.22 372.711V416.897L1211.63 417.127L1248.67 438.513L1249.49 438.99L1250.31 438.513L1287.34 417.127L1287.75 416.897V372.711L1287.34 372.481ZM1249.49 438.036L1212.04 416.42V373.188L1249.49 351.572L1286.93 373.188V416.42L1249.49 438.036Z" fill="#0D0D0D"/>
<path d="M1281.96 376.065V413.56L1249.49 394.804L1217.02 376.065L1249.49 357.309L1281.96 376.065Z" fill="#0D0D0D"/>
<path d="M1357.58 375.876L1325.58 357.368V394.368L1357.58 375.876Z" fill="#0D0D0D"/>
<path d="M1326.01 351.095L1325.2 351.572L1362.64 373.188V372.711L1363.05 372.481L1326.01 351.095ZM1363.05 372.481L1326.01 351.095L1325.2 350.635L1324.39 351.095L1287.34 372.481L1286.93 372.711V416.897L1287.34 417.127L1324.38 438.513L1325.2 438.99L1326.02 438.513L1363.05 417.127L1363.46 416.897V372.711L1363.05 372.481ZM1325.2 438.036L1287.75 416.42V373.188L1325.2 351.572L1362.64 373.188V416.42L1325.2 438.036Z" fill="#0D0D0D"/>
<path d="M1357.67 413.56L1325.2 432.299L1292.73 413.56V376.064L1325.2 394.804L1357.67 413.56Z" fill="#0D0D0D"/>
<path d="M795.58 307.377L827.58 326.368V288.368L795.58 307.377Z" fill="#0D0D0D"/>
<path d="M832.667 329.479V329.019L795.215 350.635L796.021 351.095L833.078 329.709L832.667 329.479ZM833.078 285.08L796.037 263.693L795.215 263.217L794.393 263.693L756.958 285.31V329.479L794.41 351.095L795.215 351.572L796.021 351.095L833.078 329.709L833.489 329.479V285.31L833.078 285.08ZM795.215 350.635L757.78 329.019V285.786L795.215 264.17L832.667 285.786V329.019L795.215 350.635Z" fill="#0D0D0D"/>
<path d="M795.215 307.402V344.881L762.745 326.142V288.646L795.215 307.402Z" fill="#0D0D0D"/>
<path d="M908.377 329.479V329.019L870.925 350.635L871.73 351.095L908.788 329.709L908.377 329.479ZM908.788 285.08L871.747 263.693L870.925 263.217L870.103 263.693L833.078 285.08L832.667 285.31V329.479L833.078 329.709L870.119 351.095L870.925 351.572L871.73 351.095L908.788 329.709L909.199 329.479V285.31L908.788 285.08ZM870.925 350.635L833.489 329.019V285.786L870.925 264.17L908.377 285.786V329.019L870.925 350.635Z" fill="#0D0D0D"/>
<path d="M870.925 307.403L903.395 326.142L870.925 344.882L838.454 326.142V288.647L870.925 269.907L903.395 288.647L870.925 307.403Z" fill="#0D0D0D"/>
<path d="M946.58 307.377L979.58 326.368V288.368L946.58 307.377Z" fill="#0D0D0D"/>
<path d="M984.498 285.08L947.457 263.693L946.635 263.217L945.813 263.693L908.788 285.08L908.377 285.31V329.479L908.788 329.709L945.813 351.095L946.618 351.572L947.424 351.095H947.44L984.481 329.709L984.892 329.479V285.31L984.481 285.08H984.498ZM946.635 350.635L909.199 329.019V285.786L946.635 264.17L984.087 285.786V329.019L946.635 350.635Z" fill="#0D0D0D"/>
<path d="M946.635 269.907V344.882L914.164 326.142V288.647L946.635 269.907Z" fill="#0D0D0D"/>
<path d="M1054.58 288.86L1022.58 270.368V307.368L1054.58 288.86Z" fill="#0D0D0D"/>
<path d="M1023.18 263.693L1022.36 264.17L1059.8 285.786V285.31L1060.21 285.08L1023.18 263.693ZM1060.21 285.08L1023.18 263.693L1022.36 263.217L1021.54 263.693L984.498 285.08L984.087 285.31V329.479L984.498 329.709L1021.54 351.095H1021.56L1022.36 351.572L1023.17 351.095H1023.18L1060.21 329.709L1060.62 329.479V285.31L1060.21 285.08ZM1022.36 350.635L984.909 329.019V285.786L1022.36 264.17L1059.8 285.786V329.019L1022.36 350.635Z" fill="#0D0D0D"/>
<path d="M1054.83 326.142L1022.36 344.881L989.874 326.142V288.646L1022.36 307.402L1054.83 326.142Z" fill="#0D0D0D"/>
<path d="M1098.89 263.693L1098.07 264.17L1135.51 285.786V285.31L1135.92 285.08L1098.89 263.693ZM1135.92 285.08L1098.89 263.693L1098.07 263.217L1097.25 263.693L1060.21 285.08L1059.8 285.31V329.479L1060.21 329.709L1097.27 351.095L1098.07 351.572L1098.88 351.095L1135.92 329.709L1136.33 329.479V285.31L1135.92 285.08ZM1098.07 350.635L1060.62 329.019V285.786L1098.07 264.17L1135.51 285.786V329.019L1098.07 350.635Z" fill="#0D0D0D"/>
<path d="M1130.54 288.647V326.142L1098.07 344.882L1065.58 326.142L1098.07 307.403L1065.58 288.647L1098.07 269.907L1130.54 288.647Z" fill="#0D0D0D"/>
<path d="M1141.58 288.86L1173.58 307.368V270.368L1141.58 288.86Z" fill="#0D0D0D"/>
<path d="M1174.6 263.693L1173.78 264.17L1211.22 285.786V285.31L1211.63 285.08L1174.6 263.693ZM1211.63 285.08L1174.6 263.693L1173.78 263.217L1172.96 263.693L1135.92 285.08L1135.51 285.31V329.479L1135.92 329.709L1172.96 351.095H1172.98L1173.78 351.572L1174.59 351.095H1174.6L1211.63 329.709L1212.04 329.479V285.31L1211.63 285.08ZM1173.78 350.635L1136.33 329.019V285.786L1173.78 264.17L1211.22 285.786V329.019L1173.78 350.635Z" fill="#0D0D0D"/>
<path d="M1206.25 288.646V326.142L1173.78 344.881V307.402L1206.25 288.646Z" fill="#0D0D0D"/>
<path d="M1250.31 263.693L1249.49 264.17L1286.93 285.786V285.31L1287.34 285.08L1250.31 263.693ZM1287.34 285.08L1250.31 263.693L1249.49 263.217L1248.67 263.693L1211.63 285.08L1211.22 285.31V329.479L1211.63 329.709L1248.69 351.095L1249.49 351.572L1250.3 351.095L1287.34 329.709L1287.75 329.479V285.31L1287.34 285.08V285.08ZM1249.49 350.635L1212.04 329.019V285.786L1249.49 264.17L1286.93 285.786V329.019L1249.49 350.635V350.635Z" fill="#0D0D0D"/>
<path d="M1281.96 288.647V326.142L1249.49 307.403L1217.02 288.647L1249.49 269.907L1281.96 288.647Z" fill="#0D0D0D"/>
<path d="M1325.58 307.377L1357.58 326.368V288.368L1325.58 307.377Z" fill="#0D0D0D"/>
<path d="M1326.02 263.693L1325.2 264.17L1362.64 285.786V285.31L1363.05 285.08L1326.02 263.693ZM1363.05 285.08L1326.02 263.693L1325.2 263.217L1324.38 263.693L1287.34 285.08L1286.93 285.31V329.479L1287.34 329.709L1324.39 351.095L1325.2 351.572L1326.01 351.095L1363.05 329.709L1363.46 329.479V285.31L1363.05 285.08V285.08ZM1325.2 350.635L1287.75 329.019V285.786L1325.2 264.17L1362.64 285.786V329.019L1325.2 350.635Z" fill="#0D0D0D"/>
<path d="M1325.2 307.402V344.881L1292.73 326.142V288.646L1325.2 307.402Z" fill="#0D0D0D"/>
<path d="M1249.4 526.598L1248.58 526.122L1211.56 547.508L1211.97 547.738V548.215L1249.4 526.598ZM1287.27 547.508L1250.23 526.122L1249.4 525.645L1248.58 526.122L1211.56 547.508L1211.15 547.738V591.907L1211.56 592.137L1248.58 613.523H1248.6L1249.4 614L1250.21 613.523H1250.23L1287.27 592.137L1287.68 591.907V547.738L1287.27 547.508ZM1249.4 613.063L1211.97 591.447V548.215L1249.4 526.598L1286.86 548.215V591.447L1249.4 613.063Z" fill="#0D0D0D"/>
<path d="M1281.87 551.075V588.57L1249.4 569.831L1216.93 588.57V551.075L1249.4 532.335L1281.87 551.075Z" fill="#0D0D0D"/>
<path d="M1325.58 569.876L1357.58 588.368V551.368L1325.58 569.876Z" fill="#0D0D0D"/>
<path d="M1325.11 526.598L1324.29 526.122L1287.27 547.508L1287.68 547.738V548.215L1325.11 526.598ZM1325.94 526.122L1325.11 525.645L1324.29 526.122L1287.27 547.508L1286.86 547.738V591.907L1287.27 592.137L1324.29 613.523H1324.31L1325.11 614L1325.92 613.523H1325.94L1363.39 591.907V547.738L1325.94 526.122ZM1362.57 591.447L1325.11 613.063L1287.68 591.447V548.215L1325.11 526.598L1362.57 548.215V591.447Z" fill="#0D0D0D"/>
<path d="M1325.11 569.831V607.31L1292.64 588.57V551.075L1325.11 569.831Z" fill="#0D0D0D"/>
<path d="M832.667 242.078V241.601L795.215 263.217L796.037 263.694L833.078 242.308L832.667 242.078ZM833.078 197.662L796.037 176.275L795.215 175.799L794.393 176.275L756.958 197.892V242.078L794.393 263.694L795.215 264.17L796.037 263.694L833.078 242.308L833.489 242.078V197.892L833.078 197.662ZM795.215 263.217L757.78 241.601V198.368L795.215 176.752L832.667 198.368V241.601L795.215 263.217ZM832.667 242.078V241.601L795.215 263.217L796.037 263.694L833.078 242.308L832.667 242.078Z" fill="#0D0D0D"/>
<path d="M827.686 201.245V238.724L795.215 257.48V219.985L827.686 201.245Z" fill="#0D0D0D"/>
<path d="M795.215 182.489V219.985L762.745 238.724V201.245L795.215 182.489Z" fill="#0D0D0D"/>
<path d="M903.58 201.376L870.58 182.368V220.368L903.58 201.376Z" fill="#0D0D0D"/>
<path d="M908.377 242.078V241.601L870.925 263.217L871.747 263.694L908.788 242.308L908.377 242.078ZM908.788 197.662L871.747 176.275L870.925 175.799L870.103 176.275L833.078 197.662L832.667 197.892V242.078L833.078 242.308L870.103 263.694L870.925 264.17L871.747 263.694L908.788 242.308L909.199 242.078V197.892L908.788 197.662ZM870.925 263.217L833.489 241.601V198.368L870.925 176.752L908.377 198.368V241.601L870.925 263.217Z" fill="#0D0D0D"/>
<path d="M903.395 238.724L870.925 257.48L838.454 238.724V201.245L870.925 219.985L903.395 238.724Z" fill="#0D0D0D"/>
<path d="M914.58 238.86L946.58 257.368V220.368L914.58 238.86Z" fill="#0D0D0D"/>
<path d="M979.58 201.046V238.368L947.072 219.707L914.58 201.046L947.072 182.368L979.58 201.046Z" fill="#0D0D0D"/>
<path d="M984.172 197.386L947.388 175.848L946.572 175.368L945.756 175.848L908.988 197.386L908.58 197.618V242.118L908.988 242.35L945.756 263.888L946.572 264.368L947.388 263.888L984.172 242.35L984.58 242.118V197.618L984.172 197.386V197.386ZM946.572 263.408L909.396 241.638V198.098L946.572 176.328L983.764 198.098V241.638L946.572 263.408Z" fill="#0D0D0D"/>
<path d="M1060.21 197.662L1023.18 176.275L1022.36 175.799L1021.54 176.275L984.498 197.662L984.087 197.892V242.078L984.498 242.308L1021.54 263.694L1022.36 264.17L1023.18 263.694L1060.21 242.308L1060.62 242.078V197.892L1060.21 197.662V197.662ZM1022.36 263.217L984.909 241.601V198.368L1022.36 176.752L1059.8 198.368V241.601L1022.36 263.217Z" fill="#0D0D0D"/>
<path d="M1054.83 201.245V238.724L1022.36 257.48L989.874 238.724V201.245L1022.36 219.985V182.489L1054.83 201.245Z" fill="#0D0D0D"/>
<path d="M1130.58 238.86L1097.58 257.368V220.368L1130.58 238.86Z" fill="#0D0D0D"/>
<path d="M1098.89 176.275L1098.07 176.752L1135.51 198.368V197.892L1135.92 197.662L1098.89 176.275ZM1135.92 197.662L1098.89 176.275L1098.07 175.799L1097.25 176.275L1060.21 197.662L1059.8 197.892V242.078L1060.21 242.308L1097.25 263.694L1098.07 264.17L1098.89 263.694L1135.92 242.308L1136.33 242.078V197.892L1135.92 197.662V197.662ZM1098.07 263.217L1060.62 241.601V198.368L1098.07 176.752L1135.51 198.368V241.601L1098.07 263.217Z" fill="#0D0D0D"/>
<path d="M1130.54 201.245L1098.07 219.985L1065.58 238.724V201.245L1098.07 182.489L1130.54 201.245Z" fill="#0D0D0D"/>
<path d="M1206.58 238.86L1173.58 257.368V220.368L1206.58 238.86Z" fill="#0D0D0D"/>
<path d="M1174.6 176.275L1173.78 176.752L1211.22 198.368V197.892L1211.63 197.662L1174.6 176.275ZM1211.63 197.662L1174.6 176.275L1173.78 175.799L1172.96 176.275L1135.92 197.662L1135.51 197.892V242.078L1135.92 242.308L1172.96 263.694L1173.78 264.17L1174.6 263.694L1211.63 242.308L1212.04 242.078V197.892L1211.63 197.662V197.662ZM1173.78 263.217L1136.33 241.601V198.368L1173.78 176.752L1211.22 198.368V241.601L1173.78 263.217Z" fill="#0D0D0D"/>
<path d="M1206.25 201.245L1173.78 219.985L1141.31 238.724V201.245L1173.78 182.489L1206.25 201.245Z" fill="#0D0D0D"/>
<path d="M1250.31 176.275L1249.49 176.752L1286.93 198.368V197.892L1287.34 197.662L1250.31 176.275ZM1287.34 197.662L1250.31 176.275L1249.49 175.799L1248.67 176.275L1211.63 197.662L1211.22 197.892V242.078L1211.63 242.308L1248.67 263.694L1249.49 264.17L1250.31 263.694L1287.34 242.308L1287.75 242.078V197.892L1287.34 197.662V197.662ZM1249.49 263.217L1212.04 241.601V198.368L1249.49 176.752L1286.93 198.368V241.601L1249.49 263.217V263.217Z" fill="#0D0D0D"/>
<path d="M1281.96 201.245V238.724L1249.49 219.985V257.48L1217.02 238.724V201.245L1249.49 182.489L1281.96 201.245Z" fill="#0D0D0D"/>
<path d="M1363.05 197.662L1326.02 176.275L1325.2 175.799L1324.38 176.275L1287.34 197.662L1286.93 197.892V242.078L1287.34 242.308L1324.38 263.694L1325.2 264.17L1326.02 263.694L1363.05 242.308L1363.46 242.078V197.892L1363.05 197.662V197.662ZM1325.2 263.217L1287.75 241.601V198.368L1325.2 176.752L1362.64 198.368V241.601L1325.2 263.217Z" fill="#0D0D0D"/>
<path d="M1357.67 201.245V238.724L1325.2 219.985V182.489L1357.67 201.245Z" fill="#0D0D0D"/>
<path d="M1325.2 219.985V257.48L1292.73 238.724V201.245L1325.2 219.985Z" fill="#0D0D0D"/>
<path d="M1098.66 526.598L1097.84 526.122L1060.81 547.508L1061.22 547.738V548.215L1098.66 526.598ZM1136.52 547.508L1099.48 526.122L1098.66 525.645L1097.84 526.122L1060.81 547.508L1060.4 547.738V591.924L1060.81 592.154L1097.84 613.54L1098.66 614.017L1099.48 613.54L1136.52 592.154L1136.93 591.924V547.738L1136.52 547.508V547.508ZM1098.66 613.063L1061.22 591.447V548.215L1098.66 526.598L1136.11 548.215V591.447L1098.66 613.063ZM1098.66 526.598L1097.84 526.122L1060.81 547.508L1061.22 547.738V548.215L1098.66 526.598Z" fill="#238E45"/>
<path d="M1131.13 551.091L1098.66 569.831L1066.19 551.091L1098.66 532.335L1131.13 551.091Z" fill="#238E45"/>
<path d="M1131.13 588.57L1098.66 607.326L1066.19 588.57L1098.66 569.831L1131.13 588.57Z" fill="#238E45"/>
<path d="M1206.58 588.36L1173.58 607.368V569.368L1206.58 588.36Z" fill="#0D0D0D"/>
<path d="M1174.03 526.598L1173.21 526.122L1136.19 547.508L1136.6 547.738V548.215L1174.03 526.598ZM1174.85 526.122L1174.03 525.645L1173.21 526.122L1136.19 547.508L1135.77 547.738V591.924L1136.19 592.154L1173.21 613.54L1174.03 614.017L1174.85 613.54L1212.31 591.924V547.738L1174.85 526.122ZM1211.48 591.447L1174.03 613.063L1136.6 591.447V548.215L1174.03 526.598L1211.48 548.215V591.447Z" fill="#0D0D0D"/>
<path d="M1206.5 551.091L1174.03 569.831L1141.56 588.57V551.091L1174.03 532.335L1206.5 551.091Z" fill="#0D0D0D"/>
<path d="M795.58 132.377L827.58 151.368V113.368L795.58 132.377Z" fill="#0D0D0D"/>
<path d="M795.58 132.377L762.58 151.368V113.368L795.58 132.377Z" fill="#0D0D0D"/>
<path d="M795.08 176.368L756.58 154.368V110.368L795.08 88.3682L833.58 110.368V154.368L795.08 176.368ZM757.407 153.91L795.08 175.435L832.753 153.91V110.859L795.08 89.334L757.407 110.859V153.91Z" fill="#0D0D0D"/>
<path d="M870.58 132.377L903.58 151.368V113.368L870.58 132.377Z" fill="#0D0D0D"/>
<path d="M908.377 154.659V154.199L870.925 175.799L871.747 176.275L908.788 154.889L908.377 154.659V154.659ZM908.788 110.26L871.747 88.8737L870.925 88.397L870.103 88.8737L833.078 110.26L832.667 110.49V154.659L833.078 154.889L870.103 176.275L870.925 176.752L871.747 176.275L908.788 154.889L909.199 154.659V110.49L908.788 110.26ZM870.925 175.799L833.489 154.199V110.967L870.925 89.3504L908.377 110.967V154.199L870.925 175.799Z" fill="#0D0D0D"/>
<path d="M870.925 95.0874V132.583L838.454 151.322V113.827L870.925 95.0874Z" fill="#0D0D0D"/>
<path d="M984.498 110.26L947.457 88.8737L946.635 88.397L945.813 88.8737L908.788 110.26L908.377 110.49V154.659L908.788 154.889L945.813 176.275L946.635 176.752L947.457 176.275L984.498 154.889L984.909 154.659V110.49L984.498 110.26ZM946.635 175.799L909.199 154.199V110.967L946.635 89.3504L984.087 110.967V154.199L946.635 175.799Z" fill="#0D0D0D"/>
<path d="M979.122 113.827V151.322L946.635 170.062L914.164 151.322L946.635 132.583L914.164 113.827L946.635 95.0874L979.122 113.827Z" fill="#0D0D0D"/>
<path d="M989.58 151.368L1022.58 170.368V132.368L989.58 151.368Z" fill="#0D0D0D"/>
<path d="M1060.21 110.26L1023.18 88.8737L1022.36 88.397L1021.54 88.8737L984.498 110.26L984.087 110.49V154.659L984.498 154.889L1021.54 176.275L1022.36 176.752L1023.18 176.275L1060.21 154.889L1060.62 154.659V110.49L1060.21 110.26ZM1022.36 175.799L984.909 154.199V110.967L1022.36 89.3504L1059.8 110.967V154.199L1022.36 175.799Z" fill="#0D0D0D"/>
<path d="M1054.83 113.827V151.322L1022.36 132.583L989.874 113.827L1022.36 95.0874L1054.83 113.827Z" fill="#0D0D0D"/>
<path d="M1135.92 110.26L1098.89 88.8737L1098.07 88.397L1097.25 88.8737L1060.21 110.26L1059.8 110.49V154.659L1060.21 154.889L1097.25 176.275L1098.07 176.752L1098.89 176.275L1135.92 154.889L1136.33 154.659V110.49L1135.92 110.26ZM1098.07 175.799L1060.62 154.199V110.967L1098.07 89.3504L1135.51 110.967V154.199L1098.07 175.799Z" fill="#0D0D0D"/>
<path d="M1130.54 113.827V151.322L1098.07 132.583L1065.58 151.322V113.827L1098.07 95.0874L1130.54 113.827Z" fill="#0D0D0D"/>
<path d="M1174.6 88.8737L1173.78 89.3504L1211.22 110.967V110.49L1211.63 110.26L1174.6 88.8737ZM1211.63 110.26L1174.6 88.8737L1173.78 88.397L1172.96 88.8737L1135.92 110.26L1135.51 110.49V154.659L1135.92 154.889L1172.96 176.275L1173.78 176.752L1174.6 176.275L1211.63 154.889L1212.04 154.659V110.49L1211.63 110.26ZM1173.78 175.799L1136.33 154.199V110.967L1173.78 89.3504L1211.22 110.967V154.199L1173.78 175.799Z" fill="#0D0D0D"/>
<path d="M1173.78 95.0874V170.062L1141.31 151.322V113.827L1173.78 95.0874Z" fill="#0D0D0D"/>
<path d="M1216.58 151.368L1249.58 170.368V132.368L1216.58 151.368Z" fill="#0D0D0D"/>
<path d="M1287.34 110.26L1250.31 88.8737L1249.49 88.397L1248.67 88.8737L1211.63 110.26L1211.22 110.49V154.659L1211.63 154.889L1248.67 176.275L1249.49 176.752L1250.31 176.275L1287.34 154.889L1287.75 154.659V110.49L1287.34 110.26ZM1249.49 175.799L1212.04 154.199V110.967L1249.49 89.3504L1286.93 110.967V154.199L1249.49 175.799Z" fill="#0D0D0D"/>
<path d="M1281.96 113.827V151.322L1249.49 132.583L1217.02 113.827L1249.49 95.0874L1281.96 113.827Z" fill="#0D0D0D"/>
<path d="M1292.58 151.368L1325.58 170.368V132.368L1292.58 151.368Z" fill="#0D0D0D"/>
<path d="M1363.05 110.26L1326.02 88.8737L1325.2 88.397L1324.38 88.8737L1287.34 110.26L1286.93 110.49V154.659L1287.34 154.889L1324.38 176.275L1325.2 176.752L1326.02 176.275L1363.05 154.889L1363.46 154.659V110.49L1363.05 110.26ZM1325.2 175.799L1287.75 154.199V110.967L1325.2 89.3504L1362.64 110.967V154.199L1325.2 175.799Z" fill="#0D0D0D"/>
<path d="M1357.67 113.827V151.322L1325.2 132.583L1292.73 113.827L1325.2 95.0874L1357.67 113.827Z" fill="#0D0D0D"/>
<path d="M914.58 588.368L946.58 607.368V569.368L914.58 588.368Z" fill="#0D0D0D"/>
<path d="M946.938 526.616L946.116 526.139L909.091 547.525L909.502 547.755V548.232L946.938 526.616ZM984.801 547.525L947.76 526.139L946.938 525.662L946.116 526.139L909.091 547.525L908.68 547.755V591.924L909.091 592.154L946.116 613.54L946.938 614.017L947.76 613.54L984.801 592.154L985.212 591.924V547.755L984.801 547.525ZM946.938 613.064L909.502 591.464V548.232L946.938 526.616L984.39 548.232V591.464L946.938 613.064Z" fill="#0D0D0D"/>
<path d="M979.408 551.092L946.938 569.848L914.467 551.092L946.938 532.353L979.408 551.092Z" fill="#0D0D0D"/>
<path d="M990.58 588.368L1022.58 607.368V569.368L990.58 588.368Z" fill="#0D0D0D"/>
<path d="M990.58 550.86L1022.58 569.368V532.368L990.58 550.86Z" fill="#0D0D0D"/>
<path d="M1022.58 614.368L984.58 592.118V547.618L1022.58 525.368L1060.58 547.618V592.118L1022.58 614.368ZM985.396 591.638L1022.58 613.408L1059.76 591.638V548.098L1022.58 526.328L985.396 548.098V591.638Z" fill="#0D0D0D"/>
<path d="M795.58 45.3682L827.58 64.3682V26.3682L795.58 45.3682Z" fill="#0D0D0D"/>
<path d="M832.667 67.2577V66.781L795.215 88.3971L796.037 88.8738L833.078 67.4878L832.667 67.2577ZM833.078 22.8417L796.037 1.45572L795.215 0.979004L794.393 1.45572L756.958 23.0719V67.2577L794.393 88.8738L795.215 89.3506L796.037 88.8738L833.078 67.4878L833.489 67.2577V23.0719L833.078 22.8417ZM795.215 88.3971L757.78 66.781V23.5486L795.215 1.9324L832.667 23.5486V66.781L795.215 88.3971V88.3971Z" fill="#0D0D0D"/>
<path d="M795.215 7.66943V82.6603L762.745 63.9044V26.4254L795.215 7.66943Z" fill="#0D0D0D"/>
<path d="M870.58 45.3682L838.58 64.3682V26.3682L870.58 45.3682Z" fill="#0D0D0D"/>
<path d="M908.788 22.8417L871.747 1.45572L870.925 0.979004L870.103 1.45572L833.078 22.8417L832.667 23.0719V67.2577L833.078 67.4878L870.103 88.8738L870.925 89.3506L871.747 88.8738L908.788 67.4878L909.199 67.2577V23.0719L908.788 22.8417ZM870.925 88.3971L833.489 66.781V23.5486L870.925 1.9324L908.377 23.5486V66.781L870.925 88.3971Z" fill="#0D0D0D"/>
<path d="M903.395 26.4254V63.9044L870.925 45.1649V7.66943L903.395 26.4254Z" fill="#0D0D0D"/>
<path d="M984.498 22.8417L947.457 1.45572L946.635 0.979004L945.813 1.45572L908.788 22.8417L908.377 23.0719V67.2577L908.788 67.4878L945.813 88.8738L946.635 89.3506L947.457 88.8738L984.498 67.4878L984.909 67.2577V23.0719L984.498 22.8417ZM946.635 88.3971L909.199 66.781V23.5486L946.635 1.9324L984.087 23.5486V66.781L946.635 88.3971Z" fill="#0D0D0D"/>
<path d="M979.122 26.4253V63.9043L946.635 82.6602V45.1648L979.122 26.4253Z" fill="#0D0D0D"/>
<path d="M946.635 7.66943V45.1649L914.164 63.9044V26.4254L946.635 7.66943Z" fill="#0D0D0D"/>
<path d="M1060.21 22.8417L1023.18 1.45572L1022.36 0.979004L1021.54 1.45572L984.498 22.8417L984.087 23.0719V67.2577L984.498 67.4878L1021.54 88.8738L1022.36 89.3506L1023.18 88.8738L1060.21 67.4878L1060.62 67.2577V23.0719L1060.21 22.8417ZM1022.36 88.3971L984.909 66.781V23.5486L1022.36 1.9324L1059.8 23.5486V66.781L1022.36 88.3971Z" fill="#ECBB22"/>
<path d="M1054.83 63.904L1022.36 82.66L989.874 63.904L1022.36 45.1646L1054.83 63.904Z" fill="#ECBB22"/>
<path d="M1054.83 26.4254L1022.36 45.1649L989.874 26.4254L1022.36 7.66943L1054.83 26.4254Z" fill="#ECBB22"/>
<path d="M1135.92 22.8417L1098.89 1.45572L1098.07 0.979004L1097.25 1.45572L1060.21 22.8417L1059.8 23.0719V67.2577L1060.21 67.4878L1097.25 88.8738L1098.07 89.3506L1098.89 88.8738L1135.92 67.4878L1136.33 67.2577V23.0719L1135.92 22.8417ZM1098.07 88.3971L1060.62 66.781V23.5486L1098.07 1.9324L1135.51 23.5486V66.781L1098.07 88.3971Z" fill="#0D0D0D"/>
<path d="M1130.54 26.4254V63.9044L1098.07 45.1649L1065.58 26.4254L1098.07 7.66943L1130.54 26.4254Z" fill="#0D0D0D"/>
<path d="M1211.63 22.8417L1174.6 1.45572L1173.78 0.979004L1172.96 1.45572L1135.92 22.8417L1135.51 23.0719V67.2577L1135.92 67.4878L1172.96 88.8738L1173.78 89.3506L1174.6 88.8738L1211.63 67.4878L1212.04 67.2577V23.0719L1211.63 22.8417ZM1173.78 88.3971L1136.33 66.781V23.5486L1173.78 1.9324L1211.22 23.5486V66.781L1173.78 88.3971Z" fill="#0D0D0D"/>
<path d="M1206.25 26.4254V63.9044L1173.78 82.6603V45.1649L1141.31 26.4254L1173.78 7.66943L1206.25 26.4254Z" fill="#0D0D0D"/>
<path d="M1249.58 45.3682L1216.58 64.3682V26.3682L1249.58 45.3682Z" fill="#0D0D0D"/>
<path d="M1281.58 63.86L1249.58 82.3682V45.3682L1281.58 63.86Z" fill="#0D0D0D"/>
<path d="M1281.58 26.3765L1249.58 7.36816V45.3682L1281.58 26.3765Z" fill="#0D0D0D"/>
<path d="M1249.58 89.3682L1211.58 67.3682V23.3682L1249.58 1.36816L1287.58 23.3682V67.3682L1249.58 89.3682V89.3682ZM1212.4 66.8934L1249.58 88.4187L1286.76 66.8934V23.8429L1249.58 2.31755L1212.4 23.8429V66.8934Z" fill="#0D0D0D"/>
<path d="M1325.2 1.9324L1324.38 1.45572L1287.34 22.8417L1287.75 23.0719V23.5486L1325.2 1.9324ZM1363.05 22.8417L1326.02 1.45572L1325.2 0.979004L1324.38 1.45572L1287.34 22.8417L1286.93 23.0719V67.2577L1287.34 67.4878L1324.38 88.8738L1325.2 89.3506L1326.02 88.8738L1363.05 67.4878L1363.46 67.2577V23.0719L1363.05 22.8417ZM1325.2 88.3971L1287.75 66.781V23.5486L1325.2 1.9324L1362.64 23.5486V66.781L1325.2 88.3971Z" fill="#0D0D0D"/>
<path d="M1325.2 7.66943V82.6603L1292.73 63.9044V26.4254L1325.2 7.66943Z" fill="#0D0D0D"/>
<path d="M795.58 569.868L827.58 588.368V551.368L795.58 569.868Z" fill="#0D0D0D"/>
<path d="M795.215 526.598L794.393 526.122L757.369 547.508L757.78 547.738V548.215L795.215 526.598ZM833.078 547.508L796.037 526.122L795.215 525.645L794.393 526.122L757.369 547.508L756.958 547.738V591.924L757.369 592.154L794.393 613.54L795.215 614.017L796.037 613.54L833.078 592.154L833.489 591.924V547.738L833.078 547.508ZM795.215 613.063L757.78 591.447V548.215L795.215 526.598L832.667 548.215V591.447L795.215 613.063Z" fill="#0D0D0D"/>
<path d="M795.215 532.335V569.831L762.745 588.57V551.091L795.215 532.335Z" fill="#0D0D0D"/>
<path d="M870.925 526.598L870.103 526.122L833.078 547.508L833.489 547.738V548.215L870.925 526.598ZM871.747 526.122L870.925 525.645L870.103 526.122L833.078 547.508L832.667 547.738V591.924L833.078 592.154L870.103 613.54L870.925 614.017L871.747 613.54L909.199 591.924V547.738L871.747 526.122ZM908.377 591.447L870.925 613.063L833.489 591.447V548.215L870.925 526.598L908.377 548.215V591.447Z" fill="#0D0D0D"/>
<path d="M903.395 551.091V588.57L870.925 607.326L838.454 588.57V551.091L870.925 569.831L903.395 551.091Z" fill="#0D0D0D"/>
</svg>
