<svg width="683" height="1229" viewBox="0 0 683 1229" fill="none" xmlns="http://www.w3.org/2000/svg">
<path d="M5.87061 1202.37L37.8706 1221.37V1183.37L5.87061 1202.37Z" fill="#0D0D0D"/>
<path d="M76.1209 1161.46L39.0962 1140.07L38.2742 1139.59L37.4521 1140.07L0.41102 1161.46L0 1161.69V1205.86L0.41102 1206.09L37.4521 1227.47L38.2742 1227.95L39.0962 1227.47L76.1209 1206.09L76.5319 1205.86V1161.69L76.1209 1161.46ZM38.2742 1227L0.822039 1205.4V1162.16L38.2742 1140.55L75.7098 1162.16V1205.4L38.2742 1227Z" fill="#0D0D0D"/>
<path d="M70.7446 1165.02V1202.52L38.2741 1183.78L5.78711 1165.02L38.2741 1146.28L70.7446 1165.02Z" fill="#0D0D0D"/>
<path d="M113.871 1183.88L81.8706 1202.37V1165.37L113.871 1183.88Z" fill="#0D0D0D"/>
<path d="M146.871 1202.37L113.871 1221.37V1183.37L146.871 1202.37Z" fill="#0D0D0D"/>
<path d="M146.871 1164.86L113.871 1146.37V1183.37L146.871 1164.86Z" fill="#0D0D0D"/>
<path d="M113.871 1228.37L75.8706 1206.12V1161.62L113.871 1139.37L151.871 1161.62V1206.12L113.871 1228.37ZM76.6868 1205.64L113.871 1227.41L151.054 1205.64V1162.1L113.871 1140.33L76.6868 1162.1V1205.64Z" fill="#0D0D0D"/>
<path d="M227.54 1161.46L190.516 1140.07L189.694 1139.59L188.872 1140.07L151.83 1161.46L151.419 1161.69V1205.86L151.83 1206.09L188.872 1227.47L189.694 1227.95L190.516 1227.47L227.54 1206.09L227.951 1205.86V1161.69L227.54 1161.46ZM189.694 1227L152.241 1205.4V1162.16L189.694 1140.55L227.129 1162.16V1205.4L189.694 1227Z" fill="#0D0D0D"/>
<path d="M222.164 1165.02V1202.52L189.694 1221.26L157.223 1202.52L189.694 1183.78L222.164 1165.02Z" fill="#0D0D0D"/>
<path d="M492.871 1009.51L524.871 1028V991L492.871 1009.51Z" fill="#0D0D0D"/>
<path d="M530.991 986.863L493.967 965.477L493.145 965L492.323 965.477L455.282 986.863L454.871 987.093V1031.26L455.282 1031.49L492.323 1052.88L493.145 1053.36L493.967 1052.88L530.991 1031.49L531.402 1031.26V987.093L530.991 986.863ZM493.145 1052.4L455.693 1030.8V987.57L493.145 965.953L530.58 987.57V1030.8L493.145 1052.4Z" fill="#0D0D0D"/>
<path d="M493.145 971.69V1009.19L460.674 1027.93V990.43L493.145 971.69Z" fill="#0D0D0D"/>
<path d="M341.114 1140.55L340.291 1140.07L303.25 1161.46L303.661 1161.69V1162.16L341.114 1140.55ZM378.96 1161.46L341.936 1140.07L341.114 1139.59L340.291 1140.07L303.25 1161.46L302.839 1161.69V1205.86L303.25 1206.09L340.291 1227.47L341.114 1227.95L341.936 1227.47L378.96 1206.09L379.371 1205.86V1161.69L378.96 1161.46ZM341.114 1227L303.661 1205.4V1162.16L341.114 1140.55L378.549 1162.16V1205.4L341.114 1227ZM341.114 1140.55L340.291 1140.07L303.25 1161.46L303.661 1161.69V1162.16L341.114 1140.55Z" fill="#0D0D0D"/>
<path d="M373.584 1165.02V1202.52L341.113 1183.78V1146.28L373.584 1165.02Z" fill="#0D0D0D"/>
<path d="M341.114 1183.78V1221.26L308.643 1202.52V1165.02L341.114 1183.78Z" fill="#0D0D0D"/>
<path d="M416.823 1140.55L416.001 1140.07L378.96 1161.46L379.371 1161.69V1162.16L416.823 1140.55V1140.55ZM454.687 1161.46L417.646 1140.07L416.823 1139.59L416.001 1140.07L378.96 1161.46L378.549 1161.69V1205.86L378.96 1206.09L416.001 1227.47L416.823 1227.95L417.646 1227.47L454.687 1206.09L455.098 1205.86V1161.69L454.687 1161.46ZM416.823 1227L379.371 1205.4V1162.16L416.823 1140.55L454.276 1162.16V1205.4L416.823 1227Z" fill="#0D0D0D"/>
<path d="M449.294 1165.02V1202.52L416.824 1183.78L384.353 1202.52V1165.02L416.824 1146.28L449.294 1165.02Z" fill="#0D0D0D"/>
<path d="M459.871 1202.37L492.871 1221.37V1183.37L459.871 1202.37Z" fill="#0D0D0D"/>
<path d="M492.533 1140.55L491.711 1140.07L454.686 1161.46L455.097 1161.69V1162.16L492.533 1140.55ZM530.396 1161.46L493.355 1140.07L492.533 1139.59L491.711 1140.07L454.686 1161.46L454.275 1161.69V1205.86L454.686 1206.09L491.711 1227.47L492.533 1227.95L493.355 1227.47L530.396 1206.09L530.807 1205.86V1161.69L530.396 1161.46ZM492.533 1227L455.097 1205.4V1162.16L492.533 1140.55L529.985 1162.16V1205.4L492.533 1227Z" fill="#0D0D0D"/>
<path d="M525.004 1165.02V1202.52L492.533 1183.78L460.062 1165.02L492.533 1146.28L525.004 1165.02Z" fill="#0D0D0D"/>
<path d="M568.243 1140.55L567.421 1140.07L530.396 1161.46L530.807 1161.69V1162.16L568.243 1140.55ZM606.106 1161.46L569.065 1140.07L568.243 1139.59L567.421 1140.07L530.396 1161.46L529.985 1161.69V1205.86L530.396 1206.09L567.421 1227.47L568.243 1227.95L569.065 1227.47L606.106 1206.09L606.517 1205.86V1161.69L606.106 1161.46ZM568.243 1227L530.807 1205.4V1162.16L568.243 1140.55L605.695 1162.16V1205.4L568.243 1227Z" fill="#0D0D0D"/>
<path d="M600.714 1165.02V1202.52L568.243 1221.26L535.772 1202.52V1165.02L568.243 1146.28V1183.78L600.714 1165.02Z" fill="#0D0D0D"/>
<path d="M611.871 1202.37L643.871 1221.37V1183.37L611.871 1202.37Z" fill="#0D0D0D"/>
<path d="M643.953 1140.55L643.131 1140.07L606.106 1161.46L606.517 1161.69V1162.16L643.953 1140.55ZM644.775 1140.07L643.953 1139.59L643.131 1140.07L606.106 1161.46L605.695 1161.69V1205.86L606.106 1206.09L643.131 1227.47L643.953 1227.95L644.775 1227.47L682.227 1205.86V1161.69L644.775 1140.07ZM681.405 1205.4L643.953 1227L606.517 1205.4V1162.16L643.953 1140.55L681.405 1162.16V1205.4Z" fill="#0D0D0D"/>
<path d="M676.423 1165.02V1202.52L643.953 1183.78L611.482 1165.02L643.953 1146.28L676.423 1165.02Z" fill="#0D0D0D"/>
<path d="M75.7098 1118.45V1117.98L38.2742 1139.59L39.0962 1140.07L76.1209 1118.68L75.7098 1118.45ZM76.1209 1074.04L39.0962 1052.65L38.2742 1052.18L37.4521 1052.65L0.41102 1074.04L0 1074.27V1118.45L0.41102 1118.68L37.4521 1140.07L38.2742 1140.55L39.0962 1140.07L76.1209 1118.68L76.5319 1118.45V1074.27L76.1209 1074.04ZM38.2742 1139.59L0.822039 1117.98V1074.75L38.2742 1053.13L75.7098 1074.75V1117.98L38.2742 1139.59Z" fill="#0D0D0D"/>
<path d="M70.7446 1077.62V1115.1L38.2741 1133.86L5.78711 1115.1V1077.62L38.2741 1058.87V1096.36L70.7446 1077.62Z" fill="#0D0D0D"/>
<path d="M81.8706 1114.86L113.871 1133.37V1096.37L81.8706 1114.86Z" fill="#0D0D0D"/>
<path d="M151.831 1074.04L114.806 1052.65L113.984 1052.18L113.162 1052.65L76.121 1074.04L75.71 1074.27V1118.45L76.121 1118.68L113.162 1140.07L113.984 1140.55L114.806 1140.07L151.831 1118.68L152.242 1118.45V1074.27L151.831 1074.04ZM113.984 1139.59L76.532 1117.98V1074.75L113.984 1053.13L151.42 1074.75V1117.98L113.984 1139.59Z" fill="#0D0D0D"/>
<path d="M146.454 1077.62V1115.1L113.984 1096.36V1058.87L146.454 1077.62Z" fill="#0D0D0D"/>
<path d="M152.241 1117.98V1118.45L151.83 1118.68L188.872 1140.07L189.694 1139.59L152.241 1117.98ZM227.54 1074.04L190.516 1052.65L189.694 1052.18L188.872 1052.65L151.83 1074.04L151.419 1074.27V1118.45L151.83 1118.68L188.872 1140.07L189.694 1140.55L190.516 1140.07L227.54 1118.68L227.951 1118.45V1074.27L227.54 1074.04ZM189.694 1139.59L152.241 1117.98V1074.75L189.694 1053.13L227.129 1074.75V1117.98L189.694 1139.59ZM152.241 1117.98V1118.45L151.83 1118.68L188.872 1140.07L189.694 1139.59L152.241 1117.98Z" fill="#0D0D0D"/>
<path d="M189.694 1096.36V1133.86L157.223 1115.1V1077.62L189.694 1096.36Z" fill="#0D0D0D"/>
<path d="M222.164 1077.62V1115.1L189.693 1096.36V1058.87L222.164 1077.62Z" fill="#0D0D0D"/>
<path d="M232.871 1114.86L265.871 1133.37V1096.37L232.871 1114.86Z" fill="#0D0D0D"/>
<path d="M227.951 1117.98V1118.45L227.54 1118.68L264.582 1140.07L265.404 1139.59L227.951 1117.98V1117.98ZM303.25 1074.04L266.226 1052.65L265.404 1052.18L264.582 1052.65L227.54 1074.04L227.129 1074.27V1118.45L227.54 1118.68L264.582 1140.07L265.404 1140.55L266.226 1140.07L303.25 1118.68L303.661 1118.45V1074.27L303.25 1074.04ZM265.404 1139.59L227.951 1117.98V1074.75L265.404 1053.13L302.839 1074.75V1117.98L265.404 1139.59Z" fill="#0D0D0D"/>
<path d="M297.874 1077.62V1115.1L265.404 1096.36L232.933 1077.62L265.404 1058.87L297.874 1077.62Z" fill="#0D0D0D"/>
<path d="M373.871 1077.38L340.871 1058.37V1096.37L373.871 1077.38Z" fill="#0D0D0D"/>
<path d="M378.96 1074.04L341.936 1052.65L341.114 1052.18L340.291 1052.65L303.25 1074.04L302.839 1074.27V1118.45L303.25 1118.68L340.291 1140.07L341.114 1140.55L341.936 1140.07L378.96 1118.68L379.371 1118.45V1074.27L378.96 1074.04ZM341.114 1139.59L303.661 1117.98V1074.75L341.114 1053.13L378.549 1074.75V1117.98L341.114 1139.59Z" fill="#0D0D0D"/>
<path d="M373.584 1115.1L341.114 1133.86L308.643 1115.1V1077.62L341.114 1096.36L373.584 1115.1Z" fill="#0D0D0D"/>
<path d="M416.823 1053.13L416.001 1052.65L378.96 1074.04L379.371 1074.27V1074.75L416.823 1053.13V1053.13ZM454.687 1074.04L417.646 1052.65L416.823 1052.18L416.001 1052.65L378.96 1074.04L378.549 1074.27V1118.45L378.96 1118.68L416.001 1140.07L416.823 1140.55L417.646 1140.07L454.687 1118.68L455.098 1118.45V1074.27L454.687 1074.04ZM416.823 1139.59L379.371 1117.98V1074.75L416.823 1053.13L454.276 1074.75V1117.98L416.823 1139.59Z" fill="#0D0D0D"/>
<path d="M449.294 1077.62V1115.1L416.824 1096.36L384.353 1077.62L416.824 1058.87L449.294 1077.62Z" fill="#0D0D0D"/>
<path d="M492.533 1053.13L491.711 1052.65L454.686 1074.04L455.097 1074.27V1074.75L492.533 1053.13ZM530.396 1074.04L493.355 1052.65L492.533 1052.18L491.711 1052.65L454.686 1074.04L454.275 1074.27V1118.45L454.686 1118.68L491.711 1140.07L492.533 1140.55L493.355 1140.07L530.396 1118.68L530.807 1118.45V1074.27L530.396 1074.04ZM492.533 1139.59L455.097 1117.98V1074.75L492.533 1053.13L529.985 1074.75V1117.98L492.533 1139.59Z" fill="#0D0D0D"/>
<path d="M525.004 1077.62V1115.1L492.533 1096.36V1133.86L460.062 1115.1V1077.62L492.533 1058.87L525.004 1077.62Z" fill="#0D0D0D"/>
<path d="M535.871 1114.86L567.871 1133.37V1096.37L535.871 1114.86Z" fill="#0D0D0D"/>
<path d="M568.243 1053.13L567.421 1052.65L530.396 1074.04L530.807 1074.27V1074.75L568.243 1053.13ZM606.106 1074.04L569.065 1052.65L568.243 1052.18L567.421 1052.65L530.396 1074.04L529.985 1074.27V1118.45L530.396 1118.68L567.421 1140.07L568.243 1140.55L569.065 1140.07L606.106 1118.68L606.517 1118.45V1074.27L606.106 1074.04ZM568.243 1139.59L530.807 1117.98V1074.75L568.243 1053.13L605.695 1074.75V1117.98L568.243 1139.59Z" fill="#0D0D0D"/>
<path d="M600.714 1077.62V1115.1L568.243 1096.36L535.772 1077.62L568.243 1058.87L600.714 1077.62Z" fill="#0D0D0D"/>
<path d="M643.953 1053.13L643.131 1052.65L606.106 1074.04L606.517 1074.27V1074.75L643.953 1053.13ZM644.775 1052.65L643.953 1052.18L643.131 1052.65L606.106 1074.04L605.695 1074.27V1118.45L606.106 1118.68L643.131 1140.07L643.953 1140.55L644.775 1140.07L682.227 1118.45V1074.27L644.775 1052.65ZM681.405 1117.98L643.953 1139.59L606.517 1117.98V1074.75L643.953 1053.13L681.405 1074.75V1117.98Z" fill="#0D0D0D"/>
<path d="M643.953 1096.36L676.423 1115.1L643.953 1133.86L611.482 1115.1V1077.62L643.953 1058.87L676.423 1077.62L643.953 1096.36Z" fill="#0D0D0D"/>
<path d="M70.8706 990.36L37.8706 971.368V1009.37L70.8706 990.36Z" fill="#0D0D0D"/>
<path d="M76.1209 986.637L39.0962 965.251L38.2742 964.774L37.4521 965.251L0.41102 986.637L0 986.867V1031.04L0.41102 1031.27L37.4521 1052.65L38.2742 1053.13L39.0962 1052.65L76.1209 1031.27L76.5319 1031.04V986.867L76.1209 986.637ZM38.2742 1052.18L0.822039 1030.58V987.344L38.2742 965.727L75.7098 987.344V1030.58L38.2742 1052.18Z" fill="#0D0D0D"/>
<path d="M70.7446 1027.7L38.2741 1046.44L5.78711 1027.7V990.204L38.2741 1008.96L70.7446 1027.7Z" fill="#0D0D0D"/>
<path d="M76.532 1030.58V1031.04L76.121 1031.27L113.162 1052.65L113.984 1052.18L76.532 1030.58V1030.58ZM151.831 986.637L114.806 965.251L113.984 964.774L113.162 965.251L76.121 986.637L75.71 986.867V1031.04L76.121 1031.27L113.162 1052.65L113.984 1053.13L114.806 1052.65L151.831 1031.27L152.242 1031.04V986.867L151.831 986.637ZM113.984 1052.18L76.532 1030.58V987.344L113.984 965.727L151.42 987.344V1030.58L113.984 1052.18Z" fill="#0D0D0D"/>
<path d="M146.455 990.204V1027.7L113.984 1046.44L81.4971 1027.7L113.984 1008.96L81.4971 990.204L113.984 971.464L146.455 990.204Z" fill="#0D0D0D"/>
<path d="M156.871 990.36L189.871 1009.37V971.368L156.871 990.36Z" fill="#0D0D0D"/>
<path d="M152.241 1030.58V1031.04L151.83 1031.27L188.872 1052.65L189.694 1052.18L152.241 1030.58V1030.58ZM227.54 986.637L190.516 965.251L189.694 964.774L188.872 965.251L151.83 986.637L151.419 986.867V1031.04L151.83 1031.27L188.872 1052.65L189.694 1053.13L190.516 1052.65L227.54 1031.27L227.951 1031.04V986.867L227.54 986.637ZM189.694 1052.18L152.241 1030.58V987.344L189.694 965.727L227.129 987.344V1030.58L189.694 1052.18Z" fill="#0D0D0D"/>
<path d="M222.164 990.204V1027.7L189.693 1046.44V1008.96L222.164 990.204Z" fill="#0D0D0D"/>
<path d="M227.951 1030.58V1031.04L227.54 1031.27L264.582 1052.65L265.404 1052.18L227.951 1030.58V1030.58ZM303.25 986.637L266.226 965.251L265.404 964.774L264.582 965.251L227.54 986.637L227.129 986.867V1031.04L227.54 1031.27L264.582 1052.65L265.404 1053.13L266.226 1052.65L303.25 1031.27L303.661 1031.04V986.867L303.25 986.637ZM265.404 1052.18L227.951 1030.58V987.344L265.404 965.727L302.839 987.344V1030.58L265.404 1052.18Z" fill="#0D0D0D"/>
<path d="M297.874 990.204V1027.7L265.404 1008.96L232.933 990.204L265.404 971.464L297.874 990.204Z" fill="#0D0D0D"/>
<path d="M340.871 1008.88L373.871 1027.37V990.368L340.871 1008.88Z" fill="#0D0D0D"/>
<path d="M303.661 1030.58V1031.04L303.25 1031.27L340.291 1052.65L341.114 1052.18L303.661 1030.58V1030.58ZM378.96 986.637L341.936 965.251L341.114 964.774L340.291 965.251L303.25 986.637L302.839 986.867V1031.04L303.25 1031.27L340.291 1052.65L341.114 1053.13L341.936 1052.65L378.96 1031.27L379.371 1031.04V986.867L378.96 986.637V986.637ZM341.114 1052.18L303.661 1030.58V987.344L341.114 965.727L378.549 987.344V1030.58L341.114 1052.18V1052.18Z" fill="#0D0D0D"/>
<path d="M341.114 1008.96V1046.44L308.643 1027.7V990.204L341.114 1008.96Z" fill="#0D0D0D"/>
<path d="M448.871 1027.87L416.871 1046.37V1009.37L448.871 1027.87Z" fill="#0D0D0D"/>
<path d="M454.687 986.637L417.646 965.251L416.823 964.774L416.001 965.251L378.96 986.637L378.549 986.867V1031.04L378.96 1031.27L416.001 1052.65L416.823 1053.13L417.646 1052.65L454.687 1031.27L455.098 1031.04V986.867L454.687 986.637V986.637ZM416.823 1052.18L379.371 1030.58V987.344L416.823 965.727L454.276 987.344V1030.58L416.823 1052.18Z" fill="#0D0D0D"/>
<path d="M449.294 990.204L416.824 1008.96L384.353 1027.7V990.204L416.824 971.464L449.294 990.204Z" fill="#0D0D0D"/>
<path d="M265.128 1140.95L264.306 1140.48L227.282 1161.86L227.693 1162.09V1162.57L265.128 1140.95V1140.95ZM302.991 1161.86L265.95 1140.48L265.128 1140L264.306 1140.48L227.282 1161.86L226.871 1162.09V1206.26L227.282 1206.49L264.306 1227.88L265.128 1228.36L265.95 1227.88L302.991 1206.49L303.402 1206.26V1162.09L302.991 1161.86ZM265.128 1227.4L227.693 1205.8V1162.57L265.128 1140.95L302.58 1162.57V1205.8L265.128 1227.4ZM265.128 1140.95L264.306 1140.48L227.282 1161.86L227.693 1162.09V1162.57L265.128 1140.95V1140.95Z" fill="#3066AF"/>
<path d="M297.599 1202.93L265.128 1221.66L232.658 1202.93L265.128 1184.19L297.599 1202.93Z" fill="#3066AF"/>
<path d="M297.599 1165.43L265.128 1184.19L232.658 1165.43L265.128 1146.69L297.599 1165.43Z" fill="#3066AF"/>
<path d="M568.243 965.727L567.421 965.251L530.396 986.637L530.807 986.867V987.344L568.243 965.727V965.727ZM606.106 986.637L569.065 965.251L568.243 964.774L567.421 965.251L530.396 986.637L529.985 986.867V1031.04L530.396 1031.27L567.421 1052.65L568.243 1053.13L569.065 1052.65L606.106 1031.27L606.517 1031.04V986.867L606.106 986.637ZM568.243 1052.18L530.807 1030.58V987.344L568.243 965.727L605.695 987.344V1030.58L568.243 1052.18Z" fill="#0D0D0D"/>
<path d="M600.714 990.204V1027.7L568.243 1008.96L535.772 1027.7V990.204L568.243 971.464L600.714 990.204Z" fill="#0D0D0D"/>
<path d="M643.871 1008.88L676.871 1027.37V990.368L643.871 1008.88Z" fill="#0D0D0D"/>
<path d="M643.953 965.727L643.131 965.251L606.106 986.637L606.517 986.867V987.344L643.953 965.727V965.727ZM644.775 965.251L643.953 964.774L643.131 965.251L606.106 986.637L605.695 986.867V1031.04L606.106 1031.27L643.131 1052.65L643.953 1053.13L644.775 1052.65L682.227 1031.04V986.867L644.775 965.251V965.251ZM681.405 1030.58L643.953 1052.18L606.517 1030.58V987.344L643.953 965.727L681.405 987.344V1030.58Z" fill="#0D0D0D"/>
<path d="M643.953 1008.96V1046.44L611.482 1027.7V990.204L643.953 1008.96Z" fill="#0D0D0D"/>
<path d="M70.8706 639.36L37.8706 620.368V658.368L70.8706 639.36Z" fill="#0D0D0D"/>
<path d="M76.1209 635.863L38.2742 614L0.41102 635.863L0 636.093V680.262L0.41102 680.492L38.2742 702.355L76.1209 680.492L76.5319 680.262V636.093L76.1209 635.863V635.863ZM0.822039 679.802V636.57L38.2742 614.953L75.7098 636.57V679.802L38.2742 701.402L0.822039 679.802V679.802Z" fill="#0D0D0D"/>
<path d="M70.7446 676.925L38.2741 695.665L5.78711 676.925V639.43L38.2741 658.186L70.7446 676.925Z" fill="#0D0D0D"/>
<path d="M151.831 635.863L113.984 614L76.121 635.863L75.71 636.093V680.262L76.121 680.492L113.984 702.355L151.831 680.492L152.242 680.262V636.093L151.831 635.863V635.863ZM76.532 679.802V636.57L113.984 614.953L151.42 636.57V679.802L113.984 701.402L76.532 679.802Z" fill="#0D0D0D"/>
<path d="M146.455 639.43V676.925L113.984 695.665L81.4971 676.925L113.984 658.186L81.4971 639.43L113.984 620.69L146.455 639.43Z" fill="#0D0D0D"/>
<path d="M156.871 639.36L189.871 658.368V620.368L156.871 639.36Z" fill="#0D0D0D"/>
<path d="M227.54 635.863L189.694 614L151.83 635.863L151.419 636.093V680.262L151.83 680.492L189.694 702.355L227.54 680.492L227.951 680.262V636.093L227.54 635.863V635.863ZM152.241 679.802V636.57L189.694 614.953L227.129 636.57V679.802L189.694 701.402L152.241 679.802Z" fill="#0D0D0D"/>
<path d="M222.164 639.43V676.925L189.693 695.665V658.186L222.164 639.43Z" fill="#0D0D0D"/>
<path d="M303.25 635.863L265.404 614L227.54 635.863L227.129 636.093V680.262L227.54 680.492L265.404 702.355L303.25 680.492L303.661 680.262V636.093L303.25 635.863V635.863ZM227.951 679.802V636.57L265.404 614.953L302.839 636.57V679.802L265.404 701.402L227.951 679.802V679.802Z" fill="#0D0D0D"/>
<path d="M297.874 639.43V676.925L265.404 658.186L232.933 639.43L265.404 620.69L297.874 639.43Z" fill="#0D0D0D"/>
<path d="M340.871 658.376L373.871 677.368V639.368L340.871 658.376Z" fill="#0D0D0D"/>
<path d="M378.96 635.863L341.114 614L303.25 635.863L302.839 636.093V680.262L303.25 680.492L341.114 702.355L378.96 680.492L379.371 680.262V636.093L378.96 635.863V635.863ZM303.661 679.802V636.57L341.114 614.953L378.549 636.57V679.802L341.114 701.402L303.661 679.802V679.802Z" fill="#0D0D0D"/>
<path d="M341.114 658.186V695.665L308.643 676.925V639.43L341.114 658.186Z" fill="#0D0D0D"/>
<path d="M448.871 676.868L416.871 695.368V658.368L448.871 676.868Z" fill="#0D0D0D"/>
<path d="M454.687 635.863L416.823 614L378.96 635.863L378.549 636.093V680.262L378.96 680.492L416.823 702.355L454.687 680.492L455.098 680.262V636.093L454.687 635.863V635.863ZM379.371 679.802V636.57L416.823 614.953L454.276 636.57V679.802L416.823 701.402L379.371 679.802V679.802Z" fill="#0D0D0D"/>
<path d="M449.294 639.43L416.824 658.186L384.353 676.925V639.43L416.824 620.69L449.294 639.43Z" fill="#0D0D0D"/>
<path d="M530.396 635.863L492.533 614L454.686 635.863L454.275 636.093V680.262L454.686 680.492L492.533 702.355L530.396 680.492L530.807 680.262V636.093L530.396 635.863V635.863ZM455.097 679.802V636.57L492.533 614.953L529.985 636.57V679.802L492.533 701.402L455.097 679.802V679.802Z" fill="#0D0D0D"/>
<path d="M525.004 676.925L492.533 695.665L460.062 676.925L492.533 658.186L525.004 676.925Z" fill="#0D0D0D"/>
<path d="M525.004 639.43L492.533 658.186L460.062 639.43L492.533 620.69L525.004 639.43Z" fill="#0D0D0D"/>
<path d="M606.106 635.863L568.243 614L530.396 635.863L529.985 636.093V680.262L530.396 680.492L568.243 702.355L606.106 680.492L606.517 680.262V636.093L606.106 635.863V635.863ZM530.807 679.802V636.57L568.243 614.953L605.695 636.57V679.802L568.243 701.402L530.807 679.802Z" fill="#0D0D0D"/>
<path d="M600.714 639.43V676.925L568.243 658.186L535.772 676.925V639.43L568.243 620.69L600.714 639.43Z" fill="#0D0D0D"/>
<path d="M643.871 658.376L676.871 677.368V639.368L643.871 658.376Z" fill="#0D0D0D"/>
<path d="M643.953 614L606.106 635.863L605.695 636.093V680.262L606.106 680.492L643.953 702.355L682.227 680.262V636.093L643.953 614ZM681.405 679.802L643.953 701.402L606.517 679.802V636.57L643.953 614.953L681.405 636.57V679.802Z" fill="#0D0D0D"/>
<path d="M643.953 658.186V695.665L611.482 676.925V639.43L643.953 658.186Z" fill="#0D0D0D"/>
<path d="M0.822039 943.158V943.635L0.41102 943.865L37.4521 965.251L38.2742 964.774L0.822039 943.158V943.158ZM76.1209 899.219L39.0962 877.833L38.2742 877.356L37.4521 877.833L0.41102 899.219L0 899.449V943.635L0.41102 943.865L37.4521 965.251L38.2742 965.728L39.0962 965.251L76.1209 943.865L76.5319 943.635V899.449L76.1209 899.219ZM38.2742 964.774L0.822039 943.158V899.926L38.2742 878.309L75.7098 899.926V943.158L38.2742 964.774Z" fill="#0D0D0D"/>
<path d="M70.7446 902.802V940.281L38.2741 959.037L5.78711 940.281V902.802L38.2741 921.542V884.046L70.7446 902.802Z" fill="#0D0D0D"/>
<path d="M146.871 940.36L113.871 959.368V921.368L146.871 940.36Z" fill="#0D0D0D"/>
<path d="M76.532 943.158V943.635L76.121 943.865L113.162 965.251L113.984 964.774L76.532 943.158V943.158ZM151.831 899.219L114.806 877.833L113.984 877.356L113.162 877.833L76.121 899.219L75.71 899.449V943.635L76.121 943.865L113.162 965.251L113.984 965.728L114.806 965.251L151.831 943.865L152.242 943.635V899.449L151.831 899.219ZM113.984 964.774L76.532 943.158V899.926L113.984 878.309L151.42 899.926V943.158L113.984 964.774Z" fill="#0D0D0D"/>
<path d="M146.455 902.802L113.984 921.542L81.4971 940.281V902.802L113.984 884.046L146.455 902.802Z" fill="#0D0D0D"/>
<path d="M221.871 940.36L189.871 959.368V921.368L221.871 940.36Z" fill="#0D0D0D"/>
<path d="M152.241 943.158V943.635L151.83 943.865L188.872 965.251L189.694 964.774L152.241 943.158V943.158ZM227.54 899.219L190.516 877.833L189.694 877.356L188.872 877.833L151.83 899.219L151.419 899.449V943.635L151.83 943.865L188.872 965.251L189.694 965.728L190.516 965.251L227.54 943.865L227.951 943.635V899.449L227.54 899.219ZM189.694 964.774L152.241 943.158V899.926L189.694 878.309L227.129 899.926V943.158L189.694 964.774Z" fill="#0D0D0D"/>
<path d="M222.164 902.802L189.694 921.542L157.223 940.281V902.802L189.694 884.046L222.164 902.802Z" fill="#0D0D0D"/>
<path d="M227.951 943.158V943.635L227.54 943.865L264.582 965.251L265.404 964.774L227.951 943.158V943.158ZM303.25 899.219L266.226 877.833L265.404 877.356L264.582 877.833L227.54 899.219L227.129 899.449V943.635L227.54 943.865L264.582 965.251L265.404 965.728L266.226 965.251L303.25 943.865L303.661 943.635V899.449L303.25 899.219ZM265.404 964.774L227.951 943.158V899.926L265.404 878.309L302.839 899.926V943.158L265.404 964.774Z" fill="#0D0D0D"/>
<path d="M297.874 902.802V940.281L265.404 921.542V959.037L232.933 940.281V902.802L265.404 884.046L297.874 902.802Z" fill="#0D0D0D"/>
<path d="M303.661 943.158V943.635L303.25 943.865L340.291 965.251L341.114 964.774L303.661 943.158V943.158ZM378.96 899.219L341.936 877.833L341.114 877.356L340.291 877.833L303.25 899.219L302.839 899.449V943.635L303.25 943.865L340.291 965.251L341.114 965.728L341.936 965.251L378.96 943.865L379.371 943.635V899.449L378.96 899.219V899.219ZM341.114 964.774L303.661 943.158V899.926L341.114 878.309L378.549 899.926V943.158L341.114 964.774V964.774ZM303.661 943.158V943.635L303.25 943.865L340.291 965.251L341.114 964.774L303.661 943.158V943.158Z" fill="#0D0D0D"/>
<path d="M373.584 902.802V940.281L341.113 921.542V884.046L373.584 902.802Z" fill="#0D0D0D"/>
<path d="M341.114 921.542V959.037L308.643 940.281V902.802L341.114 921.542Z" fill="#0D0D0D"/>
<path d="M416.871 921.368L448.871 940.368V902.368L416.871 921.368Z" fill="#0D0D0D"/>
<path d="M379.371 943.158V943.635L378.96 943.865L416.001 965.251L416.823 964.774L379.371 943.158V943.158ZM454.687 899.219L417.646 877.833L416.823 877.356L416.001 877.833L378.96 899.219L378.549 899.449V943.635L378.96 943.865L416.001 965.251L416.823 965.728L417.646 965.251L454.687 943.865L455.098 943.635V899.449L454.687 899.219V899.219ZM416.823 964.774L379.371 943.158V899.926L416.823 878.309L454.276 899.926V943.158L416.823 964.774Z" fill="#0D0D0D"/>
<path d="M416.824 884.046V959.037L384.353 940.281V902.802L416.824 884.046Z" fill="#0D0D0D"/>
<path d="M530.396 899.219L493.355 877.833L492.533 877.356L491.711 877.833L454.686 899.219L454.275 899.449V943.635L454.686 943.865L491.711 965.251L492.533 965.728L493.355 965.251L530.396 943.865L530.807 943.635V899.449L530.396 899.219ZM492.533 964.774L455.097 943.158V899.926L492.533 878.309L529.985 899.926V943.158L492.533 964.774Z" fill="#0D0D0D"/>
<path d="M525.004 902.802V940.281L492.533 959.037L460.062 940.281V902.802L492.533 884.046V921.542L525.004 902.802Z" fill="#0D0D0D"/>
<path d="M568.243 878.309L567.421 877.833L530.396 899.219L530.807 899.449V899.926L568.243 878.309V878.309ZM606.106 899.219L569.065 877.833L568.243 877.356L567.421 877.833L530.396 899.219L529.985 899.449V943.635L530.396 943.865L567.421 965.251L568.243 965.728L569.065 965.251L606.106 943.865L606.517 943.635V899.449L606.106 899.219ZM568.243 964.774L530.807 943.158V899.926L568.243 878.309L605.695 899.926V943.158L568.243 964.774ZM568.243 878.309L567.421 877.833L530.396 899.219L530.807 899.449V899.926L568.243 878.309V878.309Z" fill="#238E45"/>
<path d="M600.714 940.281L568.243 959.037L535.772 940.281L568.243 921.542L600.714 940.281Z" fill="#238E45"/>
<path d="M600.714 902.802L568.243 921.542L535.772 902.802L568.243 884.046L600.714 902.802Z" fill="#238E45"/>
<path d="M676.871 940.36L643.871 959.368V921.368L676.871 940.36Z" fill="#0D0D0D"/>
<path d="M643.953 878.309L643.131 877.833L606.106 899.219L606.517 899.449V899.926L643.953 878.309V878.309ZM644.775 877.833L643.953 877.356L643.131 877.833L606.106 899.219L605.695 899.449V943.635L606.106 943.865L643.131 965.251L643.953 965.728L644.775 965.251L682.227 943.635V899.449L644.775 877.833V877.833ZM681.405 943.158L643.953 964.774L606.517 943.158V899.926L643.953 878.309L681.405 899.926V943.158Z" fill="#0D0D0D"/>
<path d="M676.423 902.802L643.953 921.542L611.482 940.281V902.802L643.953 884.046L676.423 902.802Z" fill="#0D0D0D"/>
<path d="M5.87061 852.868L37.8706 871.368V834.368L5.87061 852.868Z" fill="#0D0D0D"/>
<path d="M0.822039 855.74V856.216L0.41102 856.446L37.4521 877.833L38.2742 877.356L0.822039 855.74V855.74ZM76.1209 811.817L39.0962 790.431L38.2742 789.954L37.4521 790.431L0.41102 811.817L0 812.047V856.216L0.41102 856.446L37.4521 877.833L38.2742 878.309L39.0962 877.833L76.1209 856.446L76.5319 856.216V812.047L76.1209 811.817V811.817ZM38.2742 877.356L0.822039 855.74V812.524L38.2742 790.908L75.7098 812.524V855.74L38.2742 877.356ZM0.822039 855.74V856.216L0.41102 856.446L37.4521 877.833L38.2742 877.356L0.822039 855.74V855.74Z" fill="#0D0D0D"/>
<path d="M70.7446 815.384V852.879L38.2741 834.14L5.78711 815.384L38.2741 796.645L70.7446 815.384Z" fill="#0D0D0D"/>
<path d="M76.532 855.74V856.216L76.121 856.446L113.162 877.833L113.984 877.356L76.532 855.74V855.74ZM151.831 811.817L114.806 790.431L113.984 789.954L113.162 790.431L76.121 811.817L75.71 812.047V856.216L76.121 856.446L113.162 877.833L113.984 878.309L114.806 877.833L151.831 856.446L152.242 856.216V812.047L151.831 811.817V811.817ZM113.984 877.356L76.532 855.74V812.524L113.984 790.908L151.42 812.524V855.74L113.984 877.356Z" fill="#0D0D0D"/>
<path d="M146.455 815.384V852.879L113.984 834.14L81.4971 852.879V815.384L113.984 796.645L146.455 815.384Z" fill="#0D0D0D"/>
<path d="M152.241 855.74V856.216L151.83 856.446L188.872 877.833L189.694 877.356L152.241 855.74V855.74ZM227.54 811.817L190.516 790.431L189.694 789.954L188.872 790.431L151.83 811.817L151.419 812.047V856.216L151.83 856.446L188.872 877.833L189.694 878.309L190.516 877.833L227.54 856.446L227.951 856.216V812.047L227.54 811.817V811.817ZM189.694 877.356L152.241 855.74V812.524L189.694 790.908L227.129 812.524V855.74L189.694 877.356Z" fill="#0D0D0D"/>
<path d="M189.694 796.645V871.619L157.223 852.879V815.384L189.694 796.645Z" fill="#0D0D0D"/>
<path d="M232.871 852.868L265.871 871.368V834.368L232.871 852.868Z" fill="#0D0D0D"/>
<path d="M227.951 855.74V856.216L227.54 856.446L264.582 877.833L265.404 877.356L227.951 855.74V855.74ZM303.25 811.817L266.226 790.431L265.404 789.954L264.582 790.431L227.54 811.817L227.129 812.047V856.216L227.54 856.446L264.582 877.833L265.404 878.309L266.226 877.833L303.25 856.446L303.661 856.216V812.047L303.25 811.817V811.817ZM265.404 877.356L227.951 855.74V812.524L265.404 790.908L302.839 812.524V855.74L265.404 877.356Z" fill="#0D0D0D"/>
<path d="M297.874 815.384V852.879L265.404 834.14L232.933 815.384L265.404 796.645L297.874 815.384Z" fill="#0D0D0D"/>
<path d="M308.871 852.868L340.871 871.368V834.368L308.871 852.868Z" fill="#0D0D0D"/>
<path d="M303.661 855.74V856.216L303.25 856.446L340.291 877.833L341.114 877.356L303.661 855.74V855.74ZM378.96 811.817L341.936 790.431L341.114 789.954L340.291 790.431L303.25 811.817L302.839 812.047V856.216L303.25 856.446L340.291 877.833L341.114 878.309L341.936 877.833L378.96 856.446L379.371 856.216V812.047L378.96 811.817V811.817ZM341.114 877.356L303.661 855.74V812.524L341.114 790.908L378.549 812.524V855.74L341.114 877.356V877.356Z" fill="#0D0D0D"/>
<path d="M373.584 815.384V852.879L341.114 834.14L308.643 815.384L341.114 796.645L373.584 815.384Z" fill="#0D0D0D"/>
<path d="M379.371 855.74V856.216L378.96 856.446L416.001 877.833L416.823 877.356L379.371 855.74V855.74ZM454.687 811.817L417.646 790.431L416.823 789.954L416.001 790.431L378.96 811.817L378.549 812.047V856.216L378.96 856.446L416.001 877.833L416.823 878.309L417.646 877.833L454.687 856.446L455.098 856.216V812.047L454.687 811.817V811.817ZM416.823 877.356L379.371 855.74V812.524L416.823 790.908L454.276 812.524V855.74L416.823 877.356Z" fill="#0D0D0D"/>
<path d="M449.294 815.384L416.824 834.14V871.619L384.353 852.879V815.384L416.824 796.645L449.294 815.384Z" fill="#0D0D0D"/>
<path d="M459.871 852.868L492.871 871.368V834.368L459.871 852.868Z" fill="#0D0D0D"/>
<path d="M455.097 855.74V856.216L454.686 856.446L491.711 877.833L492.533 877.356L455.097 855.74V855.74ZM530.396 811.817L493.355 790.431L492.533 789.954L491.711 790.431L454.686 811.817L454.275 812.047V856.216L454.686 856.446L491.711 877.833L492.533 878.309L493.355 877.833L530.396 856.446L530.807 856.216V812.047L530.396 811.817V811.817ZM492.533 877.356L455.097 855.74V812.524L492.533 790.908L529.985 812.524V855.74L492.533 877.356Z" fill="#0D0D0D"/>
<path d="M525.004 815.384V852.879L492.533 834.14L460.062 815.384L492.533 796.645L525.004 815.384Z" fill="#0D0D0D"/>
<path d="M535.871 852.868L567.871 871.368V834.368L535.871 852.868Z" fill="#0D0D0D"/>
<path d="M606.106 811.817L569.065 790.431L568.243 789.954L567.421 790.431L530.396 811.817L529.985 812.047V856.216L530.396 856.446L567.421 877.833L568.243 878.309L569.065 877.833L606.106 856.446L606.517 856.216V812.047L606.106 811.817V811.817ZM568.243 877.356L530.807 855.74V812.524L568.243 790.908L605.695 812.524V855.74L568.243 877.356Z" fill="#0D0D0D"/>
<path d="M600.714 815.384L568.243 834.14L535.772 815.384L568.243 796.645L600.714 815.384Z" fill="#0D0D0D"/>
<path d="M611.871 852.868L643.871 871.368V834.368L611.871 852.868Z" fill="#0D0D0D"/>
<path d="M611.871 815.36L643.871 834.368V796.368L611.871 815.36Z" fill="#0D0D0D"/>
<path d="M643.871 878.368L605.871 856.368V812.368L643.871 790.368L681.871 812.368V856.368L643.871 878.368ZM606.687 855.893L643.871 877.419L681.054 855.893V812.843L643.871 791.318L606.687 812.843V855.893Z" fill="#0D0D0D"/>
<path d="M0.822039 768.338V768.814L0.41102 769.044L37.4521 790.43L38.2742 789.954L0.822039 768.338ZM76.1209 724.398L38.2742 702.536L0.41102 724.398L0 724.629V768.814L0.41102 769.044L37.4521 790.43L38.2742 790.907L39.0962 790.43L76.1209 769.044L76.5319 768.814V724.629L76.1209 724.398ZM38.2742 789.954L0.822039 768.338V725.105L38.2742 703.489L75.7098 725.105V768.338L38.2742 789.954ZM0.822039 768.338V768.814L0.41102 769.044L37.4521 790.43L38.2742 789.954L0.822039 768.338Z" fill="#ECBB22"/>
<path d="M70.7446 765.461L38.2741 784.217L5.78711 765.461L38.2741 746.721L70.7446 765.461Z" fill="#ECBB22"/>
<path d="M70.7446 727.982L38.2741 746.722L5.78711 727.982L38.2741 709.226L70.7446 727.982Z" fill="#ECBB22"/>
<path d="M76.532 768.338V768.814L76.121 769.044L113.162 790.43L113.984 789.954L76.532 768.338ZM151.831 724.398L113.984 702.536L76.121 724.398L75.71 724.629V768.814L76.121 769.044L113.162 790.43L113.984 790.907L114.806 790.43L151.831 769.044L152.242 768.814V724.629L151.831 724.398ZM113.984 789.954L76.532 768.338V725.105L113.984 703.489L151.42 725.105V768.338L113.984 789.954Z" fill="#0D0D0D"/>
<path d="M146.455 727.982V765.461L113.984 746.722L81.4971 727.982L113.984 709.226L146.455 727.982Z" fill="#0D0D0D"/>
<path d="M152.241 768.338V768.814L151.83 769.044L188.872 790.43L189.694 789.954L152.241 768.338ZM227.54 724.398L189.694 702.536L151.83 724.398L151.419 724.629V768.814L151.83 769.044L188.872 790.43L189.694 790.907L190.516 790.43L227.54 769.044L227.951 768.814V724.629L227.54 724.398ZM189.694 789.954L152.241 768.338V725.105L189.694 703.489L227.129 725.105V768.338L189.694 789.954Z" fill="#0D0D0D"/>
<path d="M222.164 727.982V765.461L189.694 784.217V746.722L157.223 727.982L189.694 709.226L222.164 727.982Z" fill="#0D0D0D"/>
<path d="M265.871 746.868L232.871 765.368V728.368L265.871 746.868Z" fill="#0D0D0D"/>
<path d="M297.871 765.36L265.871 784.368V746.368L297.871 765.36Z" fill="#0D0D0D"/>
<path d="M297.871 727.876L265.871 709.368V746.368L297.871 727.876Z" fill="#0D0D0D"/>
<path d="M265.371 791.368L226.871 769.118V724.618L265.371 702.368L303.871 724.618V769.118L265.371 791.368V791.368ZM227.697 768.638L265.371 790.408L303.044 768.638V725.098L265.371 703.328L227.697 725.098V768.638Z" fill="#0D0D0D"/>
<path d="M303.661 768.338V768.814L303.25 769.044L340.291 790.43L341.114 789.954L303.661 768.338ZM378.96 724.398L341.114 702.536L303.25 724.398L302.839 724.629V768.814L303.25 769.044L340.291 790.43L341.114 790.907L341.936 790.43L378.96 769.044L379.371 768.814V724.629L378.96 724.398V724.398ZM341.114 789.954L303.661 768.338V725.105L341.114 703.489L378.549 725.105V768.338L341.114 789.954V789.954Z" fill="#0D0D0D"/>
<path d="M341.114 709.226V784.217L308.643 765.461V727.982L341.114 709.226Z" fill="#0D0D0D"/>
<path d="M379.371 768.338V768.814L378.96 769.044L416.001 790.43L416.823 789.954L379.371 768.338ZM454.687 724.398L416.823 702.536L378.96 724.398L378.549 724.629V768.814L378.96 769.044L416.001 790.43L416.823 790.907L417.646 790.43L454.687 769.044L455.098 768.814V724.629L454.687 724.398V724.398ZM416.823 789.954L379.371 768.338V725.105L416.823 703.489L454.276 725.105V768.338L416.823 789.954Z" fill="#0D0D0D"/>
<path d="M449.294 727.982V765.461L416.824 784.217L384.353 765.461L416.824 746.722V709.226L449.294 727.982Z" fill="#0D0D0D"/>
<path d="M524.871 765.36L492.871 784.368V746.368L524.871 765.36Z" fill="#0D0D0D"/>
<path d="M455.097 768.338V768.814L454.686 769.044L491.711 790.43L492.533 789.954L455.097 768.338ZM530.396 724.398L492.533 702.536L454.686 724.398L454.275 724.629V768.814L454.686 769.044L491.711 790.43L492.533 790.907L493.355 790.43L530.396 769.044L530.807 768.814V724.629L530.396 724.398ZM492.533 789.954L455.097 768.338V725.105L492.533 703.489L529.985 725.105V768.338L492.533 789.954Z" fill="#0D0D0D"/>
<path d="M525.004 727.982L492.533 746.722L460.062 727.982L492.533 709.226L525.004 727.982Z" fill="#0D0D0D"/>
<path d="M567.871 746.868L600.871 765.368V728.368L567.871 746.868Z" fill="#0D0D0D"/>
<path d="M530.807 768.338V768.814L530.396 769.044L567.421 790.43L568.243 789.954L530.807 768.338ZM606.106 724.398L568.243 702.536L530.396 724.398L529.985 724.629V768.814L530.396 769.044L567.421 790.43L568.243 790.907L569.065 790.43L606.106 769.044L606.517 768.814V724.629L606.106 724.398V724.398ZM568.243 789.954L530.807 768.338V725.105L568.243 703.489L605.695 725.105V768.338L568.243 789.954Z" fill="#0D0D0D"/>
<path d="M568.243 709.226V746.722L535.772 765.461V727.982L568.243 709.226Z" fill="#0D0D0D"/>
<path d="M643.953 702.536L606.106 724.398L605.695 724.629V768.814L606.106 769.044L643.131 790.43L643.953 790.907L644.775 790.43L682.227 768.814V724.629L643.953 702.536ZM681.405 768.338L643.953 789.954L606.517 768.338V725.105L643.953 703.489L681.405 725.105V768.338Z" fill="#0D0D0D"/>
<path d="M676.423 727.982V765.461L643.953 784.217L611.482 765.461V727.982L643.953 746.721L676.423 727.982Z" fill="#0D0D0D"/>
<path d="M5.87061 588.368L37.8706 607.368V569.368L5.87061 588.368Z" fill="#0D0D0D"/>
<path d="M76.1209 547.457L39.0962 526.07L38.2742 525.594L37.4521 526.07L0.41102 547.457L0 547.687V591.856L0.41102 592.086L37.4521 613.472L38.2742 613.949L39.0962 613.472L76.1209 592.086L76.5319 591.856V547.687L76.1209 547.457ZM38.2742 612.995L0.822039 591.396V548.163L38.2742 526.547L75.7098 548.163V591.396L38.2742 612.995Z" fill="#0D0D0D"/>
<path d="M70.7446 551.024V588.519L38.2741 569.78L5.78711 551.024L38.2741 532.284L70.7446 551.024Z" fill="#0D0D0D"/>
<path d="M113.871 569.876L81.8706 588.368V551.368L113.871 569.876Z" fill="#0D0D0D"/>
<path d="M146.871 588.368L113.871 607.368V569.368L146.871 588.368Z" fill="#0D0D0D"/>
<path d="M146.871 550.86L113.871 532.368V569.368L146.871 550.86Z" fill="#0D0D0D"/>
<path d="M113.871 614.368L75.8706 592.118V547.618L113.871 525.368L151.871 547.618V592.118L113.871 614.368ZM76.6868 591.638L113.871 613.408L151.054 591.638V548.098L113.871 526.328L76.6868 548.098V591.638Z" fill="#0D0D0D"/>
<path d="M227.54 547.457L190.516 526.07L189.694 525.594L188.872 526.07L151.83 547.457L151.419 547.687V591.856L151.83 592.086L188.872 613.472L189.694 613.949L190.516 613.472L227.54 592.086L227.951 591.856V547.687L227.54 547.457ZM189.694 612.995L152.241 591.396V548.163L189.694 526.547L227.129 548.163V591.396L189.694 612.995Z" fill="#0D0D0D"/>
<path d="M222.164 551.023V588.519L189.694 607.258L157.223 588.519L189.694 569.779L222.164 551.023Z" fill="#0D0D0D"/>
<path d="M492.871 395.508L524.871 414V377L492.871 395.508Z" fill="#0D0D0D"/>
<path d="M530.991 372.863L493.967 351.477L493.145 351L492.323 351.477L455.282 372.863L454.871 373.093V417.262L455.282 417.492L492.323 438.878L493.145 439.355L493.967 438.878L530.991 417.492L531.402 417.262V373.093L530.991 372.863ZM493.145 438.402L455.693 416.802V373.57L493.145 351.953L530.58 373.57V416.802L493.145 438.402Z" fill="#0D0D0D"/>
<path d="M493.145 357.69V395.186L460.674 413.925V376.43L493.145 357.69Z" fill="#0D0D0D"/>
<path d="M341.114 526.547L340.291 526.07L303.25 547.457L303.661 547.687V548.163L341.114 526.547ZM378.96 547.457L341.936 526.07L341.114 525.594L340.291 526.07L303.25 547.457L302.839 547.687V591.856L303.25 592.086L340.291 613.472L341.114 613.949L341.936 613.472L378.96 592.086L379.371 591.856V547.687L378.96 547.457ZM341.114 612.995L303.661 591.396V548.163L341.114 526.547L378.549 548.163V591.396L341.114 612.995ZM341.114 526.547L340.291 526.07L303.25 547.457L303.661 547.687V548.163L341.114 526.547Z" fill="#0D0D0D"/>
<path d="M373.584 551.024V588.519L341.113 569.78V532.284L373.584 551.024Z" fill="#0D0D0D"/>
<path d="M341.114 569.779V607.258L308.643 588.519V551.023L341.114 569.779Z" fill="#0D0D0D"/>
<path d="M416.823 526.547L416.001 526.07L378.96 547.457L379.371 547.687V548.163L416.823 526.547V526.547ZM454.687 547.457L417.646 526.07L416.823 525.594L416.001 526.07L378.96 547.457L378.549 547.687V591.856L378.96 592.086L416.001 613.472L416.823 613.949L417.646 613.472L454.687 592.086L455.098 591.856V547.687L454.687 547.457ZM416.823 612.995L379.371 591.396V548.163L416.823 526.547L454.276 548.163V591.396L416.823 612.995Z" fill="#0D0D0D"/>
<path d="M449.294 551.024V588.519L416.824 569.78L384.353 588.519V551.024L416.824 532.284L449.294 551.024Z" fill="#0D0D0D"/>
<path d="M459.871 588.368L492.871 607.368V569.368L459.871 588.368Z" fill="#0D0D0D"/>
<path d="M492.533 526.547L491.711 526.07L454.686 547.457L455.097 547.687V548.163L492.533 526.547ZM530.396 547.457L493.355 526.07L492.533 525.594L491.711 526.07L454.686 547.457L454.275 547.687V591.856L454.686 592.086L491.711 613.472L492.533 613.949L493.355 613.472L530.396 592.086L530.807 591.856V547.687L530.396 547.457ZM492.533 612.995L455.097 591.396V548.163L492.533 526.547L529.985 548.163V591.396L492.533 612.995Z" fill="#0D0D0D"/>
<path d="M525.004 551.024V588.519L492.533 569.78L460.062 551.024L492.533 532.284L525.004 551.024Z" fill="#0D0D0D"/>
<path d="M568.243 526.547L567.421 526.07L530.396 547.457L530.807 547.687V548.163L568.243 526.547ZM606.106 547.457L569.065 526.07L568.243 525.594L567.421 526.07L530.396 547.457L529.985 547.687V591.856L530.396 592.086L567.421 613.472L568.243 613.949L569.065 613.472L606.106 592.086L606.517 591.856V547.687L606.106 547.457ZM568.243 612.995L530.807 591.396V548.163L568.243 526.547L605.695 548.163V591.396L568.243 612.995Z" fill="#0D0D0D"/>
<path d="M600.714 551.024V588.519L568.243 607.259L535.772 588.519V551.024L568.243 532.284V569.78L600.714 551.024Z" fill="#0D0D0D"/>
<path d="M611.871 588.368L643.871 607.368V569.368L611.871 588.368Z" fill="#0D0D0D"/>
<path d="M643.953 526.547L643.131 526.07L606.106 547.457L606.517 547.687V548.163L643.953 526.547ZM644.775 526.07L643.953 525.594L643.131 526.07L606.106 547.457L605.695 547.687V591.856L606.106 592.086L643.131 613.472L643.953 613.949L644.775 613.472L682.227 591.856V547.687L644.775 526.07ZM681.405 591.396L643.953 612.995L606.517 591.396V548.163L643.953 526.547L681.405 548.163V591.396Z" fill="#0D0D0D"/>
<path d="M676.423 551.024V588.519L643.953 569.78L611.482 551.024L643.953 532.284L676.423 551.024Z" fill="#0D0D0D"/>
<path d="M75.7098 504.454V503.978L38.2742 525.594L39.0962 526.071L76.1209 504.685L75.7098 504.454ZM76.1209 460.039L39.0962 438.653L38.2742 438.176L37.4521 438.653L0.41102 460.039L0 460.269V504.454L0.41102 504.685L37.4521 526.071L38.2742 526.547L39.0962 526.071L76.1209 504.685L76.5319 504.454V460.269L76.1209 460.039ZM38.2742 525.594L0.822039 503.978V460.745L38.2742 439.129L75.7098 460.745V503.978L38.2742 525.594Z" fill="#0D0D0D"/>
<path d="M70.7446 463.622V501.101L38.2741 519.857L5.78711 501.101V463.622L38.2741 444.866V482.362L70.7446 463.622Z" fill="#0D0D0D"/>
<path d="M81.8706 500.86L113.871 519.368V482.368L81.8706 500.86Z" fill="#0D0D0D"/>
<path d="M151.831 460.039L114.806 438.653L113.984 438.176L113.162 438.653L76.121 460.039L75.71 460.269V504.454L76.121 504.685L113.162 526.071L113.984 526.547L114.806 526.071L151.831 504.685L152.242 504.454V460.269L151.831 460.039ZM113.984 525.594L76.532 503.978V460.745L113.984 439.129L151.42 460.745V503.978L113.984 525.594Z" fill="#0D0D0D"/>
<path d="M146.454 463.622V501.101L113.984 482.362V444.866L146.454 463.622Z" fill="#0D0D0D"/>
<path d="M152.241 503.978V504.454L151.83 504.685L188.872 526.071L189.694 525.594L152.241 503.978ZM227.54 460.039L190.516 438.653L189.694 438.176L188.872 438.653L151.83 460.039L151.419 460.269V504.454L151.83 504.685L188.872 526.071L189.694 526.547L190.516 526.071L227.54 504.685L227.951 504.454V460.269L227.54 460.039ZM189.694 525.594L152.241 503.978V460.745L189.694 439.129L227.129 460.745V503.978L189.694 525.594ZM152.241 503.978V504.454L151.83 504.685L188.872 526.071L189.694 525.594L152.241 503.978Z" fill="#0D0D0D"/>
<path d="M189.694 482.362V519.857L157.223 501.101V463.622L189.694 482.362Z" fill="#0D0D0D"/>
<path d="M222.164 463.622V501.101L189.693 482.362V444.866L222.164 463.622Z" fill="#0D0D0D"/>
<path d="M232.871 500.86L265.871 519.368V482.368L232.871 500.86Z" fill="#0D0D0D"/>
<path d="M227.951 503.978V504.454L227.54 504.685L264.582 526.071L265.404 525.594L227.951 503.978V503.978ZM303.25 460.039L266.226 438.653L265.404 438.176L264.582 438.653L227.54 460.039L227.129 460.269V504.454L227.54 504.685L264.582 526.071L265.404 526.547L266.226 526.071L303.25 504.685L303.661 504.454V460.269L303.25 460.039ZM265.404 525.594L227.951 503.978V460.745L265.404 439.129L302.839 460.745V503.978L265.404 525.594Z" fill="#0D0D0D"/>
<path d="M297.874 463.622V501.101L265.404 482.362L232.933 463.622L265.404 444.866L297.874 463.622Z" fill="#0D0D0D"/>
<path d="M373.871 463.377L340.871 444.368V482.368L373.871 463.377Z" fill="#0D0D0D"/>
<path d="M378.96 460.039L341.936 438.653L341.114 438.176L340.291 438.653L303.25 460.039L302.839 460.269V504.454L303.25 504.685L340.291 526.071L341.114 526.547L341.936 526.071L378.96 504.685L379.371 504.454V460.269L378.96 460.039ZM341.114 525.594L303.661 503.978V460.745L341.114 439.129L378.549 460.745V503.978L341.114 525.594Z" fill="#0D0D0D"/>
<path d="M373.584 501.101L341.114 519.857L308.643 501.101V463.622L341.114 482.362L373.584 501.101Z" fill="#0D0D0D"/>
<path d="M416.823 439.129L416.001 438.653L378.96 460.039L379.371 460.269V460.745L416.823 439.129V439.129ZM454.687 460.039L417.646 438.653L416.823 438.176L416.001 438.653L378.96 460.039L378.549 460.269V504.454L378.96 504.685L416.001 526.071L416.823 526.547L417.646 526.071L454.687 504.685L455.098 504.454V460.269L454.687 460.039ZM416.823 525.594L379.371 503.978V460.745L416.823 439.129L454.276 460.745V503.978L416.823 525.594Z" fill="#0D0D0D"/>
<path d="M449.294 463.622V501.101L416.824 482.362L384.353 463.622L416.824 444.866L449.294 463.622Z" fill="#0D0D0D"/>
<path d="M492.533 439.129L491.711 438.653L454.686 460.039L455.097 460.269V460.745L492.533 439.129ZM530.396 460.039L493.355 438.653L492.533 438.176L491.711 438.653L454.686 460.039L454.275 460.269V504.454L454.686 504.685L491.711 526.071L492.533 526.547L493.355 526.071L530.396 504.685L530.807 504.454V460.269L530.396 460.039ZM492.533 525.594L455.097 503.978V460.745L492.533 439.129L529.985 460.745V503.978L492.533 525.594Z" fill="#0D0D0D"/>
<path d="M525.004 463.622V501.101L492.533 482.362V519.857L460.062 501.101V463.622L492.533 444.866L525.004 463.622Z" fill="#0D0D0D"/>
<path d="M535.871 500.86L567.871 519.368V482.368L535.871 500.86Z" fill="#0D0D0D"/>
<path d="M568.243 439.129L567.421 438.653L530.396 460.039L530.807 460.269V460.745L568.243 439.129ZM606.106 460.039L569.065 438.653L568.243 438.176L567.421 438.653L530.396 460.039L529.985 460.269V504.454L530.396 504.685L567.421 526.071L568.243 526.547L569.065 526.071L606.106 504.685L606.517 504.454V460.269L606.106 460.039ZM568.243 525.594L530.807 503.978V460.745L568.243 439.129L605.695 460.745V503.978L568.243 525.594Z" fill="#0D0D0D"/>
<path d="M600.714 463.622V501.101L568.243 482.362L535.772 463.622L568.243 444.866L600.714 463.622Z" fill="#0D0D0D"/>
<path d="M643.953 439.129L643.131 438.653L606.106 460.039L606.517 460.269V460.745L643.953 439.129ZM644.775 438.653L643.953 438.176L643.131 438.653L606.106 460.039L605.695 460.269V504.454L606.106 504.685L643.131 526.071L643.953 526.547L644.775 526.071L682.227 504.454V460.269L644.775 438.653ZM681.405 503.978L643.953 525.594L606.517 503.978V460.745L643.953 439.129L681.405 460.745V503.978Z" fill="#0D0D0D"/>
<path d="M643.953 482.362L676.423 501.101L643.953 519.857L611.482 501.101V463.622L643.953 444.866L676.423 463.622L643.953 482.362Z" fill="#0D0D0D"/>
<path d="M70.8706 376.36L37.8706 357.368V395.368L70.8706 376.36Z" fill="#0D0D0D"/>
<path d="M76.1209 372.637L39.0962 351.251L38.2742 350.774L37.4521 351.251L0.41102 372.637L0 372.867V417.036L0.41102 417.266L37.4521 438.652L38.2742 439.129L39.0962 438.652L76.1209 417.266L76.5319 417.036V372.867L76.1209 372.637ZM38.2742 438.176L0.822039 416.576V373.344L38.2742 351.727L75.7098 373.344V416.576L38.2742 438.176Z" fill="#0D0D0D"/>
<path d="M70.7446 413.699L38.2741 432.439L5.78711 413.699V376.204L38.2741 394.96L70.7446 413.699Z" fill="#0D0D0D"/>
<path d="M76.532 416.576V417.036L76.121 417.266L113.162 438.652L113.984 438.176L76.532 416.576V416.576ZM151.831 372.637L114.806 351.251L113.984 350.774L113.162 351.251L76.121 372.637L75.71 372.867V417.036L76.121 417.266L113.162 438.652L113.984 439.129L114.806 438.652L151.831 417.266L152.242 417.036V372.867L151.831 372.637ZM113.984 438.176L76.532 416.576V373.344L113.984 351.727L151.42 373.344V416.576L113.984 438.176Z" fill="#0D0D0D"/>
<path d="M146.455 376.204V413.699L113.984 432.439L81.4971 413.699L113.984 394.96L81.4971 376.204L113.984 357.464L146.455 376.204Z" fill="#0D0D0D"/>
<path d="M156.871 376.36L189.871 395.368V357.368L156.871 376.36Z" fill="#0D0D0D"/>
<path d="M152.241 416.576V417.036L151.83 417.266L188.872 438.652L189.694 438.176L152.241 416.576V416.576ZM227.54 372.637L190.516 351.251L189.694 350.774L188.872 351.251L151.83 372.637L151.419 372.867V417.036L151.83 417.266L188.872 438.652L189.694 439.129L190.516 438.652L227.54 417.266L227.951 417.036V372.867L227.54 372.637ZM189.694 438.176L152.241 416.576V373.344L189.694 351.727L227.129 373.344V416.576L189.694 438.176Z" fill="#0D0D0D"/>
<path d="M222.164 376.204V413.699L189.693 432.439V394.96L222.164 376.204Z" fill="#0D0D0D"/>
<path d="M227.951 416.576V417.036L227.54 417.266L264.582 438.652L265.404 438.176L227.951 416.576V416.576ZM303.25 372.637L266.226 351.251L265.404 350.774L264.582 351.251L227.54 372.637L227.129 372.867V417.036L227.54 417.266L264.582 438.652L265.404 439.129L266.226 438.652L303.25 417.266L303.661 417.036V372.867L303.25 372.637ZM265.404 438.176L227.951 416.576V373.344L265.404 351.727L302.839 373.344V416.576L265.404 438.176Z" fill="#0D0D0D"/>
<path d="M297.874 376.204V413.699L265.404 394.96L232.933 376.204L265.404 357.464L297.874 376.204Z" fill="#0D0D0D"/>
<path d="M340.871 394.876L373.871 413.368V376.368L340.871 394.876Z" fill="#0D0D0D"/>
<path d="M303.661 416.576V417.036L303.25 417.266L340.291 438.652L341.114 438.176L303.661 416.576V416.576ZM378.96 372.637L341.936 351.251L341.114 350.774L340.291 351.251L303.25 372.637L302.839 372.867V417.036L303.25 417.266L340.291 438.652L341.114 439.129L341.936 438.652L378.96 417.266L379.371 417.036V372.867L378.96 372.637V372.637ZM341.114 438.176L303.661 416.576V373.344L341.114 351.727L378.549 373.344V416.576L341.114 438.176V438.176Z" fill="#0D0D0D"/>
<path d="M341.114 394.96V432.439L308.643 413.699V376.204L341.114 394.96Z" fill="#0D0D0D"/>
<path d="M448.871 413.868L416.871 432.368V395.368L448.871 413.868Z" fill="#0D0D0D"/>
<path d="M454.687 372.637L417.646 351.251L416.823 350.774L416.001 351.251L378.96 372.637L378.549 372.867V417.036L378.96 417.266L416.001 438.652L416.823 439.129L417.646 438.652L454.687 417.266L455.098 417.036V372.867L454.687 372.637V372.637ZM416.823 438.176L379.371 416.576V373.344L416.823 351.727L454.276 373.344V416.576L416.823 438.176Z" fill="#0D0D0D"/>
<path d="M449.294 376.204L416.824 394.96L384.353 413.699V376.204L416.824 357.464L449.294 376.204Z" fill="#0D0D0D"/>
<path d="M265.128 526.953L264.306 526.477L227.282 547.863L227.693 548.093V548.57L265.128 526.953V526.953ZM302.991 547.863L265.95 526.477L265.128 526L264.306 526.477L227.282 547.863L226.871 548.093V592.262L227.282 592.492L264.306 613.878L265.128 614.355L265.95 613.878L302.991 592.492L303.402 592.262V548.093L302.991 547.863ZM265.128 613.402L227.693 591.802V548.57L265.128 526.953L302.58 548.57V591.802L265.128 613.402ZM265.128 526.953L264.306 526.477L227.282 547.863L227.693 548.093V548.57L265.128 526.953V526.953Z" fill="#EB3B28"/>
<path d="M297.599 588.925L265.128 607.665L232.658 588.925L265.128 570.186L297.599 588.925Z" fill="#EB3B28"/>
<path d="M297.599 551.43L265.128 570.186L232.658 551.43L265.128 532.69L297.599 551.43Z" fill="#EB3B28"/>
<path d="M568.243 351.727L567.421 351.251L530.396 372.637L530.807 372.867V373.344L568.243 351.727V351.727ZM606.106 372.637L569.065 351.251L568.243 350.774L567.421 351.251L530.396 372.637L529.985 372.867V417.036L530.396 417.266L567.421 438.652L568.243 439.129L569.065 438.652L606.106 417.266L606.517 417.036V372.867L606.106 372.637ZM568.243 438.176L530.807 416.576V373.344L568.243 351.727L605.695 373.344V416.576L568.243 438.176Z" fill="#0D0D0D"/>
<path d="M600.714 376.204V413.699L568.243 394.96L535.772 413.699V376.204L568.243 357.464L600.714 376.204Z" fill="#0D0D0D"/>
<path d="M643.871 394.876L676.871 413.368V376.368L643.871 394.876Z" fill="#0D0D0D"/>
<path d="M643.953 351.727L643.131 351.251L606.106 372.637L606.517 372.867V373.344L643.953 351.727V351.727ZM644.775 351.251L643.953 350.774L643.131 351.251L606.106 372.637L605.695 372.867V417.036L606.106 417.266L643.131 438.652L643.953 439.129L644.775 438.652L682.227 417.036V372.867L644.775 351.251V351.251ZM681.405 416.576L643.953 438.176L606.517 416.576V373.344L643.953 351.727L681.405 373.344V416.576Z" fill="#0D0D0D"/>
<path d="M643.953 394.96V432.439L611.482 413.699V376.204L643.953 394.96Z" fill="#0D0D0D"/>
<path d="M70.8706 25.3598L37.8706 6.36816V44.3682L70.8706 25.3598Z" fill="#0D0D0D"/>
<path d="M76.1209 21.8628L38.2742 0L0.41102 21.8628L0 22.0929V66.2622L0.41102 66.4924L38.2742 88.3551L76.1209 66.4924L76.5319 66.2622V22.0929L76.1209 21.8628V21.8628ZM0.822039 65.802V22.5696L38.2742 0.953413L75.7098 22.5696V65.802L38.2742 87.4017L0.822039 65.802V65.802Z" fill="#0D0D0D"/>
<path d="M70.7446 62.9251L38.2741 81.6646L5.78711 62.9251V25.4297L38.2741 44.1856L70.7446 62.9251Z" fill="#0D0D0D"/>
<path d="M151.831 21.8628L113.984 0L76.121 21.8628L75.71 22.0929V66.2622L76.121 66.4924L113.984 88.3551L151.831 66.4924L152.242 66.2622V22.0929L151.831 21.8628V21.8628ZM76.532 65.802V22.5696L113.984 0.953413L151.42 22.5696V65.802L113.984 87.4017L76.532 65.802Z" fill="#0D0D0D"/>
<path d="M146.455 25.4299V62.9254L113.984 81.6649L81.4971 62.9254L113.984 44.1859L81.4971 25.4299L113.984 6.69043L146.455 25.4299Z" fill="#0D0D0D"/>
<path d="M156.871 25.3598L189.871 44.3682V6.36816L156.871 25.3598Z" fill="#0D0D0D"/>
<path d="M227.54 21.8628L189.694 0L151.83 21.8628L151.419 22.0929V66.2622L151.83 66.4924L189.694 88.3551L227.54 66.4924L227.951 66.2622V22.0929L227.54 21.8628V21.8628ZM152.241 65.802V22.5696L189.694 0.953413L227.129 22.5696V65.802L189.694 87.4017L152.241 65.802Z" fill="#0D0D0D"/>
<path d="M222.164 25.4297V62.9251L189.693 81.6646V44.1856L222.164 25.4297Z" fill="#0D0D0D"/>
<path d="M303.25 21.8628L265.404 0L227.54 21.8628L227.129 22.0929V66.2622L227.54 66.4924L265.404 88.3551L303.25 66.4924L303.661 66.2622V22.0929L303.25 21.8628V21.8628ZM227.951 65.802V22.5696L265.404 0.953413L302.839 22.5696V65.802L265.404 87.4017L227.951 65.802V65.802Z" fill="#0D0D0D"/>
<path d="M297.874 25.4299V62.9254L265.404 44.1859L232.933 25.4299L265.404 6.69043L297.874 25.4299Z" fill="#0D0D0D"/>
<path d="M340.871 44.3765L373.871 63.3682V25.3682L340.871 44.3765Z" fill="#0D0D0D"/>
<path d="M378.96 21.8628L341.114 0L303.25 21.8628L302.839 22.0929V66.2622L303.25 66.4924L341.114 88.3551L378.96 66.4924L379.371 66.2622V22.0929L378.96 21.8628V21.8628ZM303.661 65.802V22.5696L341.114 0.953413L378.549 22.5696V65.802L341.114 87.4017L303.661 65.802V65.802Z" fill="#0D0D0D"/>
<path d="M341.114 44.1856V81.6646L308.643 62.9251V25.4297L341.114 44.1856Z" fill="#0D0D0D"/>
<path d="M448.871 62.8682L416.871 81.3682V44.3682L448.871 62.8682Z" fill="#0D0D0D"/>
<path d="M454.687 21.8628L416.823 0L378.96 21.8628L378.549 22.0929V66.2622L378.96 66.4924L416.823 88.3551L454.687 66.4924L455.098 66.2622V22.0929L454.687 21.8628V21.8628ZM379.371 65.802V22.5696L416.823 0.953413L454.276 22.5696V65.802L416.823 87.4017L379.371 65.802V65.802Z" fill="#0D0D0D"/>
<path d="M449.294 25.4299L416.824 44.1859L384.353 62.9254V25.4299L416.824 6.69043L449.294 25.4299Z" fill="#0D0D0D"/>
<path d="M530.396 21.8628L492.533 0L454.686 21.8628L454.275 22.0929V66.2622L454.686 66.4924L492.533 88.3551L530.396 66.4924L530.807 66.2622V22.0929L530.396 21.8628V21.8628ZM455.097 65.802V22.5696L492.533 0.953413L529.985 22.5696V65.802L492.533 87.4017L455.097 65.802V65.802Z" fill="#0D0D0D"/>
<path d="M525.004 62.925L492.533 81.6646L460.062 62.925L492.533 44.1855L525.004 62.925Z" fill="#0D0D0D"/>
<path d="M525.004 25.4299L492.533 44.1859L460.062 25.4299L492.533 6.69043L525.004 25.4299Z" fill="#0D0D0D"/>
<path d="M606.106 21.8628L568.243 0L530.396 21.8628L529.985 22.0929V66.2622L530.396 66.4924L568.243 88.3551L606.106 66.4924L606.517 66.2622V22.0929L606.106 21.8628V21.8628ZM530.807 65.802V22.5696L568.243 0.953413L605.695 22.5696V65.802L568.243 87.4017L530.807 65.802Z" fill="#0D0D0D"/>
<path d="M600.714 25.4299V62.9254L568.243 44.1859L535.772 62.9254V25.4299L568.243 6.69043L600.714 25.4299Z" fill="#0D0D0D"/>
<path d="M643.871 44.3765L676.871 63.3682V25.3682L643.871 44.3765Z" fill="#0D0D0D"/>
<path d="M643.953 0L606.106 21.8628L605.695 22.0929V66.2622L606.106 66.4924L643.953 88.3551L682.227 66.2622V22.0929L643.953 0ZM681.405 65.802L643.953 87.4017L606.517 65.802V22.5696L643.953 0.953413L681.405 22.5696V65.802Z" fill="#0D0D0D"/>
<path d="M643.953 44.1856V81.6646L611.482 62.9251V25.4297L643.953 44.1856Z" fill="#0D0D0D"/>
<path d="M0.822039 329.158V329.635L0.41102 329.865L37.4521 351.251L38.2742 350.774L0.822039 329.158V329.158ZM76.1209 285.219L39.0962 263.833L38.2742 263.356L37.4521 263.833L0.41102 285.219L0 285.449V329.635L0.41102 329.865L37.4521 351.251L38.2742 351.728L39.0962 351.251L76.1209 329.865L76.5319 329.635V285.449L76.1209 285.219ZM38.2742 350.774L0.822039 329.158V285.926L38.2742 264.309L75.7098 285.926V329.158L38.2742 350.774Z" fill="#0D0D0D"/>
<path d="M70.7446 288.802V326.281L38.2741 345.037L5.78711 326.281V288.802L38.2741 307.542V270.046L70.7446 288.802Z" fill="#0D0D0D"/>
<path d="M146.871 326.36L113.871 345.368V307.368L146.871 326.36Z" fill="#0D0D0D"/>
<path d="M76.532 329.158V329.635L76.121 329.865L113.162 351.251L113.984 350.774L76.532 329.158V329.158ZM151.831 285.219L114.806 263.833L113.984 263.356L113.162 263.833L76.121 285.219L75.71 285.449V329.635L76.121 329.865L113.162 351.251L113.984 351.728L114.806 351.251L151.831 329.865L152.242 329.635V285.449L151.831 285.219ZM113.984 350.774L76.532 329.158V285.926L113.984 264.309L151.42 285.926V329.158L113.984 350.774Z" fill="#0D0D0D"/>
<path d="M146.455 288.802L113.984 307.542L81.4971 326.281V288.802L113.984 270.046L146.455 288.802Z" fill="#0D0D0D"/>
<path d="M221.871 326.36L189.871 345.368V307.368L221.871 326.36Z" fill="#0D0D0D"/>
<path d="M152.241 329.158V329.635L151.83 329.865L188.872 351.251L189.694 350.774L152.241 329.158V329.158ZM227.54 285.219L190.516 263.833L189.694 263.356L188.872 263.833L151.83 285.219L151.419 285.449V329.635L151.83 329.865L188.872 351.251L189.694 351.728L190.516 351.251L227.54 329.865L227.951 329.635V285.449L227.54 285.219ZM189.694 350.774L152.241 329.158V285.926L189.694 264.309L227.129 285.926V329.158L189.694 350.774Z" fill="#0D0D0D"/>
<path d="M222.164 288.802L189.694 307.542L157.223 326.281V288.802L189.694 270.046L222.164 288.802Z" fill="#0D0D0D"/>
<path d="M227.951 329.158V329.635L227.54 329.865L264.582 351.251L265.404 350.774L227.951 329.158V329.158ZM303.25 285.219L266.226 263.833L265.404 263.356L264.582 263.833L227.54 285.219L227.129 285.449V329.635L227.54 329.865L264.582 351.251L265.404 351.728L266.226 351.251L303.25 329.865L303.661 329.635V285.449L303.25 285.219ZM265.404 350.774L227.951 329.158V285.926L265.404 264.309L302.839 285.926V329.158L265.404 350.774Z" fill="#0D0D0D"/>
<path d="M297.874 288.802V326.281L265.404 307.542V345.037L232.933 326.281V288.802L265.404 270.046L297.874 288.802Z" fill="#0D0D0D"/>
<path d="M303.661 329.158V329.635L303.25 329.865L340.291 351.251L341.114 350.774L303.661 329.158V329.158ZM378.96 285.219L341.936 263.833L341.114 263.356L340.291 263.833L303.25 285.219L302.839 285.449V329.635L303.25 329.865L340.291 351.251L341.114 351.728L341.936 351.251L378.96 329.865L379.371 329.635V285.449L378.96 285.219V285.219ZM341.114 350.774L303.661 329.158V285.926L341.114 264.309L378.549 285.926V329.158L341.114 350.774V350.774ZM303.661 329.158V329.635L303.25 329.865L340.291 351.251L341.114 350.774L303.661 329.158V329.158Z" fill="#0D0D0D"/>
<path d="M373.584 288.802V326.281L341.113 307.542V270.046L373.584 288.802Z" fill="#0D0D0D"/>
<path d="M341.114 307.542V345.037L308.643 326.281V288.802L341.114 307.542Z" fill="#0D0D0D"/>
<path d="M416.871 307.368L448.871 326.368V288.368L416.871 307.368Z" fill="#0D0D0D"/>
<path d="M379.371 329.158V329.635L378.96 329.865L416.001 351.251L416.823 350.774L379.371 329.158V329.158ZM454.687 285.219L417.646 263.833L416.823 263.356L416.001 263.833L378.96 285.219L378.549 285.449V329.635L378.96 329.865L416.001 351.251L416.823 351.728L417.646 351.251L454.687 329.865L455.098 329.635V285.449L454.687 285.219V285.219ZM416.823 350.774L379.371 329.158V285.926L416.823 264.309L454.276 285.926V329.158L416.823 350.774Z" fill="#0D0D0D"/>
<path d="M416.824 270.046V345.037L384.353 326.281V288.802L416.824 270.046Z" fill="#0D0D0D"/>
<path d="M530.396 285.219L493.355 263.833L492.533 263.356L491.711 263.833L454.686 285.219L454.275 285.449V329.635L454.686 329.865L491.711 351.251L492.533 351.728L493.355 351.251L530.396 329.865L530.807 329.635V285.449L530.396 285.219ZM492.533 350.774L455.097 329.158V285.926L492.533 264.309L529.985 285.926V329.158L492.533 350.774Z" fill="#0D0D0D"/>
<path d="M525.004 288.802V326.281L492.533 345.037L460.062 326.281V288.802L492.533 270.046V307.542L525.004 288.802Z" fill="#0D0D0D"/>
<path d="M568.243 264.309L567.421 263.833L530.396 285.219L530.807 285.449V285.926L568.243 264.309V264.309ZM606.106 285.219L569.065 263.833L568.243 263.356L567.421 263.833L530.396 285.219L529.985 285.449V329.635L530.396 329.865L567.421 351.251L568.243 351.728L569.065 351.251L606.106 329.865L606.517 329.635V285.449L606.106 285.219ZM568.243 350.774L530.807 329.158V285.926L568.243 264.309L605.695 285.926V329.158L568.243 350.774ZM568.243 264.309L567.421 263.833L530.396 285.219L530.807 285.449V285.926L568.243 264.309V264.309Z" fill="#3066AF"/>
<path d="M600.714 326.281L568.243 345.037L535.772 326.281L568.243 307.542L600.714 326.281Z" fill="#3066AF"/>
<path d="M600.714 288.802L568.243 307.542L535.772 288.802L568.243 270.046L600.714 288.802Z" fill="#3066AF"/>
<path d="M676.871 326.36L643.871 345.368V307.368L676.871 326.36Z" fill="#0D0D0D"/>
<path d="M643.953 264.309L643.131 263.833L606.106 285.219L606.517 285.449V285.926L643.953 264.309V264.309ZM644.775 263.833L643.953 263.356L643.131 263.833L606.106 285.219L605.695 285.449V329.635L606.106 329.865L643.131 351.251L643.953 351.728L644.775 351.251L682.227 329.635V285.449L644.775 263.833V263.833ZM681.405 329.158L643.953 350.774L606.517 329.158V285.926L643.953 264.309L681.405 285.926V329.158Z" fill="#0D0D0D"/>
<path d="M676.423 288.802L643.953 307.542L611.482 326.281V288.802L643.953 270.046L676.423 288.802Z" fill="#0D0D0D"/>
<path d="M5.87061 238.868L37.8706 257.368V220.368L5.87061 238.868Z" fill="#0D0D0D"/>
<path d="M0.822039 241.74V242.216L0.41102 242.446L37.4521 263.833L38.2742 263.356L0.822039 241.74V241.74ZM76.1209 197.817L39.0962 176.431L38.2742 175.954L37.4521 176.431L0.41102 197.817L0 198.047V242.216L0.41102 242.446L37.4521 263.833L38.2742 264.309L39.0962 263.833L76.1209 242.446L76.5319 242.216V198.047L76.1209 197.817V197.817ZM38.2742 263.356L0.822039 241.74V198.524L38.2742 176.908L75.7098 198.524V241.74L38.2742 263.356ZM0.822039 241.74V242.216L0.41102 242.446L37.4521 263.833L38.2742 263.356L0.822039 241.74V241.74Z" fill="#0D0D0D"/>
<path d="M70.7446 201.384V238.879L38.2741 220.14L5.78711 201.384L38.2741 182.645L70.7446 201.384Z" fill="#0D0D0D"/>
<path d="M76.532 241.74V242.216L76.121 242.446L113.162 263.833L113.984 263.356L76.532 241.74V241.74ZM151.831 197.817L114.806 176.431L113.984 175.954L113.162 176.431L76.121 197.817L75.71 198.047V242.216L76.121 242.446L113.162 263.833L113.984 264.309L114.806 263.833L151.831 242.446L152.242 242.216V198.047L151.831 197.817V197.817ZM113.984 263.356L76.532 241.74V198.524L113.984 176.908L151.42 198.524V241.74L113.984 263.356Z" fill="#0D0D0D"/>
<path d="M146.455 201.384V238.879L113.984 220.14L81.4971 238.879V201.384L113.984 182.645L146.455 201.384Z" fill="#0D0D0D"/>
<path d="M152.241 241.74V242.216L151.83 242.446L188.872 263.833L189.694 263.356L152.241 241.74V241.74ZM227.54 197.817L190.516 176.431L189.694 175.954L188.872 176.431L151.83 197.817L151.419 198.047V242.216L151.83 242.446L188.872 263.833L189.694 264.309L190.516 263.833L227.54 242.446L227.951 242.216V198.047L227.54 197.817V197.817ZM189.694 263.356L152.241 241.74V198.524L189.694 176.908L227.129 198.524V241.74L189.694 263.356Z" fill="#0D0D0D"/>
<path d="M189.694 182.645V257.619L157.223 238.879V201.384L189.694 182.645Z" fill="#0D0D0D"/>
<path d="M232.871 238.868L265.871 257.368V220.368L232.871 238.868Z" fill="#0D0D0D"/>
<path d="M227.951 241.74V242.216L227.54 242.446L264.582 263.833L265.404 263.356L227.951 241.74V241.74ZM303.25 197.817L266.226 176.431L265.404 175.954L264.582 176.431L227.54 197.817L227.129 198.047V242.216L227.54 242.446L264.582 263.833L265.404 264.309L266.226 263.833L303.25 242.446L303.661 242.216V198.047L303.25 197.817V197.817ZM265.404 263.356L227.951 241.74V198.524L265.404 176.908L302.839 198.524V241.74L265.404 263.356Z" fill="#0D0D0D"/>
<path d="M297.874 201.384V238.879L265.404 220.14L232.933 201.384L265.404 182.645L297.874 201.384Z" fill="#0D0D0D"/>
<path d="M308.871 238.868L340.871 257.368V220.368L308.871 238.868Z" fill="#0D0D0D"/>
<path d="M303.661 241.74V242.216L303.25 242.446L340.291 263.833L341.114 263.356L303.661 241.74V241.74ZM378.96 197.817L341.936 176.431L341.114 175.954L340.291 176.431L303.25 197.817L302.839 198.047V242.216L303.25 242.446L340.291 263.833L341.114 264.309L341.936 263.833L378.96 242.446L379.371 242.216V198.047L378.96 197.817V197.817ZM341.114 263.356L303.661 241.74V198.524L341.114 176.908L378.549 198.524V241.74L341.114 263.356V263.356Z" fill="#0D0D0D"/>
<path d="M373.584 201.384V238.879L341.114 220.14L308.643 201.384L341.114 182.645L373.584 201.384Z" fill="#0D0D0D"/>
<path d="M379.371 241.74V242.216L378.96 242.446L416.001 263.833L416.823 263.356L379.371 241.74V241.74ZM454.687 197.817L417.646 176.431L416.823 175.954L416.001 176.431L378.96 197.817L378.549 198.047V242.216L378.96 242.446L416.001 263.833L416.823 264.309L417.646 263.833L454.687 242.446L455.098 242.216V198.047L454.687 197.817V197.817ZM416.823 263.356L379.371 241.74V198.524L416.823 176.908L454.276 198.524V241.74L416.823 263.356Z" fill="#0D0D0D"/>
<path d="M449.294 201.384L416.824 220.14V257.619L384.353 238.879V201.384L416.824 182.645L449.294 201.384Z" fill="#0D0D0D"/>
<path d="M459.871 238.868L492.871 257.368V220.368L459.871 238.868Z" fill="#0D0D0D"/>
<path d="M455.097 241.74V242.216L454.686 242.446L491.711 263.833L492.533 263.356L455.097 241.74V241.74ZM530.396 197.817L493.355 176.431L492.533 175.954L491.711 176.431L454.686 197.817L454.275 198.047V242.216L454.686 242.446L491.711 263.833L492.533 264.309L493.355 263.833L530.396 242.446L530.807 242.216V198.047L530.396 197.817V197.817ZM492.533 263.356L455.097 241.74V198.524L492.533 176.908L529.985 198.524V241.74L492.533 263.356Z" fill="#0D0D0D"/>
<path d="M525.004 201.384V238.879L492.533 220.14L460.062 201.384L492.533 182.645L525.004 201.384Z" fill="#0D0D0D"/>
<path d="M535.871 238.868L567.871 257.368V220.368L535.871 238.868Z" fill="#0D0D0D"/>
<path d="M606.106 197.817L569.065 176.431L568.243 175.954L567.421 176.431L530.396 197.817L529.985 198.047V242.216L530.396 242.446L567.421 263.833L568.243 264.309L569.065 263.833L606.106 242.446L606.517 242.216V198.047L606.106 197.817V197.817ZM568.243 263.356L530.807 241.74V198.524L568.243 176.908L605.695 198.524V241.74L568.243 263.356Z" fill="#0D0D0D"/>
<path d="M600.714 201.384L568.243 220.14L535.772 201.384L568.243 182.645L600.714 201.384Z" fill="#0D0D0D"/>
<path d="M611.871 238.868L643.871 257.368V220.368L611.871 238.868Z" fill="#0D0D0D"/>
<path d="M611.871 201.36L643.871 220.368V182.368L611.871 201.36Z" fill="#0D0D0D"/>
<path d="M643.871 264.368L605.871 242.368V198.368L643.871 176.368L681.871 198.368V242.368L643.871 264.368ZM606.687 241.893L643.871 263.419L681.054 241.893V198.843L643.871 177.318L606.687 198.843V241.893Z" fill="#0D0D0D"/>
<path d="M0.822039 154.338V154.814L0.41102 155.044L37.4521 176.43L38.2742 175.954L0.822039 154.338ZM76.1209 110.398L38.2742 88.5356L0.41102 110.398L0 110.629V154.814L0.41102 155.044L37.4521 176.43L38.2742 176.907L39.0962 176.43L76.1209 155.044L76.5319 154.814V110.629L76.1209 110.398ZM38.2742 175.954L0.822039 154.338V111.105L38.2742 89.4891L75.7098 111.105V154.338L38.2742 175.954ZM0.822039 154.338V154.814L0.41102 155.044L37.4521 176.43L38.2742 175.954L0.822039 154.338Z" fill="#238E45"/>
<path d="M70.7446 151.461L38.2741 170.217L5.78711 151.461L38.2741 132.721L70.7446 151.461Z" fill="#238E45"/>
<path d="M70.7446 113.982L38.2741 132.722L5.78711 113.982L38.2741 95.2261L70.7446 113.982Z" fill="#238E45"/>
<path d="M76.532 154.338V154.814L76.121 155.044L113.162 176.43L113.984 175.954L76.532 154.338ZM151.831 110.398L113.984 88.5356L76.121 110.398L75.71 110.629V154.814L76.121 155.044L113.162 176.43L113.984 176.907L114.806 176.43L151.831 155.044L152.242 154.814V110.629L151.831 110.398ZM113.984 175.954L76.532 154.338V111.105L113.984 89.4891L151.42 111.105V154.338L113.984 175.954Z" fill="#0D0D0D"/>
<path d="M146.455 113.982V151.461L113.984 132.722L81.4971 113.982L113.984 95.2261L146.455 113.982Z" fill="#0D0D0D"/>
<path d="M152.241 154.338V154.814L151.83 155.044L188.872 176.43L189.694 175.954L152.241 154.338ZM227.54 110.398L189.694 88.5356L151.83 110.398L151.419 110.629V154.814L151.83 155.044L188.872 176.43L189.694 176.907L190.516 176.43L227.54 155.044L227.951 154.814V110.629L227.54 110.398ZM189.694 175.954L152.241 154.338V111.105L189.694 89.4891L227.129 111.105V154.338L189.694 175.954Z" fill="#0D0D0D"/>
<path d="M222.164 113.982V151.461L189.694 170.217V132.722L157.223 113.982L189.694 95.2261L222.164 113.982Z" fill="#0D0D0D"/>
<path d="M265.871 132.868L232.871 151.368V114.368L265.871 132.868Z" fill="#0D0D0D"/>
<path d="M297.871 151.36L265.871 170.368V132.368L297.871 151.36Z" fill="#0D0D0D"/>
<path d="M297.871 113.876L265.871 95.3682V132.368L297.871 113.876Z" fill="#0D0D0D"/>
<path d="M265.371 177.368L226.871 155.118V110.618L265.371 88.3682L303.871 110.618V155.118L265.371 177.368V177.368ZM227.697 154.638L265.371 176.408L303.044 154.638V111.098L265.371 89.3284L227.697 111.098V154.638Z" fill="#0D0D0D"/>
<path d="M303.661 154.338V154.814L303.25 155.044L340.291 176.43L341.114 175.954L303.661 154.338ZM378.96 110.398L341.114 88.5356L303.25 110.398L302.839 110.629V154.814L303.25 155.044L340.291 176.43L341.114 176.907L341.936 176.43L378.96 155.044L379.371 154.814V110.629L378.96 110.398V110.398ZM341.114 175.954L303.661 154.338V111.105L341.114 89.4891L378.549 111.105V154.338L341.114 175.954V175.954Z" fill="#0D0D0D"/>
<path d="M341.114 95.2261V170.217L308.643 151.461V113.982L341.114 95.2261Z" fill="#0D0D0D"/>
<path d="M379.371 154.338V154.814L378.96 155.044L416.001 176.43L416.823 175.954L379.371 154.338ZM454.687 110.398L416.823 88.5356L378.96 110.398L378.549 110.629V154.814L378.96 155.044L416.001 176.43L416.823 176.907L417.646 176.43L454.687 155.044L455.098 154.814V110.629L454.687 110.398V110.398ZM416.823 175.954L379.371 154.338V111.105L416.823 89.4891L454.276 111.105V154.338L416.823 175.954Z" fill="#0D0D0D"/>
<path d="M449.294 113.982V151.461L416.824 170.217L384.353 151.461L416.824 132.722V95.2261L449.294 113.982Z" fill="#0D0D0D"/>
<path d="M524.871 151.36L492.871 170.368V132.368L524.871 151.36Z" fill="#0D0D0D"/>
<path d="M455.097 154.338V154.814L454.686 155.044L491.711 176.43L492.533 175.954L455.097 154.338ZM530.396 110.398L492.533 88.5356L454.686 110.398L454.275 110.629V154.814L454.686 155.044L491.711 176.43L492.533 176.907L493.355 176.43L530.396 155.044L530.807 154.814V110.629L530.396 110.398ZM492.533 175.954L455.097 154.338V111.105L492.533 89.4891L529.985 111.105V154.338L492.533 175.954Z" fill="#0D0D0D"/>
<path d="M525.004 113.982L492.533 132.722L460.062 113.982L492.533 95.2261L525.004 113.982Z" fill="#0D0D0D"/>
<path d="M567.871 132.868L600.871 151.368V114.368L567.871 132.868Z" fill="#0D0D0D"/>
<path d="M530.807 154.338V154.814L530.396 155.044L567.421 176.43L568.243 175.954L530.807 154.338ZM606.106 110.398L568.243 88.5356L530.396 110.398L529.985 110.629V154.814L530.396 155.044L567.421 176.43L568.243 176.907L569.065 176.43L606.106 155.044L606.517 154.814V110.629L606.106 110.398V110.398ZM568.243 175.954L530.807 154.338V111.105L568.243 89.4891L605.695 111.105V154.338L568.243 175.954Z" fill="#0D0D0D"/>
<path d="M568.243 95.2261V132.722L535.772 151.461V113.982L568.243 95.2261Z" fill="#0D0D0D"/>
<path d="M643.953 88.5356L606.106 110.398L605.695 110.629V154.814L606.106 155.044L643.131 176.43L643.953 176.907L644.775 176.43L682.227 154.814V110.629L643.953 88.5356ZM681.405 154.338L643.953 175.954L606.517 154.338V111.105L643.953 89.4891L681.405 111.105V154.338Z" fill="#0D0D0D"/>
<path d="M676.423 113.982V151.461L643.953 170.217L611.482 151.461V113.982L643.953 132.721L676.423 113.982Z" fill="#0D0D0D"/>
</svg>
