<svg width="197" height="26" viewBox="0 0 197 26" fill="none" xmlns="http://www.w3.org/2000/svg">
<path d="M12.8039 11.7578V16.5981H17.2408C16.9674 17.9805 16.3882 18.9834 15.4993 19.6746C14.6123 20.3658 13.4845 20.7124 12.1884 20.7124C10.2768 20.7124 8.84305 20.056 7.85285 18.7066C6.86264 17.392 6.38473 15.4559 6.38473 12.9331C6.38473 10.5478 6.86264 8.68133 7.81845 7.33192C8.77426 6.01735 10.1392 5.32614 11.915 5.32614C13.041 5.32614 13.9968 5.63783 14.7825 6.18969C15.5337 6.74339 16.0804 7.57211 16.3863 8.60983L22.5303 8.19547C22.018 5.67083 20.8233 3.66688 18.9116 2.2148C17 0.762714 14.6105 0.036671 11.7431 0.036671C8.26196 0.036671 5.46151 1.2119 3.27654 3.52937C1.09157 5.87984 0 9.02602 0 12.9679C0 16.9098 1.05899 20.0212 3.20956 22.3368C5.32574 24.7221 8.02301 25.8973 11.2652 25.8973C12.8346 25.8973 14.2358 25.6205 15.4631 24.9989C16.6923 24.4104 17.6137 23.6165 18.2962 22.6136L18.8428 25.2061H23.0408V11.7578H12.8039ZM47.1913 22.4395C49.4451 20.0542 50.571 16.8731 50.571 12.9313C50.571 9.02419 49.4451 5.878 47.2257 3.4927C44.9719 1.17707 42.0719 0 38.5202 0C34.9703 0 32.1029 1.17523 29.8835 3.4927C27.6298 5.878 26.5382 9.02419 26.5382 12.9313C26.5382 16.8731 27.6298 20.0542 29.8835 22.4395C32.0685 24.8248 34.9703 26 38.5202 26C42.0375 26.0018 44.9375 24.8266 47.1913 22.4395ZM34.4236 18.6369C33.399 17.2893 32.9211 15.3862 32.9211 12.9331C32.9211 10.5478 33.399 8.68133 34.3892 7.33192C35.3794 5.98434 36.7444 5.2913 38.5202 5.2913C40.2617 5.2913 41.6266 5.98251 42.6512 7.33192C43.6758 8.71433 44.1881 10.5826 44.1881 12.9331C44.1881 15.3532 43.6758 17.2545 42.6856 18.6369C41.661 20.0193 40.2617 20.7105 38.5202 20.7105C36.7462 20.7124 35.3794 20.0193 34.4236 18.6369ZM60.4423 0.590373H54.0594V25.2061H71.7762V19.605H60.4423V0.590373ZM92.8294 0.590373H74.3269V25.2061H80.7098V15.7676H90.9848V10.4781H80.7098V6.08702H92.8276V0.590373H92.8294ZM108.852 12.2419L107.793 17.2545L106.768 12.2419L103.765 0.590373H95.1284V25.2061H101.068V15.4211L100.59 6.39687L102.058 13.0358L105.199 25.2061H110.525L113.631 13.1403L115.133 6.36387L114.656 15.4229V25.208H120.494V0.590373H111.788L108.852 12.2419ZM147.671 25.2061L138.933 0.590373H132.208L123.332 25.2061H130.023L131.388 20.9874H139.581L140.946 25.2061H147.671ZM134.016 12.8983L135.484 7.74628L136.987 12.8983L138.078 16.2516H132.925L134.016 12.8983ZM165.317 14.904L156.784 0.590373H150.468V25.2061H156.784V10.9621L165.216 25.2061H171.599V0.590373H165.317V14.904ZM190.718 14.904L182.185 0.590373H175.869V25.2061H182.185V10.9621L190.617 25.2061H197V0.590373H190.718V14.904Z" fill="white"/>
</svg>
