<svg width="100" height="100" viewBox="0 0 100 100" fill="none" xmlns="http://www.w3.org/2000/svg">
<rect width="100" height="100" fill="white"/>
<path fill-rule="evenodd" clip-rule="evenodd" d="M54.1538 44.9118V44.7656C54.1239 44.8146 54.0826 44.8636 54.0566 44.9118H54.1538Z" fill="#0D0D0D"/>
<path fill-rule="evenodd" clip-rule="evenodd" d="M0 0V100H100V0H0ZM31.1037 83.0774H16.2673V38.4409H31.1037V83.0774ZM23.6855 32.3486H23.5875C18.6105 32.3486 15.3846 28.9198 15.3846 24.6341C15.3846 20.2543 18.7048 16.9226 23.7826 16.9226C28.8615 16.9226 31.9826 20.2543 32.0798 24.6341C32.0798 28.9198 28.8615 32.3486 23.6855 32.3486ZM84.6154 83.0774H69.7749V59.1967C69.7749 53.1987 67.6308 49.1044 62.2596 49.1044C58.1576 49.1044 55.72 51.8611 54.6462 54.5314C54.2558 55.4853 54.1538 56.8112 54.1538 58.1488V83.0776H39.3106C39.3106 83.0776 39.5095 42.6286 39.3106 38.4411H54.1538V44.7662C56.1259 41.7316 59.6453 37.3932 67.5288 37.3932C77.2952 37.3932 84.6154 43.7712 84.6154 57.4807V83.0774Z" fill="#0D0D0D"/>
</svg>
