<svg width="75" height="75" viewBox="0 0 75 75" fill="none" xmlns="http://www.w3.org/2000/svg">
<path d="M37.5 15.625L39.1572 13.9677C38.2419 13.0524 36.7581 13.0524 35.8428 13.9677L37.5 15.625ZM37.5 40.625L35.8428 42.2822C36.7581 43.1975 38.2419 43.1975 39.1572 42.2822L37.5 40.625ZM29.5927 20.2177C28.6774 21.133 28.6774 22.617 29.5927 23.5323C30.508 24.4476 31.9919 24.4476 32.9072 23.5323L29.5927 20.2177ZM42.0928 23.5323C43.0081 24.4476 44.4919 24.4476 45.4072 23.5323C46.3225 22.617 46.3225 21.133 45.4072 20.2177L42.0928 23.5323ZM32.9072 32.7178C31.9919 31.8025 30.508 31.8025 29.5927 32.7178C28.6774 33.6331 28.6774 35.1169 29.5927 36.0322L32.9072 32.7178ZM45.4072 36.0322C46.3225 35.1169 46.3225 33.6331 45.4072 32.7178C44.4919 31.8025 43.0081 31.8025 42.0928 32.7178L45.4072 36.0322ZM10.1562 31.25V43.75H14.8438V31.25H10.1562ZM64.8438 43.75V31.25H60.1562V43.75H64.8438ZM35.1562 15.625V40.625H39.8438V15.625H35.1562ZM35.8428 13.9677L29.5927 20.2177L32.9072 23.5323L39.1572 17.2823L35.8428 13.9677ZM35.8428 17.2823L42.0928 23.5323L45.4072 20.2177L39.1572 13.9677L35.8428 17.2823ZM39.1572 38.9678L32.9072 32.7178L29.5927 36.0322L35.8428 42.2822L39.1572 38.9678ZM39.1572 42.2822L45.4072 36.0322L42.0928 32.7178L35.8428 38.9678L39.1572 42.2822ZM64.8438 31.25C64.8438 16.1485 52.6016 3.90625 37.5 3.90625V8.59375C50.0128 8.59375 60.1562 18.7373 60.1562 31.25H64.8438ZM37.5 71.0938C52.6016 71.0938 64.8438 58.8516 64.8438 43.75H60.1562C60.1562 56.2628 50.0128 66.4062 37.5 66.4062V71.0938ZM10.1562 43.75C10.1562 58.8516 22.3985 71.0938 37.5 71.0938V66.4062C24.9873 66.4062 14.8438 56.2628 14.8438 43.75H10.1562ZM14.8438 31.25C14.8438 18.7373 24.9873 8.59375 37.5 8.59375V3.90625C22.3985 3.90625 10.1562 16.1485 10.1562 31.25H14.8438Z" fill="white"/>
</svg>
