<svg width="75" height="75" viewBox="0 0 75 75" fill="none" xmlns="http://www.w3.org/2000/svg">
<path fill-rule="evenodd" clip-rule="evenodd" d="M0 0V75H75V0H0ZM63.4309 16.5956L54.6191 58.9807C54.4116 59.9814 53.2381 60.4348 52.4102 59.8332L40.3813 51.1001C39.6511 50.5698 38.6553 50.598 37.9563 51.168L31.287 56.6044C30.5131 57.2374 29.3468 56.8846 29.0504 55.9314L24.4195 41.0384L12.4553 36.5731C11.2399 36.1179 11.2296 34.4021 12.4414 33.9353L61.5429 14.9932C62.5838 14.5907 63.6577 15.5026 63.4309 16.5956Z" fill="white"/>
<path fill-rule="evenodd" clip-rule="evenodd" d="M51.6869 24.2603L28.3043 38.6614C27.4081 39.2145 26.9863 40.2968 27.2754 41.31L29.8035 50.1931C29.9834 50.8225 30.8965 50.7582 30.9841 50.1079L31.6411 45.2365C31.7652 44.3194 32.2025 43.474 32.881 42.8428L52.1781 24.9051C52.5394 24.5705 52.1069 24.0023 51.6869 24.2603Z" fill="white"/>
</svg>
