<svg width="100" height="100" viewBox="0 0 100 100" fill="none" xmlns="http://www.w3.org/2000/svg">
<rect width="100" height="100" fill="white"/>
<path fill-rule="evenodd" clip-rule="evenodd" d="M0 0V100H100V0H0ZM84.5745 22.1275L72.8255 78.6409C72.5488 79.9752 70.9842 80.5798 69.8802 79.7776L53.8418 68.1334C52.8681 67.4264 51.5404 67.464 50.6084 68.224L41.716 75.4725C40.6842 76.3165 39.129 75.8462 38.7338 74.5752L32.5593 54.7178L16.607 48.7642C14.9866 48.1571 14.9727 45.8694 16.5886 45.247L82.0571 19.991C83.4451 19.4543 84.8769 20.6701 84.5745 22.1275Z" fill="#0D0D0D"/>
<path fill-rule="evenodd" clip-rule="evenodd" d="M68.916 32.3471L37.7393 51.5486C36.5444 52.286 35.982 53.7291 36.3674 55.08L39.7382 66.9242C39.978 67.7633 41.1956 67.6776 41.3123 66.8106L42.1883 60.3154C42.3538 59.0926 42.9369 57.9653 43.8415 57.1238L69.571 33.2069C70.0527 32.7607 69.476 32.0031 68.916 32.3471Z" fill="#0D0D0D"/>
</svg>
