<svg width="100" height="100" viewBox="0 0 100 100" fill="none" xmlns="http://www.w3.org/2000/svg">
<rect width="100" height="100" fill="white"/>
<path fill-rule="evenodd" clip-rule="evenodd" d="M0 0V100H100V0H0ZM77.5277 35.8811C77.5547 36.4906 77.5686 37.1033 77.5686 37.7185C77.5686 56.4884 63.2824 78.1308 37.1569 78.1308C29.1358 78.1308 21.6699 75.7798 15.3844 71.749C16.4956 71.8811 17.6259 71.9483 18.7727 71.9483C25.4273 71.9483 31.5514 69.6778 36.4127 65.8675C30.1974 65.7534 24.9516 61.6468 23.144 56.0037C24.0116 56.1701 24.9015 56.2593 25.8167 56.2593C27.1121 56.2593 28.367 56.0848 29.5589 55.7609C23.0615 54.4556 18.1653 48.7154 18.1653 41.8338C18.1653 41.7738 18.1653 41.7143 18.1666 41.6549C20.0813 42.7187 22.2712 43.3578 24.5998 43.4316C20.7884 40.8846 18.2815 36.5369 18.2815 31.6097C18.2815 29.0064 18.982 26.5668 20.2048 24.4686C27.2099 33.0622 37.6758 38.7165 49.4802 39.3095C49.2378 38.2695 49.1116 37.1853 49.1116 36.0723C49.1116 28.2288 55.4717 21.8694 63.3152 21.8694C67.4007 21.8694 71.0921 23.5941 73.6829 26.3543C76.9178 25.718 79.9578 24.5354 82.7022 22.9079C81.642 26.2248 79.3899 29.0077 76.4571 30.7659C79.3306 30.4224 82.0677 29.6587 84.6149 28.529C82.7112 31.3771 80.3033 33.8789 77.5277 35.8811Z" fill="#0D0D0D"/>
</svg>
