<svg width="50" height="50" viewBox="0 0 50 50" fill="none" xmlns="http://www.w3.org/2000/svg">
<path fill-rule="evenodd" clip-rule="evenodd" d="M0 0V50H50V0H0ZM38.7638 17.9405C38.7774 18.2453 38.7843 18.5516 38.7843 18.8592C38.7843 28.2442 31.6412 39.0654 18.5785 39.0654C14.5679 39.0654 10.8349 37.8899 7.6922 35.8745C8.2478 35.9406 8.81297 35.9742 9.38637 35.9742C12.7136 35.9742 15.7757 34.8389 18.2064 32.9337C15.0987 32.8767 12.4758 30.8234 11.572 28.0019C12.0058 28.0851 12.4508 28.1297 12.9084 28.1297C13.556 28.1297 14.1835 28.0424 14.7795 27.8804C11.5308 27.2278 9.08264 24.3577 9.08264 20.9169C9.08264 20.8869 9.08264 20.8571 9.0833 20.8275C10.0407 21.3593 11.1356 21.6789 12.2999 21.7158C10.3942 20.4423 9.14077 18.2685 9.14077 15.8048C9.14077 14.5032 9.49099 13.2834 10.1024 12.2343C13.6049 16.5311 18.8379 19.3582 24.7401 19.6547C24.6189 19.1347 24.5558 18.5926 24.5558 18.0362C24.5558 14.1144 27.7358 10.9347 31.6576 10.9347C33.7003 10.9347 35.546 11.797 36.8414 13.1771C38.4589 12.859 39.9789 12.2677 41.3511 11.454C40.821 13.1124 39.6949 14.5038 38.2286 15.383C39.6653 15.2112 41.0338 14.8293 42.3075 14.2645C41.3556 15.6886 40.1516 16.9395 38.7638 17.9405Z" fill="white"/>
</svg>
